<?xml version="1.0" encoding="utf-8"?>
<!-- Generator: Adobe Illustrator 18.0.0, SVG Export Plug-In . SVG Version: 6.00 Build 0)  -->
<!DOCTYPE svg PUBLIC "-//W3C//DTD SVG 1.1//EN" "http://www.w3.org/Graphics/SVG/1.1/DTD/svg11.dtd">
<svg version="1.1" id="Слой_1" xmlns="http://www.w3.org/2000/svg" xmlns:xlink="http://www.w3.org/1999/xlink" x="0px" y="0px"
	 viewBox="0 0 85 85" enable-background="new 0 0 85 85" xml:space="preserve">
<g id="Layer_x0020_1">
	<g id="Layer_x0020_1_0">
		<path fill="#999999" d="M83.4,53.8c6.3-22.6-7-46-29.6-52.3c-22.6-6.3-46,7-52.3,29.6c-6.3,22.6,7,46,29.6,52.3
			C53.8,89.7,77.3,76.4,83.4,53.8z"/>
		<path fill="#F1F1F2" d="M58.8,10.8L58.8,10.8L58.8,10.8z M67,26c0.5,0.7,1,1.4,1.5,2.1c5.3,8.1,10,18.3,13.7,30
			c0.4-1.2,0.8-2.3,1.3-3.6c-1.6-4.5-4.2-11.3-7.8-18.6c-3.9-8.1-10-19-16.7-25.2l0,0l0,0c-4.3-4-9.2-6.3-14.7-7.3
			c-2.4-0.4-5.1-0.5-7.6-0.3c-2.4,0.2-5,1-7.5,1.8c-2.9,1-5.4,2.2-8.1,4c-2.7,1.7-4.7,3.6-6.8,5.9c-4.4,4.9-7.2,10.5-8.2,16.4
			c-0.9,5.1-0.5,9.7,1.5,14.4c2.2,5.2,6.1,10.1,11.5,14.2l3.8,2.9c7.9,5.9,23.3,17.5,27.9,21.5c1-0.2,1.8-0.4,2.8-0.6
			C45,76.8,37.1,70.8,30.7,65.3c-0.7-0.6-1.5-1.3-2.1-1.9c-6.8-5.8-11.9-11.3-14.4-16.7C2.8,22.6,23.3,3.8,44,8.3
			C52.2,10.2,60.1,16.4,67,26z M28.4,63.5c0.7,0.6,1.4,1.3,2.1,1.9c17.5-8.2,30.1-20.6,37.8-37.2c-0.5-0.7-1-1.5-1.5-2.1
			C59.1,42.8,46.4,55.2,28.4,63.5z"/>
	</g>
</g>
</svg>
