<?xml version="1.0" encoding="UTF-8"?>
<!DOCTYPE svg PUBLIC "-//W3C//DTD SVG 1.1//EN" "http://www.w3.org/Graphics/SVG/1.1/DTD/svg11.dtd">
<!-- Creator: CorelDRAW X7 -->
<svg xmlns="http://www.w3.org/2000/svg" xml:space="preserve" width="125px" height="85px" version="1.1" style="shape-rendering:geometricPrecision; text-rendering:geometricPrecision; image-rendering:optimizeQuality; fill-rule:evenodd; clip-rule:evenodd"
viewBox="0 0 125000 85000"
 xmlns:xlink="http://www.w3.org/1999/xlink"
 enable-background="new 0 0 182 118">
 <defs>
  <style type="text/css">
   <![CDATA[
    .fil0 {fill:#848484}
   ]]>
  </style>
 </defs>
 <g id="Layer_x0020_1">
  <metadata id="CorelCorpID_0Corel-Layer"/>
  <g id="Layer_x0020_1_0">
   <path class="fil0" d="M46786 10404l0 0c906,114 1585,227 2378,339l4980 -4979c-1019,-114 -2038,-340 -3169,-453 -19355,-3735 -37125,2264 -49689,8942 -339,226 -566,565 -566,905 0,566 566,1019 1132,1019 113,0 340,0 454,-114 11430,-4866 27163,-8148 44480,-5659z"/>
   <path class="fil0" d="M7172 84993c-905,0 -1811,-113 -2603,-453 -793,-226 -1472,-679 -2038,-1245 -566,-566 -1018,-1245 -1358,-2151 -339,-791 -453,-1811 -453,-2942 0,-1018 114,-1924 453,-2830 340,-793 792,-1584 1358,-2151 566,-566 1245,-1018 2038,-1357 792,-340 1698,-454 2716,-454 566,0 1018,0 1472,114 452,113 792,113 1245,227 339,113 792,225 1018,338 340,114 566,227 792,341l0 3169 -339 0c-113,-114 -340,-341 -565,-453 -227,-227 -567,-340 -793,-567 -340,-225 -679,-339 -1019,-452 -339,-113 -793,-227 -1132,-227 -452,0 -906,114 -1358,227 -452,113 -793,340 -1132,792 -340,339 -565,793 -792,1359 -227,565 -340,1245 -340,2037 0,793 113,1472 340,2038 227,565 566,1018 906,1244 339,339 791,566 1131,680 453,113 905,226 1245,226 453,0 793,-113 1245,-226 453,-114 793,-341 1132,-453 226,-227 567,-340 792,-567 227,-225 454,-339 566,-452l340 0 0 3056c-340,113 -679,226 -906,453 -339,112 -566,226 -905,339 -453,113 -792,227 -1132,227 -793,113 -1245,113 -1924,113z"/>
   <path class="fil0" d="M23244 80126c-113,566 -340,1018 -679,1358 -340,339 -679,566 -1019,793 -339,113 -791,225 -1245,225 -452,0 -792,-112 -1245,-225 -339,-114 -679,-454 -1018,-793 -340,-340 -566,-792 -679,-1358 -227,-566 -227,-1245 -227,-1924 0,-793 113,-1472 227,-2038 225,-565 452,-1018 679,-1358 339,-339 679,-566 1018,-792 340,-113 793,-226 1245,-226 454,0 793,112 1245,226 340,113 679,453 1019,792 339,340 566,793 679,1358 226,566 226,1245 226,2038 0,792 0,1471 -226,1924zm-2943 4867l0 0c2151,0 3736,-566 4981,-1812 1131,-1245 1810,-2828 1810,-4866 0,-2037 -565,-3736 -1810,-4981 -1133,-1245 -2830,-1810 -4868,-1810 -2037,0 -3734,565 -4866,1810 -1132,1245 -1812,2830 -1812,4981 0,2038 566,3735 1812,4866 1018,1246 2716,1812 4753,1812z"/>
   <path class="fil0" d="M36034 76617c-113,226 -226,453 -566,565 -226,227 -566,341 -905,341 -340,113 -792,113 -1358,113l-1020 0 0 -3396 1245 0c454,0 793,0 1020,0 339,0 565,114 792,114 339,113 566,339 679,565 113,227 226,453 226,793 0,452 0,679 -113,905zm1019 2603c792,-452 1472,-905 1924,-1471 452,-565 679,-1358 679,-2377 0,-679 -113,-1245 -452,-1697 -341,-454 -679,-793 -1133,-1133 -452,-339 -1018,-453 -1584,-566 -566,-112 -1245,-112 -1924,-112l-5546 0 0 12902 3282 0 0 -4754 1585 0 3508 4754 4075 0 -4414 -5546z"/>
   <path class="fil0" d="M47466 79787l1585 -4641 1583 4641 -3168 0zm3509 -8036l-3848 0 -4754 12902 3395 0 905 -2603 4754 0 906 2603 3396 0 -4754 -12902z"/>
   <polygon class="fil0" points="67160,84766 57878,84766 57878,71751 61161,71751 61161,82277 67160,82277 "/>
   <path class="fil0" d="M81081 84993c-904,0 -1810,-113 -2603,-453 -792,-226 -1472,-679 -2151,-1245 -565,-566 -1018,-1245 -1357,-2151 -340,-791 -453,-1811 -453,-2942 0,-1018 113,-1924 453,-2830 339,-793 792,-1584 1357,-2151 567,-566 1246,-1018 2038,-1357 792,-340 1698,-454 2716,-454 566,0 1020,0 1472,114 452,113 793,113 1245,227 340,113 792,225 1019,338 339,114 566,227 792,341l0 3169 -339 0c-114,-114 -341,-341 -566,-453 -227,-227 -566,-340 -793,-567 -340,-225 -679,-339 -1018,-452 -340,-113 -792,-227 -1133,-227 -452,0 -904,114 -1358,227 -452,113 -791,340 -1131,792 -339,339 -566,793 -793,1359 -227,565 -339,1245 -339,2037 0,793 112,1472 339,2038 227,565 566,1018 906,1244 339,339 793,566 1132,680 452,113 905,226 1244,226 454,0 793,-113 1245,-226 341,-114 793,-341 1133,-453 339,-227 566,-340 793,-567 225,-225 452,-339 565,-452l339 0 0 3056c-339,113 -679,226 -906,453 -339,112 -565,226 -904,339 -454,113 -793,227 -1245,227 -566,113 -1020,113 -1699,113z"/>
   <polygon class="fil0" points="97606,84766 88325,84766 88325,71751 91607,71751 91607,82277 97606,82277 "/>
   <path class="fil0" d="M111189 80126c0,1585 -453,2830 -1471,3735 -1020,905 -2378,1246 -4302,1246 -1924,0 -3282,-454 -4301,-1246 -1018,-905 -1471,-2038 -1471,-3622l0 -8262 3395 -1 0 7923c0,906 227,1585 566,2037 340,454 1020,680 1811,680 792,0 1472,-226 1812,-680 339,-452 565,-1131 565,-2037l0 -8035 3396 0 0 8262z"/>
   <path class="fil0" d="M121036 81597c-113,226 -340,453 -679,566 -340,114 -679,227 -1133,227 -452,0 -1131,0 -2037,0l-226 0 0 -3282 679 0c453,0 1019,0 1472,0 452,0 791,0 1132,112 339,113 679,227 792,453 114,226 226,566 226,905 0,454 -112,793 -226,1019zm-4075 -7470l339 0c679,0 1133,0 1472,0 340,0 679,113 906,113 225,114 452,227 566,453 113,226 113,453 113,679 0,227 0,566 -113,792 -114,227 -341,341 -566,566 -227,113 -454,113 -906,227 -339,0 -793,0 -1358,0l-453 0 0 -2830zm7017 4527c-452,-566 -1131,-905 -2037,-1018l0 0c566,-227 1019,-679 1358,-1131 340,-454 454,-1020 454,-1699 0,-566 -114,-1018 -340,-1472 -227,-452 -566,-791 -1132,-1018 -453,-227 -906,-340 -1472,-452 -452,-113 -1245,-113 -2263,-113l-4980 0 0 12902 5660 0c904,0 1697,-113 2376,-227 566,-112 1131,-452 1697,-791 454,-340 793,-679 1019,-1245 227,-454 339,-1019 339,-1698 0,-793 -225,-1472 -679,-2038z"/>
   <path class="fil0" d="M62519 105l-32483 32597 32596 32597 32598 -32597 -32711 -32597zm-28748 32597l28748 -28749 28749 28749 -28636 28748 -28861 -28748z"/>
   <path class="fil0" d="M123639 2821c-113,0 -340,0 -453,113 -11544,4867 -27277,8150 -44594,5660l0 0c-2151,-227 -3849,-567 -5434,-793l6792 6791c17204,1811 32823,-3735 44255,-9734 339,-226 566,-566 566,-905 -114,-679 -566,-1132 -1132,-1132z"/>
   <path class="fil0" d="M123639 14593c-113,0 -340,0 -453,112 -9847,4075 -22636,7131 -36785,6339l5320 5320c12450,-1020 23655,-5320 32484,-9961 339,-226 566,-565 566,-906 -114,-565 -566,-904 -1132,-904z"/>
   <path class="fil0" d="M123639 25910c-113,0 -340,0 -453,114 -7131,3055 -15958,5433 -25693,6225l566 566 -4866 4866c11884,-1131 22523,-5318 30899,-9733 340,-227 565,-566 565,-905 0,-793 -452,-1133 -1018,-1133z"/>
   <path class="fil0" d="M123639 37569c-113,0 -340,0 -453,112 -9734,4075 -22411,7018 -36445,6339l-5320 5320c16639,1358 31692,-4075 42671,-9960 340,-227 565,-566 565,-906 0,-566 -452,-1018 -1018,-905z"/>
   <path class="fil0" d="M123639 48886c-113,0 -340,0 -453,114 -11544,4867 -27277,8150 -44594,5660l0 0c-793,-114 -1472,-227 -2151,-340l-4980 4980c905,113 1924,339 3056,453 19355,3734 37125,-2264 49688,-8941 339,-227 566,-567 566,-906 -114,-566 -566,-1020 -1132,-1020z"/>
   <path class="fil0" d="M45089 50698c-17091,-1698 -32598,3735 -43916,9847 -339,226 -566,566 -566,905 0,567 566,1019 1132,1019 113,0 340,0 453,-113 11544,-4867 27277,-8150 44594,-5659l0 0c2038,226 3623,453 5095,792l-6792 -6791z"/>
   <path class="fil0" d="M33430 39039c-12450,1020 -23542,5320 -32257,9961 -339,227 -566,566 -566,906 0,566 566,1018 1132,1018 113,0 340,0 453,-112 9734,-4075 22524,-7019 36558,-6339l-5320 -5434z"/>
   <path class="fil0" d="M27092 32702l5207 -5207c-11998,1132 -22750,5320 -31126,9847 -339,227 -566,566 -566,906 0,566 566,1018 1132,1018 113,0 340,0 453,-113 7017,-2942 15619,-5320 25239,-6111l-339 -340z"/>
   <path class="fil0" d="M38411 21383l5320 -5320c-16525,-1245 -31578,4075 -42558,9961 -339,226 -566,565 -566,905 0,566 566,1019 1132,1019 113,0 340,0 453,-114 9620,-4187 22297,-7017 36219,-6451z"/>
   <polygon class="fil0" points="62632,61450 33771,32702 30036,32702 62632,65299 "/>
  </g>
 </g>
</svg>
