<?xml version="1.0" encoding="UTF-8"?>
<!DOCTYPE svg PUBLIC "-//W3C//DTD SVG 1.1//EN" "http://www.w3.org/Graphics/SVG/1.1/DTD/svg11.dtd">
<!-- Creator: CorelDRAW X7 -->
<svg xmlns="http://www.w3.org/2000/svg" xml:space="preserve" width="100px" height="80px" version="1.1" style="shape-rendering:geometricPrecision; text-rendering:geometricPrecision; image-rendering:optimizeQuality; fill-rule:evenodd; clip-rule:evenodd"
viewBox="0 0 100000 80000"
 xmlns:xlink="http://www.w3.org/1999/xlink">
 <defs>
  <style type="text/css">
   <![CDATA[
    .fil0 {fill:#2B2A29}
    .fil1 {fill:#E31E24}
    .fil2 {fill:#FEFEFE}
   ]]>
  </style>
 </defs>
 <g id="Layer_x0020_1">
  <metadata id="CorelCorpID_0Corel-Layer"/>
  <g id="_360263008">
   <path class="fil0" d="M1000 46093l0 -33371c20895,-10639 52780,-17972 86374,0l0 7990c-5456,-3086 -19565,-11774 -43187,-11774 -12622,0 -27072,2747 -36071,8007l0 13393 8142 0 0 6197 -8067 0 11 14264c-2816,-1417 -5241,-2997 -7202,-4706l0 0z"/>
   <path class="fil0" d="M43468 13046l0 39304 8147 0 0 5731c-2168,130 -4380,198 -6626,198 -2818,0 -5580,-105 -8270,-309l0 -44624c2204,-167 4457,-269 6749,-300l0 0z"/>
   <path class="fil0" d="M25897 50844c2396,437 4894,792 7477,1057l0 5757c-5108,-558 -9909,-1472 -14268,-2682l0 -38626c4359,-1211 9160,-2125 14268,-2683l0 5247c-2583,265 -5081,619 -7477,1056l0 10385 6839 0 0 6185 -6839 0 0 14304z"/>
   <path class="fil0" d="M67171 35663c0,-9157 4693,-16580 10483,-16580 5789,0 10482,7423 10482,16580 0,9156 -4693,16580 -10482,16580 -5790,0 -10483,-7424 -10483,-16580l0 0zm5262 0c0,5635 2337,10202 5221,10202 2883,0 5221,-4567 5221,-10202 0,-5636 -2338,-10204 -5221,-10204 -2884,0 -5221,4569 -5221,10204l0 0z"/>
   <path class="fil0" d="M49475 35663c0,-11813 5425,-21388 12118,-21388 2903,0 5570,1803 7657,4809l-3407 4062c-1111,-1450 -2429,-2450 -3842,-2450 -3968,0 -5679,6789 -5679,14967 0,8179 1711,14648 5679,14648 1496,0 2884,-780 4034,-2389l3641 3676c-2146,3391 -4978,5452 -8083,5452 -6693,0 -12118,-9575 -12118,-21387l0 0z"/>
   <polygon class="fil1" points="36812,64235 51561,64235 51561,78984 36812,78984 "/>
   <polygon class="fil2" points="42357,66097 46016,66097 46016,69781 49700,69781 49700,73440 46016,73440 46016,77123 42357,77123 42357,73440 38673,73440 38673,69781 42357,69781 "/>
   <path class="fil0" d="M6354 68682c-860,-401 -1549,-573 -2309,-573 -1579,0 -2599,845 -2599,2124 0,2654 3469,2210 3469,3424 0,433 -350,683 -1000,683 -749,0 -1349,-250 -2328,-953l0 1592c679,380 1269,715 2458,715 1519,0 2619,-823 2619,-2243 0,-2578 -3468,-2265 -3468,-3382 0,-367 389,-606 999,-606 580,0 1170,185 2159,661l0 -1442z"/>
   <polygon class="fil0" points="13193,70873 15311,75694 16041,75694 19030,68206 17231,68206 15631,72291 13882,68206 12513,68206 10765,72291 9156,68206 7357,68206 10354,75694 11084,75694 "/>
   <polygon class="fil0" points="21709,68206 20010,68206 20010,75597 21709,75597 "/>
   <path class="fil0" d="M28170 68682c-860,-401 -1549,-573 -2309,-573 -1579,0 -2599,845 -2599,2124 0,2654 3468,2210 3468,3424 0,433 -350,683 -999,683 -749,0 -1349,-250 -2328,-953l0 1592c679,380 1268,715 2458,715 1519,0 2618,-823 2618,-2243 0,-2578 -3467,-2265 -3467,-3382 0,-367 389,-606 999,-606 580,0 1169,185 2159,661l0 -1442z"/>
   <path class="fil0" d="M34519 68682c-859,-401 -1549,-573 -2308,-573 -1580,0 -2599,845 -2599,2124 0,2654 3468,2210 3468,3424 0,433 -350,683 -1000,683 -749,0 -1349,-250 -2328,-953l0 1592c679,380 1269,715 2459,715 1518,0 2618,-823 2618,-2243 0,-2578 -3468,-2265 -3468,-3382 0,-367 390,-606 999,-606 580,0 1170,185 2159,661l0 -1442z"/>
   <polygon class="fil0" points="57607,70948 55479,68206 54040,68206 54040,75597 55693,75597 55693,70980 57481,73300 57734,73300 59523,70980 59523,75597 61175,75597 61175,68206 59736,68206 "/>
   <path class="fil0" d="M68105 72844l-2041 0 972 -2872 1069 2872zm-136 -4638l-1915 0 -2673 7391 1750 0 496 -1463 2964 0 545 1463 1778 0 -2945 -7391z"/>
   <path class="fil0" d="M74614 69560l1059 0c1565,0 2177,1073 2177,2342 0,1083 -496,2340 -2158,2340l-1078 0 0 -4682zm-1653 -1354l0 7391 2741 0c2644,0 3850,-1561 3850,-3685 0,-2027 -1245,-3706 -3666,-3706l-2925 0z"/>
   <polygon class="fil0" points="86965,74242 83728,74242 83728,72465 86751,72465 86751,71110 83728,71110 83728,69560 86896,69560 86896,68206 82076,68206 82076,75597 86965,75597 "/>
   <path class="fil0" d="M92738 15481l1174 0c562,0 821,-418 821,-913 0,-404 -208,-860 -821,-860l-1174 0 0 1773zm0 3246l-912 0 0 -5646 2242 0c1082,0 1578,705 1578,1409 0,664 -509,1173 -1225,1304l0 26c703,78 951,299 989,1434 14,247 92,1121 223,1473l-900 0c-221,-391 -168,-1121 -234,-1877 -66,-600 -587,-640 -849,-640l-912 0 0 2517zm-3260 -2829c0,2321 1865,4173 4186,4173 2321,0 4159,-1852 4159,-4173 0,-2309 -1838,-4172 -4159,-4172 -2321,0 -4186,1863 -4186,4172zm9076 -14c0,2739 -2192,4916 -4890,4916 -2713,0 -4915,-2177 -4915,-4916 0,-2712 2202,-4889 4915,-4889 2698,0 4890,2177 4890,4889z"/>
  </g>
 </g>
</svg>
