<?xml version="1.0" encoding="UTF-8"?>
<!DOCTYPE svg PUBLIC "-//W3C//DTD SVG 1.1//EN" "http://www.w3.org/Graphics/SVG/1.1/DTD/svg11.dtd">
<!-- Creator: CorelDRAW X7 -->
<svg xmlns="http://www.w3.org/2000/svg" xml:space="preserve" width="110px" height="85px" version="1.1" style="shape-rendering:geometricPrecision; text-rendering:geometricPrecision; image-rendering:optimizeQuality; fill-rule:evenodd; clip-rule:evenodd"
viewBox="0 0 110000 85000"
 xmlns:xlink="http://www.w3.org/1999/xlink"
 enable-background="new 0 0 182 118">
 <defs>
  <style type="text/css">
   <![CDATA[
    .fil1 {fill:#532B2B}
    .fil0 {fill:url(#id0)}
   ]]>
  </style>
  <linearGradient id="id0" gradientUnits="userSpaceOnUse" x1="12498.6" y1="42500.2" x2="97500.2" y2="42500.2">
   <stop offset="0" style="stop-opacity:1; stop-color:#FBE6DD"/>
   <stop offset="0.490196" style="stop-opacity:1; stop-color:#F7CDBF"/>
   <stop offset="1" style="stop-opacity:1; stop-color:#F3B4A0"/>
  </linearGradient>
 </defs>
 <g id="Layer_x0020_1">
  <metadata id="CorelCorpID_0Corel-Layer"/>
  <g id="Layer_x0020_1_0">
   <polygon class="fil0" points="55000,-1 97500,42500 55000,85002 12499,42500 "/>
   <polygon class="fil1" points="9760,18605 9760,19077 7399,19077 7399,38345 9760,38345 9760,38816 504,38816 504,38345 2865,38345 2865,19077 504,19077 504,18605 "/>
   <path class="fil1" d="M27704 38816l0 -471 1607 0 0 -9445c0,-850 -95,-1417 -378,-1700 -189,-283 -567,-472 -1134,-472 -944,0 -1605,378 -2267,1133 -567,755 -849,1700 -849,2834l0 7745 1605 0 0 471 -7272 0 0 -471 1700 0 0 -9446c0,-849 -95,-1416 -378,-1700 -189,-283 -661,-472 -1133,-472 -850,0 -1606,378 -2267,1134 -567,755 -850,1700 -850,2833l0 7745 1605 0 0 471 -7272 0 0 -471 1700 0 0 -11995 -1700 0 0 -473 2267 0c661,0 1228,0 1795,-94 471,-95 944,-189 1416,-283l0 2833c567,-944 1228,-1605 1983,-2078 756,-472 1606,-755 2645,-755 1039,0 1983,283 2739,755 756,473 1134,1228 1323,2078 471,-944 1132,-1605 1888,-2078 756,-472 1605,-755 2645,-755 1321,0 2266,377 3022,1039 755,661 1133,1605 1133,2739l0 8878 1606 0 0 471 -7179 0z"/>
   <path class="fil1" d="M40832 34945c0,944 284,1794 945,2550 662,756 1322,1132 2172,1132 945,0 1606,-471 1984,-1321 378,-851 566,-2550 566,-5006 0,-2172 -188,-3778 -566,-4533 -377,-850 -1039,-1228 -1984,-1228 -1038,0 -1794,378 -2266,1133 -567,755 -851,1795 -851,3211l0 4062zm0 10767l1701 0 0 472 -7461 0 0 -472 1700 0 0 -19173 -1700 0 0 -473 2361 0c755,0 1322,0 1794,-94 473,-95 945,-189 1416,-283l0 2456c378,-756 945,-1417 1607,-1795 660,-378 1416,-661 2266,-661 1700,0 3117,661 4345,1983 1228,1322 1794,2928 1794,4817 0,1889 -566,3400 -1794,4722 -1228,1229 -2739,1889 -4534,1889 -756,0 -1417,-189 -2077,-567 -567,-377 -1134,-944 -1512,-1700l0 8879 94 0z"/>
   <path class="fil1" d="M60006 31355l0 -2077c0,-1228 -95,-1984 -378,-2456 -284,-378 -756,-661 -1417,-661 -661,0 -1133,189 -1417,661 -283,472 -378,1323 -378,2645l0 1888 3590 0zm4155 473l-7839 0 0 2172c0,1606 283,2739 756,3495 472,756 1321,1039 2361,1039 1039,0 1983,-378 2833,-1134 756,-756 1416,-1794 1700,-3211l472 0c-283,1606 -945,2739 -1983,3684 -1039,943 -2172,1321 -3684,1321 -1983,0 -3588,-660 -4816,-1888 -1228,-1228 -1889,-2928 -1889,-4911 0,-1795 661,-3401 1889,-4723 1228,-1322 2739,-1983 4438,-1983 1607,0 2928,566 3968,1700 1227,1227 1794,2645 1794,4439z"/>
   <path class="fil1" d="M66805 26539l-1699 0 0 -473 2361 0c661,0 1321,0 1794,-94 567,-95 1039,-189 1512,-283l0 2644c376,-850 849,-1416 1416,-1889 567,-472 1228,-661 1983,-661 756,0 1417,189 1795,661 471,378 660,945 660,1701 0,660 -189,1133 -565,1511 -378,378 -851,566 -1418,566 -567,0 -1039,-188 -1416,-566 -378,-378 -567,-851 -567,-1511 0,-284 0,-473 95,-756 94,-283 189,-472 378,-756 -662,189 -1229,661 -1701,1323 -473,755 -660,1605 -660,2550l0 7839 2361 0 0 471 -8028 0 0 -471 1699 0 0 -11806z"/>
   <path class="fil1" d="M78894 20495c0,-662 189,-1134 661,-1607 378,-377 945,-661 1607,-661 660,0 1132,189 1605,661 472,473 661,945 661,1607 0,660 -189,1132 -661,1605 -473,472 -945,661 -1605,661 -662,0 -1134,-189 -1607,-661 -472,-378 -661,-945 -661,-1605zm189 6044l-1794 0 0 -473 2361 0c661,0 1323,0 1889,-94 567,-95 1039,-189 1511,-283l0 12656 1795 0 0 471 -7556 0 0 -471 1794 0 0 -11806z"/>
   <path class="fil1" d="M94289 31828l-283 0c-1700,0 -2928,189 -3400,661 -567,378 -850,1227 -850,2550 0,1227 189,2078 472,2645 284,472 850,756 1605,756 851,0 1418,-284 1890,-851 377,-567 660,-1417 660,-2550l0 -3211 -94 0zm3778 3873c0,849 95,1321 189,1699 95,284 378,473 662,473 189,0 471,-95 565,-378 189,-284 378,-567 473,-1040l378 0c-95,851 -378,1512 -945,1985 -566,471 -1322,754 -2078,754 -754,0 -1416,-189 -1888,-471 -473,-283 -851,-850 -1040,-1512 -283,662 -754,1134 -1321,1512 -567,377 -1323,471 -2173,471 -1700,0 -3022,-283 -3872,-943 -944,-662 -1322,-1512 -1322,-2739 0,-1418 755,-2456 2172,-3117 1416,-662 3588,-1040 6516,-1040l0 -1794c0,-1416 -189,-2361 -566,-2739 -377,-378 -1133,-567 -2267,-567 -661,0 -1227,95 -1700,284 -472,189 -661,378 -661,661 0,94 94,189 378,378 283,189 472,283 661,378 189,94 284,282 378,471 95,189 95,378 95,662 0,472 -189,850 -473,1133 -283,284 -756,378 -1228,378 -661,0 -1039,-189 -1416,-472 -378,-283 -473,-756 -473,-1323 0,-944 473,-1699 1417,-2266 944,-567 2173,-851 3778,-851 850,0 1700,95 2455,284 756,189 1418,472 1983,850 567,378 1040,850 1229,1323 283,471 378,1227 378,2266l0 5290 -284 0z"/>
   <path class="fil1" d="M102411 18983l-1605 0 0 -472 2361 0c756,0 1416,0 1889,-95 472,-94 945,-189 1323,-283l0 20118 1794 0 0 471 -7556 0 0 -471 1794 0 0 -19268z"/>
   <path class="fil1" d="M17693 59311l0 -471 8028 0 0 471 -1699 0 0 4345c-851,755 -1889,1417 -3023,1795 -1227,472 -2550,661 -4061,661 -3117,0 -5478,-945 -7366,-2928 -1796,-1889 -2739,-4439 -2739,-7745 0,-1699 282,-3211 849,-4533 567,-1323 1323,-2550 2456,-3589 850,-851 1795,-1416 2833,-1889 1039,-472 2172,-661 3306,-661 1038,0 2078,189 3211,661 1133,473 1795,662 2078,662 284,0 473,-95 661,-189 189,-95 283,-378 377,-662l473 0 0 6705 -473 0c-565,-2077 -1416,-3777 -2550,-5005 -1132,-1227 -2361,-1794 -3777,-1794 -1605,0 -2739,850 -3495,2455 -755,1794 -1038,4344 -1038,7934 0,1699 94,3211 189,4344 94,1134 282,1983 566,2645 472,1039 1039,1794 1700,2361 661,567 1511,850 2456,850 472,0 944,-94 1322,-283 378,-189 756,-378 1039,-756 283,-378 567,-661 661,-1133 95,-378 189,-945 189,-1701l0 -2550 -2173 0z"/>
   <path class="fil1" d="M35072 58651l-283 0c-1701,0 -2834,189 -3401,567 -567,377 -850,1227 -850,2550 0,1227 189,2077 472,2643 284,567 851,756 1607,756 849,0 1416,-283 1888,-849 378,-567 662,-1417 662,-2550l0 -3117 -95 0zm3777 3777c0,850 95,1323 189,1701 95,283 378,471 662,471 189,0 472,-94 567,-377 189,-189 282,-567 471,-1039l378 0c-95,850 -378,1511 -944,1983 -567,473 -1228,756 -2079,756 -754,0 -1416,-189 -1888,-472 -473,-284 -851,-851 -1040,-1511 -282,660 -754,1133 -1321,1511 -567,378 -1323,472 -2172,472 -1701,0 -3023,-283 -3873,-945 -944,-660 -1322,-1511 -1322,-2739 0,-1416 755,-2455 2172,-3116 1416,-661 3590,-1039 6516,-1039l0 -1794c0,-1418 -189,-2362 -565,-2739 -378,-378 -1134,-567 -2268,-567 -660,0 -1227,94 -1700,283 -472,189 -661,378 -661,661 0,94 94,189 378,378 283,188 472,283 661,377 189,189 284,284 378,473 95,189 95,378 95,661 0,473 -189,850 -473,1133 -283,283 -756,378 -1228,378 -660,0 -1133,-189 -1416,-472 -378,-284 -473,-755 -473,-1322 0,-945 473,-1701 1418,-2267 943,-567 2172,-850 3777,-850 850,0 1701,94 2455,283 756,189 1418,473 1985,756 565,378 1038,850 1227,1322 283,472 378,1228 378,2267l0 5383 -284 0z"/>
   <path class="fil1" d="M43005 53362l-1700 0 0 -473 2361 0c661,0 1323,0 1794,-94 567,-95 1039,-189 1512,-284l0 2645c378,-850 849,-1511 1416,-1889 567,-472 1228,-661 1984,-661 755,0 1417,189 1794,661 473,378 662,944 662,1700 0,661 -189,1134 -567,1512 -378,377 -850,566 -1417,566 -566,0 -1039,-189 -1417,-566 -377,-378 -566,-851 -566,-1512 0,-284 0,-473 94,-756 95,-282 189,-471 378,-755 -661,189 -1228,567 -1700,1322 -378,756 -661,1606 -661,2550l0 7839 2361 0 0 473 -8028 0 0 -473 1700 0 0 -11805z"/>
   <path class="fil1" d="M63594 56761c0,-944 -284,-1794 -944,-2550 -661,-755 -1323,-1133 -2172,-1133 -945,0 -1606,473 -1984,1322 -283,945 -472,2645 -472,5100 0,2173 189,3778 566,4534 378,850 1040,1228 1985,1228 943,0 1794,-378 2266,-1133 567,-756 755,-1795 755,-3212l0 -4156zm0 -10955l-1794 0 0 -472 2361 0c756,0 1417,0 1888,-95 567,-94 1040,-189 1418,-283l0 20211 1794 0 0 473 -2361 0c-756,0 -1322,0 -1794,94 -473,95 -945,189 -1418,283l0 -2455c-471,756 -943,1416 -1605,1794 -661,378 -1416,661 -2266,661 -1700,0 -3117,-661 -4345,-1983 -1228,-1322 -1795,-2928 -1795,-4816 0,-1890 567,-3401 1795,-4724 1228,-1227 2739,-1888 4534,-1888 755,0 1416,189 2077,567 567,378 1134,945 1511,1699l0 -9066z"/>
   <path class="fil1" d="M77572 58178l0 -2077c0,-1229 -94,-1984 -378,-2456 -283,-378 -756,-661 -1416,-661 -661,0 -1134,189 -1417,661 -284,472 -378,1322 -378,2645l0 1888 3589 0zm4156 473l-7840 0 0 2172c0,1605 284,2739 756,3495 473,755 1323,1038 2361,1038 1040,0 1984,-378 2739,-1133 851,-756 1418,-1795 1701,-3211l472 0c-284,1605 -944,2739 -1984,3683 -1039,850 -2266,1322 -3683,1322 -1984,0 -3589,-661 -4817,-1888 -1227,-1228 -1889,-2928 -1889,-4911 0,-1796 662,-3401 1889,-4724 1228,-1321 2739,-1983 4440,-1983 1605,0 2927,567 3966,1700 1228,1134 1794,2645 1889,4440z"/>
   <path class="fil1" d="M88056 65167l1700 0 0 473 -7462 0 0 -473 1700 0 0 -11805 -1700 0 0 -473 2362 0c661,0 1322,0 1794,-94 472,-95 945,-189 1417,-284l0 2834c567,-945 1227,-1605 1983,-2078 756,-472 1701,-756 2645,-756 1322,0 2361,378 3117,1040 756,660 1132,1605 1132,2739l0 8877 1701 0 0 473 -7367 0 0 -473 1700 0 0 -9444c0,-851 -94,-1417 -378,-1700 -189,-283 -661,-472 -1133,-472 -944,0 -1700,378 -2266,1132 -567,756 -945,1701 -945,2834l0 7650z"/>
  </g>
 </g>
</svg>
