<?xml version="1.0" encoding="UTF-8"?>
<!DOCTYPE svg PUBLIC "-//W3C//DTD SVG 1.1//EN" "http://www.w3.org/Graphics/SVG/1.1/DTD/svg11.dtd">
<!-- Creator: CorelDRAW X7 -->
<svg xmlns="http://www.w3.org/2000/svg" xml:space="preserve" width="150px" height="35px" version="1.1" style="shape-rendering:geometricPrecision; text-rendering:geometricPrecision; image-rendering:optimizeQuality; fill-rule:evenodd; clip-rule:evenodd"
viewBox="0 0 150000 34999"
 xmlns:xlink="http://www.w3.org/1999/xlink">
 <defs>
  <style type="text/css">
   <![CDATA[
    .fil1 {fill:black}
    .fil0 {fill:#CC3333}
   ]]>
  </style>
 </defs>
 <g id="Layer_x0020_1">
  <metadata id="CorelCorpID_0Corel-Layer"/>
  <path class="fil0" d="M9405 1898c-884,-1430 -1499,-1772 -3882,-1772l-3066 0c-2248,0 -2792,818 -1635,2452l10423 14715 -10899 15670c-1294,1633 -886,2452 1566,2452l3202 0c2248,0 2792,-205 3815,-1771l10772 -16417 -10296 -15329z"/>
  <path class="fil1" d="M67266 22329l1649 2397c483,741 739,838 1803,838l1547 0c1029,0 1255,-386 708,-1160l-3632 -5241 -2076 3165 1 1z"/>
  <path class="fil0" d="M62344 9717c-419,-676 -708,-837 -1836,-837l-1450 0c-1061,0 -1320,386 -772,1160l4928 6956 -5154 7408c-611,773 -419,1160 741,1160l1514 0c1063,0 1321,-98 1804,-838l5092 -7762 -4867 -7247z"/>
  <path class="fil1" d="M70396 8880c-1063,0 -1257,97 -1739,837l-1386 2015 2060 3067 3320 -4759c516,-774 289,-1160 -676,-1160l-1579 0z"/>
  <path class="fil1" d="M25367 9491c-1030,420 -1254,806 -1254,1837l0 13238c0,740 256,998 996,998l1772 0c742,0 967,-258 967,-998l0 -12014c0,-161 64,-259 226,-321 1031,-292 2061,-420 3091,-420 2352,0 3512,1062 3512,3156l0 9599c0,740 225,998 966,998l1771 0c742,0 1000,-258 1000,-998l0 -9696c0,-4154 -2191,-6472 -6702,-6472 -2414,0 -4508,353 -6345,1093zm16041 9664c0,4218 2382,6892 7408,6892 3382,0 5701,-1030 6957,-3091 483,-741 354,-1256 -388,-1612l-1127 -612c-772,-418 -1126,-353 -1641,388 -742,1126 -1999,1706 -3801,1706 -2352,0 -3674,-1126 -3674,-3221l0 -1191 9728 0c967,0 1449,-450 1449,-1385l0 -1965c0,-3897 -2544,-6666 -7438,-6666 -4865,0 -7474,2447 -7474,6955l0 3802 1 0zm11177 -3608l-7441 0 0 -709c0,-2093 1320,-3284 3737,-3284 2446,0 3704,1191 3704,3284l0 709z"/>
  <path class="fil1" d="M77837 5015c-742,0 -999,226 -999,966l0 2899 -2222 0c-742,0 -966,225 -966,967l0 1481c0,741 224,998 966,998l2222 0 0 6603c0,2737 548,4638 1676,5669 1095,1030 2995,1513 5701,1417 773,-33 1030,-257 1030,-1031l0 -1482c0,-773 -257,-998 -1030,-998 -1417,0 -2385,-227 -2869,-709 -515,-483 -771,-1482 -771,-2996l0 -6473 3672 0c741,0 998,-257 998,-999l0 -1480c0,-742 -257,-967 -998,-967l-3672 0 0 -2899c0,-740 -259,-967 -998,-967l-1740 0 0 1zm13753 -2287c0,-740 -257,-999 -998,-999l-1740 0c-772,0 -999,259 -999,999l0 21838c0,741 227,999 999,999l1740 0c741,0 998,-258 998,-999l0 -21838zm3253 16427c0,4218 2382,6892 7408,6892 3383,0 5701,-1030 6957,-3091 483,-741 355,-1256 -388,-1612l-1127 -612c-772,-418 -1126,-353 -1641,388 -742,1126 -1999,1706 -3801,1706 -2352,0 -3672,-1126 -3672,-3221l0 -1191 9726 0c968,0 1451,-450 1451,-1385l0 -1965c0,-3897 -2546,-6666 -7441,-6666 -4864,0 -7473,2447 -7473,6955l0 3802 1 0zm11177 -3608l-7440 0 0 -709c0,-2093 1320,-3284 3736,-3284 2448,0 3704,1191 3704,3284l0 709zm18617 -6667c-1193,0 -1450,193 -1805,999l-2962 7746c-452,1373 -870,3398 -870,3398l-162 0 -30 -253c-162,-579 -420,-1996 -871,-3183l-2995 -7708c-258,-806 -580,-999 -1772,-999l-1256 0c-998,0 -1160,225 -805,1160l5927 14623c225,611 676,901 1352,901l1062 0c677,0 1128,-290 1354,-901l5959 -14655c354,-903 161,-1128 -838,-1128l-1287 0 -1 0zm3284 10275c0,4218 2385,6892 7408,6892 3383,0 5702,-1030 6957,-3091 483,-741 356,-1256 -386,-1612l-1128 -612c-773,-418 -1127,-353 -1642,388 -742,1126 -1996,1706 -3801,1706 -2351,0 -3672,-1126 -3672,-3221l0 -1191 9728 0c965,0 1449,-450 1449,-1385l0 -1965c0,-3897 -2544,-6666 -7441,-6666 -4864,0 -7473,2447 -7473,6955l0 3802 1 0zm11178 -3608l-7441 0 0 -709c0,-2093 1321,-3284 3736,-3284 2449,0 3705,1191 3705,3284l0 709zm10531 -12819c0,-740 -257,-999 -997,-999l-1739 0c-774,0 -1000,259 -1000,999l0 21838c0,741 226,999 1000,999l1739 0c740,0 997,-258 997,-999l0 -21838z"/>
 </g>
</svg>
