<?xml version="1.0" encoding="UTF-8"?>
<!DOCTYPE svg PUBLIC "-//W3C//DTD SVG 1.1//EN" "http://www.w3.org/Graphics/SVG/1.1/DTD/svg11.dtd">
<!-- Creator: CorelDRAW X7 -->
<svg xmlns="http://www.w3.org/2000/svg" xml:space="preserve" width="85px" height="130px" version="1.1" style="shape-rendering:geometricPrecision; text-rendering:geometricPrecision; image-rendering:optimizeQuality; fill-rule:evenodd; clip-rule:evenodd"
viewBox="0 0 85000 130000"
 xmlns:xlink="http://www.w3.org/1999/xlink"
 enable-background="new 0 0 182 118">
 <defs>
  <style type="text/css">
   <![CDATA[
    .fil0 {fill:black}
    .fil1 {fill:#782828}
    .fil2 {fill:#FEFEFE;fill-rule:nonzero}
   ]]>
  </style>
 </defs>
 <g id="Layer_x0020_1">
  <metadata id="CorelCorpID_0Corel-Layer"/>
  <path class="fil0" d="M1533 129788l1832 0 0 -7985 4188 0 0 7985 1833 0 0 -9685 -7853 0 0 9685zm10471 0l1702 0 3534 -5105c654,-916 915,-1440 1308,-1963l0 0c0,654 0,1178 0,1963l0 5105 1832 0 0 -9685 -1702 0 -3533 5103c-524,786 -916,1440 -1309,1964l0 0c0,-654 0,-1178 0,-1964l0 -5103 -1832 0 0 9685zm13219 0l1833 0 0 -8116 3009 0 525 -1569 -8377 0 0 1569 3010 0 0 8116zm10995 261c2748,0 4580,-2224 4580,-4973 0,-2879 -1832,-5104 -4580,-5104 -2750,0 -4582,2225 -4582,5104 0,2749 1832,4973 4582,4973zm0 -1570c-1702,0 -2750,-1440 -2750,-3534 0,-2094 1048,-3534 2750,-3534 1700,0 2748,1440 2748,3534 -131,2094 -1048,3534 -2748,3534zm6674 1309l1702 0 0 -4974c0,-654 0,-1571 0,-1963l0 0c261,392 523,1047 915,1571l1702 2748 786 0 1701 -2748c262,-524 654,-1179 916,-1571l0 0c0,392 0,1178 0,1832l0 5105 1832 0 0 -9685 -1832 0 -1832 3140c-393,786 -916,1571 -1178,2094l0 0c-261,-523 -655,-1308 -1047,-2094l-1833 -3140 -1832 0 0 9685zm12303 0l1833 0 0 -4320 4319 0 0 4320 1832 0 0 -9685 -1832 0 0 3664 -4319 0 0 -3664 -1833 0 0 9685zm10601 0l1702 0 3534 -5105c654,-916 917,-1440 1309,-1963l0 0c0,654 0,1178 0,1963l0 5105 1832 0 0 -9685 -1701 0 -3534 5103c-523,786 -917,1440 -1309,1964l0 0c0,-654 0,-1178 0,-1964l0 -5103 -1833 0 0 9685zm10995 0l1832 0 0 -4188 1702 0c261,0 654,261 916,1046l1439 3142 1833 0 -1702 -3665c-392,-655 -654,-1178 -1177,-1309l0 0c916,-523 1046,-2225 1571,-3011 130,-261 392,-392 654,-392 130,0 261,0 523,131l0 -1570c-262,-132 -523,-132 -785,-132 -786,0 -1309,263 -1702,917 -786,1178 -654,3403 -2094,3403l-1178 0 0 -4057 -1832 0 0 9685z"/>
  <path class="fil0" d="M55849 91963c-915,0 -1701,785 -1963,2879 -261,1440 -392,3272 -392,5366 392,-523 1046,-1046 1832,-1440 916,-523 1571,-916 2094,-916 393,0 785,131 1179,262 1438,654 1569,393 1831,262 1832,-1048 -1702,-6413 -4581,-6413zm-261 8899c-393,-131 -917,131 -1309,524 -262,131 -393,393 -654,785 0,2094 392,3796 1046,5236 655,1440 1702,2094 3011,2094 523,0 1178,-131 1701,-393 654,-261 1310,-786 2094,-1701l524 916c-654,916 -1309,1701 -2225,2224 -916,655 -1963,917 -3011,917 -1831,0 -3271,-654 -4580,-1832 -1833,-1702 -2748,-4450 -2748,-7984l0 -1440c0,-2225 523,-4319 1439,-6413 1178,-2487 2879,-3797 4843,-3665 5759,654 12171,13350 -131,10732z"/>
  <path class="fil0" d="M41583 94188c-131,654 -262,1177 -393,1701 -261,654 -392,1177 -523,1571 -654,2094 -1047,3794 -1309,4973 -262,1178 -392,2355 -392,3403 0,654 0,1309 130,1701 0,524 262,1047 393,1571 131,393 261,654 392,1047 132,261 132,392 132,655 0,392 -132,523 -524,523l-1439 0 -1309 0c-393,0 -654,-131 -786,-261 -131,-131 -131,-656 -131,-1310 0,-1963 524,-4319 1571,-7068 261,-784 917,-2224 1701,-4057 393,-915 785,-1832 1179,-2748 523,-1309 785,-2226 785,-3011 0,-392 0,-785 -131,-1309 0,-261 0,-392 0,-523 0,-131 131,-262 261,-262 131,0 262,-131 393,-131l2618 1c393,0 654,0 785,130 131,131 131,393 131,916 0,786 131,2357 524,4582 262,1570 523,2878 654,3926 654,3141 1177,5497 1571,7068 262,1046 654,2225 916,3271 0,525 -131,655 -524,655 -130,0 -261,0 -261,0l-1179 -130 -1177 130c-393,0 -786,-261 -1047,-916 -262,-916 -785,-3272 -1440,-7330l-393 -2225c-261,-1046 -261,-1571 -261,-1701 -131,-524 -131,-1178 -262,-1964l-262 -1569 -393 -1309z"/>
  <path class="fil0" d="M28233 91963c-916,0 -1702,785 -1963,2879 -262,1440 -393,3272 -393,5366 393,-523 1048,-1046 1833,-1440 915,-523 1570,-916 2094,-916 392,0 786,131 1178,262 1440,654 1571,393 1832,262 1833,-1048 -1701,-6413 -4581,-6413zm-393 8899c-392,-131 -915,131 -1309,524 -261,131 -392,393 -654,785 0,2094 393,3796 1048,5236 654,1440 1700,2094 3009,2094 525,0 1179,-131 1702,-393 654,-261 1309,-786 2094,-1701l523 916c-654,916 -1308,1701 -2225,2224 -915,655 -1963,917 -3009,917 -1833,0 -3273,-654 -4582,-1832 -1832,-1702 -2748,-4450 -2748,-7984l0 -1440c0,-2225 523,-4319 1440,-6413 1177,-2487 2879,-3797 4842,-3665 5890,654 12173,13350 -131,10732z"/>
  <path class="fil0" d="M12266 111464l-10733 0 0 -32851 9947 0c1309,0 2618,261 3795,654 1179,392 2094,1046 2880,1963 785,916 1048,1963 1048,3272l0 3404c0,1831 -524,3271 -1702,4449 -1178,1179 -2749,1833 -4581,1833 -1571,0 -2617,-525 -3403,-1440 -262,261 -262,654 130,1178 394,392 917,916 1571,1177 655,394 1309,525 1833,525l6152 0 0 8768c0,2225 -655,3926 -1963,5236 -1310,1178 -3011,1832 -4974,1832zm-1833 -1963c785,0 1440,-262 1964,-654 523,-525 784,-1179 784,-2094l0 -9293c-1046,0 -2224,-524 -3534,-1440 -1308,-917 -1963,-2225 -1963,-3796 0,-916 131,-1701 394,-2224 261,-525 785,-1048 1569,-1440 263,0 525,261 656,523 130,262 130,654 -131,917 -262,523 -262,915 0,1308 261,392 654,655 1177,655 1178,0 1832,-786 1832,-2488l0 -5889c0,-785 -261,-1440 -784,-1964 -524,-523 -1310,-784 -2094,-784l-2750 0 0 28794 2880 0 0 -131z"/>
  <path class="fil0" d="M64750 94711l0 -5236c0,-7199 3665,-10862 10863,-10862 2356,0 4188,523 5496,1439 1310,916 2226,2224 2750,3795 523,1571 784,3534 784,5628l-6020 0c0,-2355 -392,-4449 -1177,-6413 -655,-1570 -1571,-2355 -2880,-2355 -1048,0 -1963,392 -2617,1177 -786,786 -1179,1832 -1179,3011l0 14004c0,917 131,1571 523,2094 262,393 1048,1309 2225,2487 655,654 917,1571 917,2879 0,1309 -393,2357 -1309,3011 1701,0 3010,-392 3795,-1178 1179,-1047 1702,-2094 1702,-3273l0 -7722 6020 0 0 5367c0,1701 -392,3141 -1177,4450 -786,1308 -1963,2356 -3534,3141 -1571,786 -3403,1178 -5628,1178 -2486,0 -4319,-262 -5497,-786 -1309,-523 -1832,-1570 -1832,-3140 0,-393 261,-525 785,-525 393,0 524,132 655,525 785,1177 1570,1701 2486,1570 917,-130 1309,-785 1309,-1963 0,-786 -261,-1571 -655,-2356 -392,-785 -1177,-1439 -2225,-1833 -1701,-785 -2748,-1700 -3534,-3010 -785,-1309 -1046,-3010 -1046,-5104z"/>
  <circle class="fil1" cx="42500" cy="39998" r="40000"/>
  <path class="fil2" d="M65047 52719c-216,-113 -483,-31 -596,184 -113,215 -33,480 181,596 210,114 488,29 600,-182 114,-215 33,-483 -185,-598zm17292 -9188c-1240,1226 -2050,2855 -2335,4573 -232,-1377 -454,-2759 -878,-4092 -619,-1948 -1768,-3333 -3121,-4799 914,-481 1637,-1370 1562,-2453 -71,-1035 -1149,-1775 -2099,-1263 -757,409 -699,1806 259,1871 310,20 639,-326 541,-639 -142,-457 -522,-602 -976,-569 87,-236 257,-441 519,-506 621,-151 1258,211 1414,848 267,1082 -492,2037 -1422,2494 -703,-752 -1440,-1472 -2222,-2138 -580,-495 -1234,-933 -1933,-1292 -175,-437 -330,-890 -452,-1350 -126,-542 -224,-1099 -268,-1654 -45,-862 78,-1723 451,-2537 805,-1755 3106,-3166 4932,-1907 773,532 1361,1443 1332,2410 -29,940 -522,1959 -1443,2323 -791,312 -1847,122 -2367,-595 -358,-495 -538,-1464 161,-1787 329,-151 1050,-66 981,480 -76,594 -932,612 -829,-32 39,-241 -332,-108 -384,34 -58,162 79,383 173,497 137,166 342,264 554,285 460,47 854,-268 888,-732 91,-1216 -1389,-1396 -2079,-662 -657,697 -494,1920 114,2588 673,742 1767,998 2708,660 -373,283 -786,505 -1223,642 -27,-6 -55,-15 -81,-26 -74,-29 -145,-65 -215,-105 -135,-76 -266,-162 -412,-220 -314,-122 -660,-119 -981,-30 -350,96 -627,325 -964,448 -33,13 -34,57 -8,73 4,4 10,5 17,6 193,24 381,105 550,193 208,106 409,222 629,309 72,28 145,54 226,76 4,1 9,2 14,4 20,5 39,9 61,13 159,32 322,28 481,-9 232,-52 450,-170 625,-333 20,-21 14,-53 -7,-65 -7,-6 -17,-7 -27,-6 -274,34 -551,63 -824,2 -37,-8 -75,-16 -113,-26 -1,0 -2,0 -2,0 -2,0 -3,0 -4,-1 -48,-10 -98,-22 -150,-36 -125,-33 -249,-71 -366,-122 125,27 252,53 381,74 30,4 60,9 94,15 34,3 67,5 101,10 9,0 18,1 28,3 22,2 43,5 64,7 171,11 342,9 513,-20 70,-12 138,-36 203,-65 1001,-197 1897,-741 2535,-1551 1219,-1237 1413,-3399 172,-4758 -707,-776 -1769,-1286 -2836,-1219 -1127,74 -2094,643 -2813,1499 -1124,1340 -1303,3049 -1084,4725 31,252 72,503 124,754 27,136 55,272 86,408 -827,-1827 -1234,-3815 -1189,-5829 78,398 463,288 880,346 105,-361 477,-618 108,-907 -104,-81 -680,-485 -817,-344l250 524 -358 -440c-63,67 -86,158 -92,255 -13,-9 -27,-16 -42,-16 13,-124 1,-226 -60,-258l-433 385 323 -464c-194,-103 -449,49 -644,103 -581,164 -319,536 -252,1004 377,1 726,288 903,-148 9,-23 25,-67 44,-121 -76,2356 379,4687 1479,6772 -276,-431 -541,-872 -793,-1317 -103,-191 -207,-381 -316,-569 -1150,-2140 -2025,-4426 -2571,-6795 -424,-1845 -774,-3805 -562,-5700 247,-2205 1473,-4244 3419,-5351 972,-552 2110,-826 3227,-761 -155,-188 -312,-374 -469,-559 -1581,81 -3140,714 -4265,1842 -988,990 -1658,2271 -2050,3613 -727,2494 -539,4993 2,7450 -883,-2977 -1166,-6116 -823,-9218 73,-86 150,-167 231,-245 192,-186 397,-361 563,-572 355,-454 520,-1024 532,-1596 13,-622 -229,-1191 -264,-1803 -5,-63 -77,-85 -117,-51 -7,7 -13,15 -18,26 -135,306 -359,574 -585,809 -277,289 -567,565 -813,876 0,2 -2,3 -3,4 0,0 -1,1 -1,2 -83,104 -161,213 -233,329 0,1 -1,1 -1,2 -1,1 -1,2 -2,4 -5,7 -8,14 -13,21 -18,29 -34,59 -51,88 0,2 0,3 -1,4 -1,0 -1,1 -1,2 -130,245 -201,513 -220,787 0,1 0,2 -1,3 0,2 0,3 0,4 -27,406 60,823 244,1189 23,45 77,50 110,22 11,-10 19,-24 21,-42 80,-467 168,-935 401,-1354 32,-58 64,-116 97,-174 1,-1 1,-2 2,-5 1,-1 2,-2 2,-3 43,-76 87,-150 131,-225 0,0 2,-1 2,-2 1,-1 1,-2 2,-4 115,-189 239,-374 378,-541 -105,194 -210,388 -305,585 0,1 -1,2 -1,4 -1,1 -1,2 -2,3 -22,45 -44,92 -64,138 -1,2 -1,3 -2,4 0,1 -2,2 -2,3 -46,102 -89,206 -128,310 -104,273 -183,556 -219,851 -19,156 -9,317 27,469 -170,1681 -158,3415 30,5133 -872,-3072 -2581,-5878 -4929,-8059 -103,-147 -224,-280 -361,-393 -342,-282 -715,-506 -1106,-695 -149,-71 -300,-138 -455,-201 -1,-1 -3,-1 -4,-2 -3,0 -5,-2 -6,-3 -70,-28 -141,-55 -212,-82 -1,-2 -2,-2 -3,-2 -3,-1 -4,-2 -6,-2 -305,-116 -616,-220 -926,-319 321,37 642,110 960,196 2,1 4,1 6,3 1,0 2,0 4,1 124,34 248,69 369,107 3,0 5,1 7,3 3,0 5,1 7,2 95,28 189,58 282,87 680,214 1251,628 1815,1052 20,15 44,22 66,21 63,-3 117,-64 96,-135 -176,-581 -508,-1120 -952,-1531 -1,-1 -3,-2 -4,-2 -1,-1 -2,-2 -3,-3 -300,-276 -651,-492 -1040,-624 -2,-1 -3,-1 -6,-1 -1,-1 -2,-1 -4,-3 -48,-15 -96,-29 -143,-43 -13,-4 -25,-6 -38,-10 -1,0 -4,-1 -5,-1 -2,-1 -3,-1 -5,-1 -194,-51 -389,-89 -585,-117 -2,-1 -4,-1 -5,-1 -2,0 -4,0 -5,0 -584,-84 -1177,-87 -1771,-115 -484,-22 -1000,-81 -1456,-274 -16,-7 -32,-9 -46,-8 -79,2 -133,101 -74,172 587,695 907,1556 1557,2213 596,603 1357,1050 2204,1176 393,58 792,35 1189,40 203,2 406,10 607,40 77,11 151,25 222,49 17,6 38,61 62,56 7,-2 13,-4 18,-9 2161,2163 3714,4872 4490,7822 -340,-796 -728,-1567 -1184,-2303 -386,-659 -812,-1293 -1291,-1893 -1516,-1900 -3593,-3526 -6017,-4029 -2360,-490 -4924,49 -6825,1560 -1872,1492 -3104,3826 -3143,6237 -40,2427 1062,5006 3373,6068 2141,983 4802,420 6210,-1527 1359,-1881 1407,-4689 -475,-6255 -857,-712 -2092,-933 -3144,-643 -542,116 -1048,369 -1439,788 -704,755 -1043,1801 -706,2804 264,790 1193,1632 2087,1330 773,-262 1330,-1059 986,-1864 -54,-128 -386,-86 -371,72 66,656 -549,1258 -1224,1068 -559,-158 -981,-598 -1074,-1183 -170,-1074 459,-2131 1429,-2597 133,-64 268,-116 403,-159 1802,-411 3747,1139 3980,3067 255,2123 -1202,4293 -3380,4581 -2410,317 -4342,-1331 -4837,-3639 -573,-2670 416,-5607 2601,-7285 2130,-1637 4964,-2019 7445,-975 6,3 12,5 18,7 -841,-149 -1717,-102 -2552,153 -81,7 -161,23 -236,48 -226,74 -435,180 -633,302 -76,48 -149,97 -223,149 0,0 -1,1 -2,1 -1,2 -2,2 -2,3 -33,23 -66,47 -102,73 0,0 -1,1 -1,2 -141,104 -276,217 -411,329 109,-136 235,-261 365,-381 1,0 1,-1 3,-2 52,-47 104,-92 156,-137 2,-1 3,-2 3,-3 1,0 2,-2 3,-3 40,-34 81,-68 121,-101 293,-248 645,-389 999,-522 13,-5 22,-15 28,-24 17,-30 5,-72 -33,-83 -315,-87 -655,-91 -971,-7 -1,0 -2,1 -3,1 -210,57 -410,154 -581,293 -1,0 -3,1 -3,1 -1,2 -1,2 -2,3 -20,16 -41,34 -61,52 -5,4 -10,9 -15,14 -1,1 -2,1 -4,3 -79,75 -153,152 -225,237 -206,242 -378,510 -561,772 -149,213 -325,430 -543,581 -7,5 -13,12 -17,19 -21,37 9,90 57,83 484,-66 967,35 1452,-71 446,-97 867,-314 1168,-663 139,-161 244,-348 359,-528 48,-73 99,-145 155,-215 924,-254 1905,-235 2814,31 -1384,-25 -2667,767 -3267,2101 -75,170 105,251 181,83 686,-1528 2468,-2245 4055,-1732 39,13 304,113 402,176 197,139 387,282 570,430 61,55 121,108 179,165 18,17 38,28 57,35 2987,2583 4322,6709 5321,10549 -665,-831 -1412,-1600 -2297,-2183 -1044,-686 -2302,-1100 -3544,-966 -1547,166 -2941,1298 -3347,2812 -318,1188 -25,2523 762,3468 607,730 1540,1232 2486,1148 438,-39 854,-202 1220,-447 -325,290 -711,508 -1142,613 -1163,284 -2396,-144 -3133,-1073 0,-18 0,-37 1,-55 9,-153 28,-308 15,-463 -26,-330 -179,-638 -398,-884 -237,-268 -562,-416 -816,-662 -26,-25 -65,-6 -69,25 -1,6 0,12 3,18 62,182 72,384 67,571 -5,231 -19,461 -1,694 5,76 14,153 31,234 1,4 1,9 2,14 3,19 8,38 14,60 40,155 116,296 216,424 148,182 348,325 568,407 28,12 54,-8 56,-33 1,-8 -1,-17 -7,-27 -149,-229 -295,-460 -360,-730 -9,-36 -18,-73 -26,-111 0,-1 -2,-2 -2,-2 0,-1 0,-2 0,-4 -11,-48 -22,-96 -33,-150 -24,-125 -45,-251 -50,-376 30,122 62,245 100,370 8,29 18,56 28,88 20,61 42,123 66,183 63,156 140,306 240,445 68,95 158,175 261,229 20,11 117,67 128,30 2,-11 -19,-19 -20,-26 -1,-5 -1,-10 -3,-14 792,901 2013,1448 3191,1098 1201,-355 2097,-1349 2345,-2552 163,-458 227,-951 162,-1432 -103,-764 -543,-1489 -1207,-1879 -786,-459 -1709,-383 -2404,199 -323,270 -565,646 -636,1061 -70,415 43,866 334,1171 291,305 759,440 1156,299 629,-224 782,-961 407,-1471 -59,-80 -489,-529 -604,-449 204,-143 445,-228 693,-223 980,18 1609,817 1648,1754 48,1129 -746,2108 -1825,2408 -580,162 -1223,100 -1747,-198 -908,-517 -1318,-1675 -1168,-2710 203,-1402 1373,-2611 2768,-2863 929,-167 1900,62 2741,495 940,486 1743,1216 2489,1956 533,529 1037,1087 1509,1668 6,17 11,33 15,50 4,8 7,16 11,24 5,24 15,49 37,72 121,132 243,264 365,396 194,256 385,516 568,782 594,971 1125,1982 1588,3024 -490,-161 -990,-283 -1493,-355 -295,-42 -590,-67 -885,-74 -143,-89 -282,-184 -412,-291 -1,-2 -2,-2 -3,-3 -6,-5 -12,-10 -18,-14 -38,-31 -78,-63 -114,-97 -19,-17 -37,-30 -55,-38 -217,-178 -421,-368 -574,-608 -27,-42 -53,-84 -80,-128 -1,0 -1,-1 -2,-2 -2,-1 -2,-3 -3,-4 -34,-55 -68,-111 -102,-170 -2,0 -2,-1 -3,-2 -84,-145 -163,-294 -224,-448 91,140 183,279 281,415 0,0 1,1 2,4 23,31 46,62 70,93 0,1 1,2 2,3 0,0 1,1 1,1 51,69 104,135 160,199 145,167 306,322 490,453 124,89 272,149 422,173 30,6 175,33 172,-18 -1,-13 -32,-16 -36,-24 -22,-31 -38,-66 -54,-102 -41,-96 -72,-195 -100,-296 -56,-195 -97,-394 -178,-582 -175,-401 -496,-717 -873,-932 -411,-232 -879,-277 -1299,-473 -43,-21 -84,18 -76,59 2,7 5,14 11,21 154,199 254,446 328,683 92,289 172,582 294,863 39,93 84,185 136,276 1,0 1,2 1,3 4,6 7,12 11,16 13,23 26,45 43,70 116,175 270,319 450,433 233,148 505,237 781,261 80,71 162,139 245,205 -1446,26 -2853,502 -4016,1598 -144,136 -281,281 -412,433 -1830,505 -3318,1728 -4395,3291 -107,153 46,207 151,54 886,-1283 2128,-2257 3568,-2817 -202,79 -433,381 -587,533 -189,185 -370,378 -542,579 -344,401 -654,831 -924,1286 -561,947 -1039,2101 -1096,3210 -32,620 127,1277 558,1722 330,344 845,533 1318,438 240,-47 460,-170 623,-353 91,-103 345,-467 263,-620 215,395 483,757 806,1071 786,761 1858,1202 2950,1280 1091,76 2194,-200 3154,-723 1040,-568 1928,-1440 2422,-2517 493,-1077 567,-2360 106,-3451 -564,-1335 -2034,-2391 -3519,-2162 -1232,190 -2285,1230 -2489,2460 -96,578 -12,1198 307,1689 317,492 887,832 1471,806 1402,-65 1698,-1982 394,-2483 -602,-231 -1231,-39 -1682,370 117,-601 516,-1152 1073,-1459 852,-472 1894,-486 2713,71 1882,1280 1721,3997 109,5437 -1568,1403 -3881,1473 -5535,169 -1652,-1304 -2184,-3521 -1398,-5464 810,-2007 2778,-3212 4902,-3352 1333,-89 2637,185 3838,723 2,3 4,8 6,13 34,75 105,89 164,67 345,162 682,345 1008,548 1082,677 1931,1621 2723,2606 -526,-404 -1111,-728 -1737,-960 -151,-184 -353,-330 -580,-413 -150,-54 -309,-80 -475,-70 -20,3 -39,5 -59,6 -5,2 -9,3 -19,4 -78,10 -154,26 -234,46 -224,58 -440,146 -659,227 -179,65 -375,120 -570,119 -6,0 -12,1 -18,4 -27,14 -33,56 0,73 317,164 564,429 898,569 307,129 651,176 977,95 152,-39 292,-107 438,-166 73,-29 149,-56 225,-77 30,-8 59,-14 89,-16 7,0 22,18 31,12 32,-23 -52,-98 -69,-114 -86,-79 -192,-141 -303,-174 -167,-52 -337,-77 -507,-87 -65,-3 -130,-4 -200,-4 -29,1 -59,1 -93,2 -128,3 -256,13 -384,24 122,-36 251,-58 382,-75 50,-6 100,-10 151,-15 0,-1 1,-1 2,-1 1,0 3,0 4,0 37,-4 76,-7 114,-11 24,-2 46,-4 69,-4 12,6 26,11 41,16 1259,326 2360,1098 3217,2064 -336,-93 -985,-6 -1184,30 -457,84 -895,273 -1270,548 -801,590 -1159,1586 -1107,2569 37,694 331,1389 864,1836 1189,1001 3123,220 2696,-1462 -418,-1645 -2908,-721 -2074,694 357,604 1160,805 1634,216 118,-150 191,-310 225,-472 3,18 5,35 6,52 -20,484 -339,938 -886,1079 -519,132 -1054,-23 -1451,-356 -174,-163 -323,-351 -441,-554 -17,-35 -35,-71 -51,-107 -562,-1343 179,-3475 1858,-3509 2796,-57 3538,3268 4132,5337 485,1692 605,3455 951,5175 62,306 146,608 249,904 140,-420 273,-844 398,-1269l-1 -12c-303,-1902 146,-3804 1195,-5349 123,-819 220,-1647 293,-2482zm-4720 -22686c-393,1066 -1197,1952 -2407,2298 -1316,375 -2798,-64 -3539,-1269 -666,-1083 -592,-2439 134,-3449 -300,950 818,2124 1658,1239 284,-297 346,-773 179,-1149 -168,-375 -546,-640 -952,-701 -629,-96 -1271,284 -1670,744 -1332,1533 -622,3895 1063,4827 1064,588 2401,603 3523,133 956,-399 1774,-1150 2337,-2061l-144 -274 -47 83 44 -89c-59,-111 -119,-222 -179,-332zm2323 33241c-211,-303 -413,-612 -605,-930 4,-4 8,-8 10,-14 11,-21 -39,-56 -40,-73 -6,-74 -1,-150 6,-227 19,-203 60,-403 106,-600 90,-386 207,-768 244,-1165 79,-853 -173,-1697 -617,-2420 -483,-786 -1243,-1304 -1779,-2038 -54,-75 -163,-45 -184,30 -5,13 -6,30 -2,46 76,488 13,1004 -81,1479 -115,585 -254,1160 -311,1748 0,1 -2,4 -2,5 0,1 0,3 0,5 -19,197 -29,395 -26,596 0,1 0,4 0,5 0,2 0,3 0,6 0,13 0,26 2,37 1,51 3,101 8,150 0,3 0,4 0,5 0,3 0,5 1,6 34,409 161,802 357,1158 1,2 1,3 2,4 1,1 2,4 2,5 293,529 737,979 1259,1289 65,39 137,-2 155,-62 6,-21 5,-45 -5,-68 -278,-648 -543,-1302 -590,-2013 -5,-97 -12,-196 -18,-294 0,-4 0,-5 0,-8 0,-1 0,-5 0,-6 -7,-129 -13,-256 -16,-385 0,-1 0,-4 -2,-4 0,-2 0,-5 0,-7 -8,-328 -2,-659 39,-980 23,327 49,653 89,977 0,1 0,3 0,4 0,3 1,4 1,5 10,76 19,150 31,224 0,3 0,5 0,6 0,3 1,5 1,6 25,164 53,329 88,490 89,424 218,840 411,1239 76,160 177,310 295,445 319,571 667,1123 1046,1652 43,-109 84,-219 125,-328zm-1874 4220l-87 23c33,-16 67,-32 100,-46 171,-332 338,-667 500,-1004 -31,7 -61,17 -90,26 -8,1 -17,5 -24,7 -1,0 -3,2 -3,2 -1,0 -3,1 -4,1 -129,42 -253,91 -374,146 -1,1 -3,1 -4,3 0,0 -1,1 -2,1 -363,165 -699,380 -1045,581 -283,163 -597,316 -925,375 -12,2 -21,5 -30,11 -43,31 -38,106 21,124 523,162 974,474 1496,637 160,-294 318,-590 471,-887zm3711 -10745c-116,111 -212,241 -290,382 0,0 0,1 -3,3 -156,286 -232,617 -223,943 1,40 40,61 72,52 12,-3 22,-11 31,-23 61,-90 124,-179 189,-268 79,-360 154,-724 224,-1089zm-379 1766c-314,641 -497,1334 -546,2038 200,-673 382,-1352 546,-2038zm-10074 -3431l0 -1 -384 -233 417 132c32,-165 -138,-320 -223,-452 -253,-391 -468,-114 -798,43 85,279 -48,603 314,634 101,8 646,26 674,-123zm930 208c455,106 417,-243 545,-586 -255,-141 -383,-466 -666,-236 -79,63 -482,429 -400,555l1 1 437 -99 -392 194c93,142 322,135 475,171zm-597 -110c32,-59 11,-133 -47,-164 -58,-34 -132,-11 -164,47 -33,59 -12,131 46,164 58,32 135,9 165,-47zm-76 -1363c-218,192 -567,206 -446,549 35,96 246,596 392,562l3 -1 51 -445 53 434c164,-41 234,-260 319,-392 250,-392 -93,-472 -372,-707zm-113 1496l-2 -1 -334 299 249 -360c-150,-80 -347,37 -498,80 -449,126 -246,413 -194,776 292,1 561,222 698,-115 38,-93 214,-609 81,-679zm864 214c-79,-61 -526,-374 -631,-267l-1 2 195 403 -278 -338c-117,122 -59,344 -60,500 -4,468 329,353 691,403 83,-280 370,-477 84,-703zm4728 -4761c-501,-376 -1075,-637 -1708,-644 471,-51 965,26 1435,254 92,130 183,260 273,390zm-15664 -304c1,594 94,1196 281,1763 -312,-220 -828,-207 -1091,91 -266,302 -97,888 303,982 216,51 475,-56 586,-251 79,-137 140,-548 -39,-646 83,44 152,112 208,200 104,194 176,441 90,658 -217,551 -978,695 -1445,368 -1006,-706 -765,-2078 -430,-3082 509,-1522 1410,-2876 2615,-3921 -701,1149 -1082,2524 -1078,3838zm-1569 -14883c-940,483 -1665,1460 -1960,2522 62,-607 281,-1195 672,-1695 896,-1146 2358,-1655 3778,-1304 1260,311 2304,1054 3202,1958 -1599,-1352 -3686,-2511 -5692,-1481zm1864 1381c-934,-181 -1896,335 -2085,1311 -10,55 -16,113 -16,170 -19,-86 -28,-177 -20,-268 130,-1441 1884,-1726 2829,-901 -202,-150 -439,-260 -708,-312zm-9722 -2910c610,172 1267,-59 1567,-551 -127,360 -438,669 -811,755 -555,130 -1114,-143 -1444,-593 -51,-70 -97,-142 -138,-215 187,281 459,501 826,604zm7020 15053c-161,73 -309,187 -421,324 -166,204 -299,426 -408,660 -43,90 -82,179 -119,271 -1,2 -1,2 -2,3 0,1 0,3 -1,5 -17,40 -33,82 -49,125 0,0 -1,1 -1,2 0,1 0,2 -1,2 -67,184 -127,368 -186,553 21,-191 63,-382 114,-571 0,-2 0,-3 1,-4 0,-1 0,-1 0,-2 20,-75 42,-148 63,-221 1,-1 1,-3 1,-4 1,-1 1,-3 1,-5 18,-56 34,-111 52,-167 125,-405 369,-747 619,-1083 10,-13 13,-26 13,-39 -2,-38 -39,-70 -81,-57 -345,106 -664,306 -908,572 0,1 -1,2 -1,2 -1,0 -2,1 -2,2 -162,180 -291,389 -367,620 0,2 0,3 -2,4 0,0 0,1 0,2 -9,29 -17,57 -26,85 -2,9 -3,16 -5,24 0,0 0,1 -2,2 0,2 0,3 0,4 -29,115 -52,230 -67,348 0,0 -1,2 -1,3 0,1 0,2 0,2 -47,349 -47,702 -62,1055 -11,287 -46,595 -158,867 -3,9 -6,19 -5,27 2,47 61,79 103,44 411,-351 923,-546 1311,-935 357,-356 619,-810 691,-1314 34,-234 19,-471 20,-708 1,-120 5,-242 23,-362 6,-45 14,-90 28,-131 2,-11 37,-24 33,-37 -13,-59 -166,17 -198,32zm11231 -13348c325,-509 -118,-612 -481,-915 -282,249 -732,268 -575,710 45,124 318,772 507,726l2 -1 66 -575 70 561c211,-52 302,-335 411,-506zm-443 634c-74,-41 -170,-14 -213,62 -42,75 -15,171 62,212 74,42 172,13 212,-61 42,-76 15,-170 -61,-213zm-615 -629c-328,-507 -605,-147 -1033,55 110,362 -61,779 408,820 130,11 834,32 870,-159l1 -3 -497 -300 540 172c41,-215 -180,-415 -289,-585zm1448 985c588,137 537,-315 705,-757 -330,-183 -496,-604 -861,-307 -103,82 -624,556 -518,719l3 1 564 -129 -506 252c119,183 415,175 613,221zm-4108 -17745c-688,-236 -1147,-976 -1739,-290 -165,192 -994,1268 -737,1541l4 3 1028 -437 -876 651c289,306 849,188 1240,208 1162,62 913,-780 1080,-1676zm-681 3986c78,-723 697,-1336 -103,-1761 -224,-118 -1456,-689 -1665,-377l-3 4 654 907 -828 -711c-235,350 5,870 71,1255 197,1147 963,719 1874,683zm-3746 -1605c-1048,508 -423,1124 -136,1990 717,-126 1477,299 1663,-587 52,-248 259,-1590 -99,-1705l-5 -2 -690 880 454 -992c-402,-130 -835,245 -1187,416zm1045 -4025c-450,570 -1300,759 -849,1546 125,218 866,1357 1208,1205l5 -2 -71 -1116 323 1043c385,-171 459,-739 608,-1101 444,-1076 -432,-1119 -1224,-1575zm-2723 2402c330,647 148,1499 1051,1416 251,-23 1595,-223 1599,-599l1 -4 -1045 -399 1082 140c6,-423 -480,-726 -748,-1012 -794,-851 -1197,-72 -1940,458zm3512 910c52,-157 -32,-326 -188,-381 -158,-54 -329,30 -383,188 -55,158 29,330 187,384 155,52 332,-35 384,-191zm-4480 11377c221,431 101,998 701,943 167,-16 1061,-149 1064,-398l0 -4 -695 -266 721 94c2,-280 -320,-483 -497,-673 -530,-566 -799,-48 -1294,304zm2339 606c34,-105 -21,-217 -125,-254 -105,-35 -220,20 -257,125 -35,106 20,220 126,256 103,35 222,-23 256,-127zm1725 -1110c-457,-157 -764,-650 -1157,-193 -110,128 -661,844 -490,1026l2 2 685 -291 -583 433c191,204 566,125 824,139 775,41 608,-520 719,-1116zm-453 2653c52,-481 464,-888 -69,-1172 -148,-78 -968,-458 -1107,-250l-3 2 436 604 -552 -474c-155,233 4,580 48,836 131,763 641,477 1247,454zm-1797 -3747c-300,379 -865,505 -565,1028 82,146 575,905 804,803l4 -1 -49 -743 215 694c256,-114 306,-492 405,-732 296,-717 -288,-746 -814,-1049zm-696 2679c-697,338 -282,749 -90,1324 476,-84 983,200 1107,-391 35,-164 171,-1058 -67,-1134l-3 -1 -458 586 301 -662c-267,-85 -557,165 -790,278zm-5927 12134c-220,106 -310,370 -203,590 107,220 373,310 591,202 216,-106 309,-380 201,-595 -109,-216 -371,-305 -589,-197zm2462 2705c-202,-309 -1379,-1913 -1868,-1661l-6 2 197 1625 -558 -1495c-550,282 -611,1118 -798,1658 -558,1611 727,1602 1920,2201 610,-872 1837,-1218 1113,-2330zm-2860 -1711l-5 -6 -1495 669 1266 -975c-432,-441 -1250,-254 -1821,-274 -1704,-59 -1316,1167 -1537,2484 1013,327 1707,1396 2556,377 236,-284 1420,-1882 1036,-2275zm-2537 -928c356,95 2302,509 2499,-4l2 -7 -1228 -1082 1413 745c223,-575 -289,-1241 -510,-1768 -655,-1574 -1607,-712 -2897,-365 124,1057 -560,2132 721,2481zm2381 -2778c27,368 283,2342 834,2357l6 0 613 -1518 -235 1581c617,18 1076,-685 1501,-1068 1267,-1140 138,-1753 -618,-2853 -957,466 -2198,177 -2101,1501zm2876 4565c1391,982 1740,-254 2647,-1235 -668,-829 -662,-2104 -1930,-1716 -355,109 -2221,794 -2114,1335l1 6 1616 261 -1594 122c119,604 906,896 1374,1227zm16768 18176l670 -894 -3 -5c-204,-315 -1446,233 -1672,347 -807,413 -198,1035 -133,1760 910,52 1668,494 1886,-649 73,-384 321,-902 92,-1255l-840 696zm775 -1187c15,164 159,287 325,274 163,-13 290,-164 276,-328 -14,-166 -162,-289 -328,-273 -166,14 -288,160 -273,327zm277 -3354c-690,595 -1543,801 -907,1776 215,327 394,872 805,967l121 -1084 140 1109 4 0c365,86 880,-1170 962,-1410 295,-857 -574,-883 -1125,-1358zm544 3330c26,376 1379,495 1632,503 905,31 673,-809 965,-1474 -771,-485 -1220,-1239 -1964,-342 -249,300 -716,632 -686,1053l1071 -204 -1019 461 1 3zm-2287 306c388,-58 957,6 1214,-328l-935 -562 1066 335 4 -4c229,-297 -700,-1287 -883,-1462 -657,-623 -1042,156 -1704,457 254,878 88,1739 1238,1564zm3586 2401c252,-877 852,-1519 -215,-1983 -359,-156 -808,-512 -1204,-367l494 972 -725 -850 -4 1c-353,130 -93,1462 -30,1708 222,877 965,423 1684,519zm4367 -18292c-128,107 -146,297 -38,426 106,126 294,144 423,39 127,-103 145,-300 40,-427 -107,-127 -297,-145 -425,-38zm-2990 911c708,576 1061,1380 1908,581 286,-269 790,-541 811,-961l-1089 71 1068 -333 0 -5c19,-375 -1309,-659 -1559,-698 -894,-140 -768,720 -1139,1345zm2968 -2926c-245,-871 -975,-398 -1698,-476 -229,883 -813,1539 267,1976 361,148 818,493 1210,338l-517 -961 747 833 4 -2c349,-138 56,-1463 -13,-1708zm1428 -347c-541,-16 -941,59 -1011,859 -34,388 -229,928 36,1257l765 -778 -575 959 2 3c125,156 516,40 888,-124 -16,-730 -50,-1455 -105,-2176zm107 2332c-305,38 -620,95 -785,328l793 430 1 -37c0,-241 -5,-480 -9,-721zm8 803l-914 -242 -3 3c-200,286 629,1127 898,1376 12,-378 18,-757 19,-1137zm-1484 -50l5 3 -41 1117 294 -1051c390,160 479,726 638,1083 473,1064 -402,1131 -1180,1609 -466,-559 -1321,-724 -892,-1523 120,-222 829,-1381 1176,-1238zm-2527 -17510c-164,375 -299,762 -402,1161 -599,2318 -178,4922 1243,6872 658,904 1528,1687 2518,2216 -145,-794 -314,-1579 -506,-2357 -1426,-1554 -2161,-3714 -1913,-5811 -294,-704 -608,-1398 -940,-2081zm-17963 52921c833,-613 1406,-1493 1634,-2488 33,-64 57,-133 71,-202 35,-172 43,-342 36,-512 -2,-66 -8,-130 -15,-195 0,-1 0,-2 0,-3 0,-1 0,-1 0,-3 -4,-29 -7,-59 -11,-88 0,-1 0,-1 0,-1 0,-1 0,-1 0,-3 -16,-127 -39,-254 -61,-380 46,118 80,243 110,370 0,1 0,1 0,2 1,0 1,0 1,1 11,50 21,98 31,148 0,1 0,2 0,3 1,0 1,2 1,3 7,39 14,75 21,114 52,274 16,550 -28,824 -1,10 1,18 6,27 12,20 43,28 63,7 169,-168 295,-384 355,-613 0,0 0,-1 0,-1 0,-2 1,-2 1,-3 39,-154 50,-316 22,-474 0,-2 0,-3 0,-4 0,0 0,-1 0,-2 -3,-19 -7,-38 -11,-57 -2,-5 -3,-10 -4,-14 0,-1 0,-3 0,-3 -1,-1 -1,-2 -1,-2 -18,-77 -41,-151 -67,-224 0,-2 -2,-3 -2,-3 0,0 0,0 0,-1 -80,-218 -189,-424 -289,-635 -81,-170 -157,-362 -175,-554 0,-7 -2,-13 -4,-18 -17,-27 -61,-28 -75,6 -132,332 -371,602 -478,949 -98,319 -112,664 1,981 53,147 135,282 207,420 36,70 72,143 99,218 9,28 18,55 23,82 -151,433 -386,839 -677,1203 366,-931 141,-2033 -578,-2729 -651,-629 -1867,-829 -2584,-193 -756,668 -622,2152 597,2098 466,-20 792,-404 760,-864 -16,-213 -107,-421 -268,-562 -113,-100 -329,-243 -492,-189 -144,46 -288,413 -46,382 647,-84 603,773 6,829 -547,54 -610,-670 -449,-995 344,-689 1309,-479 1791,-105 701,541 857,1602 522,2383 -392,910 -1426,1373 -2367,1371 -967,-1 -1859,-617 -2368,-1406 -1201,-1863 280,-4120 2060,-4870 825,-348 1689,-444 2550,-373 553,62 1105,177 1644,320 562,168 1111,384 1633,626 336,699 749,1357 1218,1944 195,242 395,482 599,718 130,-92 259,-185 387,-279 -309,-362 -593,-749 -837,-1168 -893,-1533 -1368,-3276 -1195,-5055 205,-2118 1471,-4048 3500,-4795 1968,-724 4167,-125 5419,1567 479,646 753,1382 830,2130 296,-367 587,-737 870,-1114 -132,-913 -520,-1792 -1141,-2473 -304,-334 -658,-612 -1045,-840 149,87 523,-155 628,-242 188,-157 318,-376 372,-613 109,-470 -64,-991 -397,-1333 -432,-444 -1083,-621 -1704,-609 -1111,21 -2278,465 -3242,997 -463,255 -904,551 -1315,882 -205,167 -405,341 -595,524 -157,149 -465,371 -550,572 562,-1327 1481,-2470 2664,-3303 36,-10 71,-15 109,-19 120,-12 241,-13 361,-11 236,7 474,28 709,2 507,-56 967,-304 1336,-650 399,-376 609,-882 973,-1282 37,-41 7,-100 -40,-104 -8,-1 -18,0 -27,4 -276,105 -584,128 -872,132 -353,2 -706,-9 -1056,28 0,0 -1,0 -2,0 -1,0 -3,2 -4,2 -117,11 -234,30 -349,55 -2,1 -3,1 -4,1 -1,0 -2,0 -2,1 -9,2 -16,3 -23,5 -29,7 -58,14 -86,23 -1,0 -2,1 -4,1 -1,0 -2,0 -2,1 -235,70 -448,191 -632,347 -1,1 -2,3 -2,3 -1,1 -1,1 -3,1 -274,235 -481,548 -600,889 -14,43 18,79 55,83 14,1 27,-3 40,-12 344,-240 693,-472 1102,-586 55,-14 112,-31 169,-45 1,-1 2,-1 5,-1 1,-1 2,-1 3,-2 73,-19 148,-38 222,-55 1,-1 2,-1 2,-1 2,0 3,0 4,-1 191,-45 384,-80 575,-96 -186,52 -373,107 -557,170 -1,0 -3,0 -3,0 -1,0 -2,0 -3,2 -43,14 -85,29 -128,44 -1,0 -2,0 -2,0 -1,2 -2,2 -4,3 -93,34 -184,70 -275,110 -236,102 -463,228 -672,388 -135,104 -249,239 -327,390 -1488,1018 -2666,2415 -3200,4141 -154,126 -304,259 -446,398 -1210,1207 -1719,2714 -1729,4264 -143,-228 -301,-448 -474,-658 -16,-276 -97,-548 -237,-785 0,-2 0,-3 -2,-3 0,-1 0,-2 -1,-2 -106,-179 -245,-337 -417,-460 0,0 -1,-1 -1,-1 -1,0 -2,-1 -2,-1 -21,-15 -43,-28 -64,-43 -6,-3 -12,-7 -16,-10 -2,0 -3,-1 -3,-1 -1,-1 -1,-1 -2,-3 -88,-52 -179,-100 -269,-143 -2,0 -2,0 -3,-1 -1,0 -1,-1 -2,-1 -274,-128 -564,-216 -851,-318 -232,-82 -477,-187 -672,-349 -6,-6 -13,-9 -20,-11 -40,-9 -81,30 -62,73 184,427 213,897 434,1314 203,384 509,714 905,901 184,87 383,135 576,196 98,31 198,65 292,110 36,16 70,34 101,57 7,4 9,35 22,36 51,5 28,-142 24,-171 -19,-151 -76,-300 -160,-428 -125,-189 -275,-353 -438,-503 -63,-58 -128,-112 -193,-165 -1,-1 -2,-1 -3,-3 0,-1 -1,-1 -1,-2 -31,-25 -62,-48 -92,-72 0,-1 -2,-1 -2,-1 -1,0 -1,-1 -2,-1 -132,-103 -268,-199 -406,-294 152,66 299,148 441,238 0,1 2,1 3,2 0,0 0,2 1,2 56,35 111,71 165,106 2,1 3,1 4,2 0,2 1,3 2,3 43,28 84,56 125,85 234,159 419,368 589,590 8,18 21,38 39,58 16,20 33,40 49,60l56 75c3,6 9,10 15,14 234,309 414,660 566,1025 8,125 19,251 33,377 57,504 162,1009 308,1504 -1027,-495 -2021,-1058 -2974,-1682 -1045,-772 -2021,-1639 -2912,-2595 -717,-769 -1421,-1595 -1878,-2549 -408,-854 -606,-1831 -410,-2756 294,-1386 1539,-2517 2948,-2677 1038,-118 2182,328 2671,1252 282,531 324,1177 145,1751 -334,1069 -1336,1833 -2464,1751 -936,-70 -1715,-723 -1702,-1701 2,-249 95,-488 244,-687 -84,113 352,556 430,617 499,391 1239,260 1482,-360 154,-392 34,-866 -262,-1166 -296,-299 -744,-427 -1161,-369 -417,57 -799,288 -1079,603 -603,676 -709,1596 -273,2395 368,677 1079,1140 1840,1265 480,81 973,32 1436,-117 1211,-211 2231,-1076 2625,-2266 425,-1290 -241,-2665 -1290,-3467 -51,-89 -121,-170 -202,-234 -137,-103 -285,-185 -439,-253 -59,-26 -119,-50 -180,-73 0,0 -1,0 -2,0 0,-1 -1,-1 -3,-1 -27,-9 -54,-19 -82,-29 -2,0 -2,0 -2,0 -1,0 -2,0 -2,0 -120,-42 -242,-78 -364,-111 124,9 251,33 376,62 0,0 1,2 1,2 1,0 1,0 2,0 49,11 97,23 146,35 0,0 1,1 2,1 1,0 1,1 2,1 38,10 75,20 112,30 266,74 494,227 719,383 8,5 18,8 26,7 23,-3 45,-26 35,-54 -77,-223 -212,-427 -391,-581 -1,0 -1,0 -2,0 0,-1 -1,-1 -1,-2 -121,-103 -260,-181 -412,-227 -2,-1 -2,-1 -3,-1 -1,0 -1,0 -2,0 -18,-6 -37,-11 -56,-15 -6,-1 -10,-3 -15,-3 0,0 -1,0 -1,-1 -1,0 -1,0 -3,0 -75,-16 -152,-28 -229,-38 0,0 -1,0 -1,0 -1,0 -1,0 -2,0 -228,-24 -459,-16 -690,-19 -188,-1 -389,-17 -568,-85 -7,-3 -13,-4 -18,-3 -31,2 -51,41 -27,68 237,261 374,591 635,837 241,226 543,387 873,425 154,16 308,3 462,-1 73,-2 146,-2 219,4 994,755 1431,2060 1098,3266 -118,429 -348,807 -648,1122 256,-358 432,-769 485,-1206 112,-942 -360,-1890 -1071,-2520 -920,-815 -2246,-1149 -3443,-868 -1526,359 -2700,1717 -2915,3258 -171,1238 203,2508 857,3571 546,890 1276,1650 2071,2331 -3877,-1125 -8081,-2585 -10626,-5715 -5,-20 -16,-39 -33,-58 -54,-60 -106,-123 -158,-184 -144,-188 -281,-383 -413,-584 -60,-100 -151,-368 -162,-407 -465,-1603 306,-3362 1854,-4001 170,-69 96,-252 -76,-181 -1353,558 -2183,1815 -2202,3199 -237,-918 -227,-1898 57,-2816 70,-52 145,-100 220,-145 182,-110 373,-209 539,-344 358,-290 587,-704 698,-1146 121,-481 34,-967 116,-1448 7,-50 -44,-81 -82,-60 -7,3 -13,9 -19,16 -158,214 -381,383 -598,525 -267,175 -541,338 -788,537 -1,0 -1,1 -3,1 -1,1 -1,1 -2,2 -83,66 -163,137 -238,214 0,0 -2,1 -2,2 -1,0 -1,2 -2,3 -5,4 -9,8 -14,13 -19,20 -38,40 -56,60 0,1 -1,1 -1,2 -1,0 -1,1 -2,1 -144,168 -247,364 -311,573 0,1 0,3 0,3 0,1 -1,2 -1,3 -93,311 -99,651 -23,969 10,38 52,51 82,34 11,-5 19,-14 25,-27 144,-351 296,-698 551,-983 36,-39 71,-78 107,-117 1,0 2,-1 2,-2 1,-3 2,-3 4,-4 46,-50 93,-100 141,-151 0,0 0,-1 1,-1 2,0 2,-1 3,-1 123,-129 251,-249 390,-355 -117,132 -232,264 -342,401 0,1 -1,1 -1,2 -1,0 -1,1 -1,3 -26,31 -51,62 -76,95 -1,1 -1,1 -2,3 0,1 -1,2 -1,3 -55,71 -107,143 -156,216 -129,195 -240,401 -321,624 -28,74 -46,153 -56,233 -281,826 -354,1703 -231,2548 -3,-6 -5,-11 -7,-17 -967,-2513 -498,-5333 1204,-7413 1745,-2132 4712,-3031 7362,-2375 2291,567 3880,2550 3488,4947 -356,2169 -2569,3557 -4682,3238 -1922,-292 -3411,-2286 -2943,-4074 46,-133 102,-265 171,-398 495,-954 1572,-1551 2640,-1346 582,110 1008,545 1149,1109 170,680 -451,1277 -1106,1190 -157,-21 -210,310 -82,369 793,368 1607,-163 1893,-928 330,-884 -483,-1839 -1265,-2128 -992,-367 -2048,-61 -2825,620 -430,377 -698,876 -832,1414 -322,1043 -139,2284 546,3162 1507,1931 4315,1968 6238,667 1989,-1345 2633,-3988 1718,-6158 -990,-2343 -3534,-3523 -5961,-3559 -2412,-36 -4782,1124 -6331,2950 -1571,1852 -2187,4397 -1771,6772 428,2439 1990,4565 3842,6138 584,498 1206,943 1853,1350 719,476 1480,890 2265,1254 -2925,-866 -5585,-2503 -7679,-4730 3,-4 7,-10 8,-17 6,-25 -50,-48 -54,-64 -22,-71 -34,-147 -43,-223 -22,-202 -25,-405 -20,-609 8,-396 42,-793 -5,-1190 -99,-849 -522,-1624 -1106,-2238 -637,-670 -1487,-1017 -2164,-1624 -69,-63 -169,-11 -174,68 -1,14 0,30 7,46 177,461 221,979 229,1464 9,594 -7,1187 58,1774 1,1 1,3 1,4 0,1 0,4 0,4 23,198 55,394 100,590 0,0 1,3 1,5 0,1 1,2 1,5 2,13 6,25 8,38 12,48 25,96 40,144 0,2 0,3 2,4 1,3 1,5 1,5 119,395 326,751 590,1060 1,1 3,2 4,3 1,1 2,3 3,5 396,456 924,803 1500,998 70,24 134,-30 137,-92 3,-21 -3,-45 -18,-68 -407,-575 -802,-1159 -995,-1844 -27,-95 -53,-189 -79,-285 -1,-1 -1,-5 -2,-6 0,-4 -2,-6 -2,-8 -34,-123 -66,-247 -97,-372 0,-3 0,-4 -1,-4 0,-2 0,-5 -1,-6 -77,-320 -139,-645 -166,-967 89,315 183,628 289,937 1,1 1,3 2,4 0,3 2,3 2,4 24,72 50,144 76,215 0,1 1,2 3,5 0,2 1,3 1,5 59,155 120,310 188,461 176,397 388,777 660,1127 109,139 237,266 380,372 2107,2414 4859,4209 7902,5176 -1710,-240 -3441,-305 -5125,-188 -152,-42 -313,-56 -469,-42 -298,28 -582,97 -859,193 -106,35 -210,76 -313,118 -1,1 -2,1 -4,2 -1,0 -3,2 -4,2 -46,18 -93,40 -140,61 0,0 -2,0 -3,0 -1,0 -2,1 -3,1 -201,90 -398,187 -594,287 171,-134 359,-253 552,-361 2,0 3,-1 4,-1 1,-2 1,-2 2,-3 76,-42 151,-84 228,-124 1,0 3,-1 5,-1 1,-1 2,-2 5,-2 58,-32 117,-62 176,-91 426,-221 895,-296 1366,-359 18,-2 32,-10 42,-20 29,-32 26,-88 -18,-111 -360,-195 -774,-295 -1181,-280 -1,0 -3,0 -4,0 -1,0 -2,0 -3,0 -274,10 -545,73 -793,195 -1,1 -2,1 -3,2 -2,0 -3,0 -4,1 -30,15 -60,31 -89,47 -8,5 -15,9 -22,13 -1,0 -2,1 -4,3 -1,0 -2,1 -3,1 -117,67 -228,142 -336,221 -1,1 -1,2 -2,2 -1,1 -1,1 -2,1 -319,239 -604,519 -901,787 -243,218 -518,435 -827,559 -11,5 -19,10 -26,18 -37,39 -17,113 46,117 610,55 1173,315 1794,320 572,6 1147,-141 1612,-481 216,-160 397,-360 588,-546 82,-78 165,-155 253,-225 2544,-202 5103,17 7563,637 12,5 25,7 35,8 535,136 1066,292 1590,465 -2439,-616 -4931,-882 -7446,-232 -1354,350 -2654,979 -3674,1937 -2271,2130 -2711,5972 -774,8479 136,175 284,343 443,498 385,373 836,677 1356,887 2348,946 5342,-456 6367,-2709 505,-1105 531,-2443 -24,-3525 -879,-1712 -3219,-2495 -4792,-1212 -471,385 -872,1016 -795,1646 48,409 301,795 671,973 370,180 848,132 1155,-142 908,-812 -230,-1967 -1188,-1695 1032,-696 2389,-727 3451,-29 1181,779 1576,2274 1159,3577 -865,2706 -4411,3258 -6519,1745 -2264,-1624 -2446,-4763 -1079,-7002 1168,-1911 3242,-3075 5454,-3253 1902,-153 3849,257 5680,738 3057,804 5957,2160 8563,3946 -2048,-1162 -4363,-1691 -6719,-1689 53,-16 95,-31 119,-39 440,-163 165,-521 175,-897 -466,-82 -829,-356 -1011,220 -61,193 -220,443 -123,641l475 -309 -400 421 2 2c29,60 130,76 254,66 0,14 4,29 13,42 -97,3 -187,24 -256,86l428 371 -514 -267 -2 1c-144,131 242,720 320,827 279,376 546,14 911,-81 -45,-417 76,-799 -316,-890 2013,18 3985,486 5784,1370 -133,-36 -268,-70 -404,-100 -249,-60 -498,-109 -749,-147 -1670,-272 -3384,-144 -4757,938 -878,691 -1477,1640 -1584,2765 -102,1064 377,2140 1130,2872 1317,1281 3482,1157 4755,-20zm2842 -1312c5,-20 10,-40 16,-60 72,-259 282,-423 520,-502 -8,79 -10,157 -7,231 244,-153 485,-311 726,-471 -456,-208 -1114,-74 -1387,396 -113,195 -171,398 -184,597 106,-63 211,-127 316,-191zm3698 -2562c12,-33 23,-65 32,-99 92,-324 56,-669 -64,-979 -130,-339 -386,-593 -539,-916 -17,-31 -61,-29 -75,-2 -2,6 -3,12 -3,18 -6,195 -68,390 -139,566 -86,218 -180,431 -245,653 0,1 0,1 0,2 -1,0 -1,0 -1,1 -22,76 -41,151 -54,229 0,2 0,2 0,2 0,1 0,1 0,2 -1,5 -2,9 -2,15 -3,19 -6,39 -8,58 0,0 0,1 0,3 0,0 0,1 0,2 -16,159 5,320 54,472 0,2 1,2 1,2 0,1 0,2 0,2 65,194 176,373 320,520l116 -85c-49,-233 -86,-467 -58,-706 5,-39 10,-76 14,-114 0,-1 0,-2 2,-4 0,-1 0,-2 0,-3 6,-49 13,-99 21,-149 0,0 0,-1 0,-1 0,-1 0,-3 0,-4 20,-126 47,-254 85,-375 -14,127 -27,256 -35,384 0,1 0,1 0,2 0,0 0,0 0,1 -3,30 -4,59 -5,89 0,1 0,2 0,3 0,1 0,1 0,3 -3,64 -4,129 -1,194 3,170 23,341 69,508 7,27 16,55 26,81 164,-124 327,-250 489,-375zm2287 -1921c-908,-102 -1761,-562 -2310,-1426 -533,-836 -486,-1877 11,-2713 325,-548 887,-930 1492,-1028 -423,439 -634,1061 -421,1668 460,1319 2384,1086 2493,-315 45,-584 -279,-1163 -760,-1496 -480,-334 -1098,-438 -1678,-359 -1235,167 -2309,1186 -2537,2413 -274,1476 735,2979 2053,3583 305,140 625,238 953,295 237,-204 471,-412 704,-622zm-16386 -20438c440,344 695,911 548,1462 -98,369 -415,672 -779,786 501,-285 752,-934 599,-1548 -92,-370 -304,-647 -578,-845 72,43 142,91 210,145zm-10308 23964c968,2060 3191,3143 5404,2685 305,-61 599,-161 878,-289 -828,438 -1780,653 -2707,624 -1483,-47 -2623,-994 -3327,-2237 -471,-829 -713,-1731 -753,-2637 57,627 222,1253 505,1854zm13113 -16521c511,-374 1106,-574 1714,-618 -1069,262 -2068,957 -2580,1881 -1092,1973 2,4094 1303,5735 -876,-926 -1586,-1993 -1857,-3261 -308,-1429 246,-2875 1420,-3737zm1734 1087c91,-5 181,5 267,28 -56,-1 -113,1 -170,11 -980,159 -1526,1104 -1375,2044 44,269 146,509 290,716 -795,-970 -456,-2714 988,-2799zm12357 672c1015,-305 2393,-504 3067,524 313,476 146,1233 -412,1433 -219,79 -464,0 -654,-111 -87,-58 -151,-129 -195,-214 93,183 506,135 646,60 197,-105 313,-360 268,-579 -81,-402 -662,-590 -973,-334 -305,254 -334,770 -125,1089 -560,-204 -1157,-316 -1752,-335 -1313,-45 -2700,293 -3869,959 1082,-1172 2461,-2032 3999,-2492zm-14673 9159c-77,40 -107,134 -67,210 40,77 133,108 209,69 77,-38 109,-136 70,-212 -41,-78 -135,-107 -212,-67zm-1616 124c293,372 382,819 900,509 175,-104 461,-184 519,-395l-559 -87 578 -48 1 -2c51,-187 -589,-481 -711,-530 -437,-171 -469,279 -728,553zm1831 -1146c-26,-470 -449,-311 -805,-432 -215,421 -585,686 -88,1030 167,116 359,343 575,306l-153 -543 283 505 3 -1c192,-31 193,-733 185,-865zm-277 1393l2 1 -147 560 267 -498c180,125 161,421 201,620 121,591 -331,528 -778,681 -173,-335 -587,-515 -280,-870 86,-100 575,-606 735,-494zm-15714 -7089c-159,50 -248,218 -198,378 48,157 215,247 374,200 157,-48 250,-223 202,-378 -50,-160 -217,-250 -378,-200zm-3110 -313c431,804 448,1682 1537,1271 366,-137 936,-194 1118,-573l-1032 -356 1114 107 2 -5c162,-339 -953,-1114 -1168,-1246 -772,-475 -986,368 -1571,802zm3867 -1554c111,-899 -745,-743 -1382,-1094 -553,725 -1344,1105 -517,1925 277,275 566,771 987,778l-107 -1085 367 1056 5 0c375,7 616,-1329 647,-1580zm2182 558c-857,-313 -1453,-955 -1994,76 -181,345 -569,768 -452,1173l1006 -422 -901 661 1 5c104,360 1453,196 1701,153 891,-160 491,-932 639,-1646zm-2262 3711c400,813 1032,214 1757,159 63,-911 516,-1662 -625,-1896 -382,-78 -895,-333 -1253,-109l685 849 -885 -681 -4 2c-318,200 214,1450 325,1676zm-921 -1721l3 4 -469 1015 677 -856c298,298 162,856 170,1247 26,1163 -808,888 -1709,1027 -214,-696 -939,-1177 -235,-1748 196,-159 1298,-954 1563,-689zm12347 -2258c-106,32 -165,145 -132,251 31,106 143,164 249,133 104,-31 166,-146 134,-252 -33,-105 -145,-165 -251,-132zm-2071 -209c287,536 298,1120 1023,847 245,-91 624,-129 746,-382l-688 -236 741 70 1 -4c109,-224 -633,-739 -777,-828 -514,-316 -657,246 -1046,533zm2574 -1035c74,-597 -496,-494 -920,-727 -367,483 -894,736 -344,1283 185,183 377,512 658,517l-72 -723 245 703 3 0c249,6 410,-885 430,-1053zm1452 374c-570,-209 -967,-638 -1326,49 -121,229 -379,511 -302,781l670 -281 -599 440 0 3c70,240 966,131 1133,101 593,-106 326,-620 424,-1093zm-1505 2469c267,541 687,142 1169,104 43,-604 344,-1105 -414,-1260 -255,-52 -597,-222 -835,-73l455 566 -589 -454 -2 1c-212,134 141,965 216,1116zm-613 -1145l2 2 -312 674 450 -568c199,198 108,568 114,828 18,775 -538,592 -1138,684 -142,-460 -626,-783 -157,-1162 131,-106 865,-635 1041,-458zm10802 -10552c-386,1278 -1278,2202 276,2906 520,237 1170,768 1752,565l-701 -1436 1043 1261 7 -1c518,-182 165,-2139 80,-2499 -308,-1290 -1403,-640 -2457,-796zm5613 2395c1045,-817 -2,-1543 -298,-2564 -1324,178 -2535,-247 -2530,1457 2,572 -211,1383 218,1830l1013 -1236 -714 1473 5 5c382,396 2014,-738 2306,-965zm1678 2836c-561,-1211 -512,-2495 -2139,-1987 -545,170 -1384,206 -1683,747l1478 603 -1618 -247 -3 6c-265,482 1300,1708 1604,1920 1088,758 1472,-459 2361,-1042zm-6180 1500c-428,1257 846,1290 1654,1983 1008,-876 2255,-1187 1316,-2609 -315,-477 -582,-1272 -1185,-1410l-170 1588 -211 -1623 -6 -1c-536,-123 -1279,1722 -1398,2072zm826 -2734l0 5 -1535 566 1586 -185c0,616 -717,1053 -1112,1467 -1179,1230 -1758,82 -2834,-707 496,-940 246,-2191 1565,-2052 369,39 2332,355 2330,906z"/>
  <path class="fil2" d="M26893 62025l-14784 0 0 -45143 13740 0c1822,0 3545,277 5146,832 1612,557 2924,1446 3947,2668 1011,1235 1523,2736 1523,4514l0 4592c0,2456 -779,4513 -2357,6169 -1579,1667 -3691,2501 -6336,2501 -2124,0 -3680,-678 -4659,-2023 -366,411 -300,922 201,1545 500,622 1200,1179 2112,1678 912,501 1746,746 2512,746l8527 0 0 12150c0,3056 -900,5458 -2712,7181 -1813,1723 -4102,2590 -6860,2590zm-2568 -2635c1056,0 1968,-333 2735,-978 756,-656 1134,-1600 1134,-2835l0 -12795c-1501,0 -3136,-655 -4902,-1956 -1769,-1301 -2646,-3046 -2646,-5214 0,-1323 189,-2345 577,-3057 390,-723 1146,-1367 2247,-1956 399,66 700,323 911,767 223,445 145,856 -223,1245 -388,677 -377,1289 45,1834 422,534 945,811 1556,811 1624,0 2435,-1144 2435,-3424l0 -8170c0,-1111 -389,-2035 -1168,-2768 -777,-744 -1734,-1112 -2868,-1112l-3779 0 0 39608 3946 0z"/>
 </g>
</svg>
