<?xml version="1.0" encoding="UTF-8"?>
<!DOCTYPE svg PUBLIC "-//W3C//DTD SVG 1.1//EN" "http://www.w3.org/Graphics/SVG/1.1/DTD/svg11.dtd">
<!-- Creator: CorelDRAW X7 -->
<svg xmlns="http://www.w3.org/2000/svg" xml:space="preserve" width="42px" height="42px" version="1.1" style="shape-rendering:geometricPrecision; text-rendering:geometricPrecision; image-rendering:optimizeQuality; fill-rule:evenodd; clip-rule:evenodd"
viewBox="0 0 42000 42000"
 xmlns:xlink="http://www.w3.org/1999/xlink">
 <defs>
  <style type="text/css">
   <![CDATA[
    .fil0 {fill:#393185;fill-rule:nonzero}
   ]]>
  </style>
 </defs>
 <g id="Layer_x0020_1">
  <metadata id="CorelCorpID_0Corel-Layer"/>
  <path class="fil0" d="M20992 1009c-11028,0 -19983,8955 -19983,19983 0,11044 8955,19999 19983,19999 11044,0 19999,-8955 19999,-19999 0,-11041 -8955,-19983 -19999,-19983zm5176 19983l-3283 0 0 11993 -4491 0 0 -11993 -3002 0 0 -4122 3002 -14 -13 -2426c0,-3367 916,-5428 4894,-5428l3308 0 0 4134 -2077 0c-1537,0 -1621,585 -1621,1659l0 2061 3719 0 -436 4136z"/>
 </g>
</svg>
