<?xml version="1.0" encoding="UTF-8"?>
<!DOCTYPE svg PUBLIC "-//W3C//DTD SVG 1.1//EN" "http://www.w3.org/Graphics/SVG/1.1/DTD/svg11.dtd">
<!-- Creator: CorelDRAW X7 -->
<svg xmlns="http://www.w3.org/2000/svg" xml:space="preserve" width="42px" height="42px" version="1.1" style="shape-rendering:geometricPrecision; text-rendering:geometricPrecision; image-rendering:optimizeQuality; fill-rule:evenodd; clip-rule:evenodd"
viewBox="0 0 42000 42000"
 xmlns:xlink="http://www.w3.org/1999/xlink">
 <defs>
  <style type="text/css">
   <![CDATA[
    .fil0 {fill:#00629F}
   ]]>
  </style>
 </defs>
 <g id="Layer_x0020_1">
  <metadata id="CorelCorpID_0Corel-Layer"/>
  <path class="fil0" d="M21002 1009c-11042,0 -19994,8949 -19994,19992 0,11041 8952,19990 19994,19990 11040,0 19990,-8949 19990,-19990 0,-11043 -8950,-19992 -19990,-19992zm10139 22153c933,911 1918,1768 2754,2770 370,446 720,905 987,1422 380,735 36,1544 -623,1588l-4096 -2c-1057,88 -1899,-337 -2609,-1060 -567,-578 -1093,-1193 -1638,-1790 -223,-243 -457,-473 -737,-655 -559,-363 -1044,-252 -1364,331 -325,594 -399,1251 -431,1912 -44,965 -336,1218 -1304,1262 -2071,98 -4037,-216 -5862,-1260 -1610,-921 -2858,-2221 -3945,-3693 -2115,-2866 -3735,-6016 -5191,-9253 -328,-729 -88,-1121 717,-1135 1337,-26 2673,-24 4011,-2 543,8 903,320 1112,833 723,1778 1608,3469 2719,5037 295,418 597,835 1026,1129 476,325 837,217 1060,-312 143,-335 204,-697 237,-1057 105,-1236 119,-2470 -67,-3702 -113,-769 -547,-1267 -1314,-1412 -391,-75 -333,-220 -143,-444 329,-385 639,-625 1256,-625l4629 0c729,144 891,471 991,1205l4 5142c-8,284 142,1127 653,1314 410,134 679,-193 925,-453 1108,-1176 1899,-2566 2606,-4006 314,-633 583,-1291 845,-1948 194,-487 497,-727 1047,-717l4455 4c132,0 266,3 394,24 751,128 957,451 725,1185 -365,1150 -1077,2109 -1772,3072 -743,1028 -1538,2021 -2274,3055 -677,945 -624,1420 217,2241z"/>
 </g>
</svg>
