<?xml version="1.0" encoding="UTF-8"?>
<!DOCTYPE svg PUBLIC "-//W3C//DTD SVG 1.1//EN" "http://www.w3.org/Graphics/SVG/1.1/DTD/svg11.dtd">
<!-- Creator: CorelDRAW X7 -->
<svg xmlns="http://www.w3.org/2000/svg" xml:space="preserve" width="100px" height="150px" version="1.1" style="shape-rendering:geometricPrecision; text-rendering:geometricPrecision; image-rendering:optimizeQuality; fill-rule:evenodd; clip-rule:evenodd"
viewBox="0 0 100000 150000"
 xmlns:xlink="http://www.w3.org/1999/xlink">
 <defs>
  <style type="text/css">
   <![CDATA[
    .fil3 {fill:#7B7B7B}
    .fil0 {fill:#4F4F4F;fill-rule:nonzero}
    .fil1 {fill:#FF756F;fill-rule:nonzero}
    .fil2 {fill:white;fill-opacity:0.250980}
   ]]>
  </style>
 </defs>
 <g id="Layer_x0020_1">
  <metadata id="CorelCorpID_0Corel-Layer"/>
  <path class="fil0" d="M89932 -11l-80266 0c-4985,0 -9037,4053 -9037,9036l0 131929c0,4980 4052,9036 9037,9036l80266 0c4979,0 9034,-4056 9034,-9036l0 -131929c0,-4983 -4055,-9036 -9034,-9036zm-50035 9215l19802 0c944,0 1712,768 1712,1714 0,947 -768,1712 -1712,1712l-19802 0c-947,0 -1712,-765 -1712,-1712 0,-946 765,-1714 1712,-1714zm9932 134604c-2477,0 -4483,-2008 -4483,-4485 0,-2477 2006,-4482 4483,-4482 2477,0 4483,2005 4483,4482 0,2477 -2006,4485 -4483,4485zm41375 -13908c0,1205 -967,2191 -2145,2191l-78520 0c-1180,0 -2145,-986 -2145,-2191l0 -109627c0,-1207 967,-2191 2145,-2191l78520 0c1180,0 2145,984 2145,2191l0 109627z"/>
  <path class="fil1" d="M50001 111717c-213,5 -425,0 -640,-4 -63,2 -129,0 -190,4 -125,0 -250,-6 -375,-18 -12199,-396 -22909,-6768 -29295,-16273 -71,-79 -132,-169 -177,-267 -3828,-5804 -6053,-12754 -6042,-20211 14,-9809 3846,-19025 10791,-25949 6672,-6653 15451,-10426 24827,-10701 126,-11 269,-2 377,-18l3 0 3 0 3 0 3 0 3 0 3 0 4 0c57,0 116,3 173,5 194,-2 385,-2 581,-2 9808,13 19023,3844 25947,10791 6926,6945 10733,16171 10718,25978 -10,7452 -2253,14388 -6089,20178 -49,111 -117,211 -198,296 -6605,9763 -17785,16191 -30430,16191zm-1247 -2185c207,20 413,32 622,40 2030,-218 4203,-3788 5854,-9645 363,-1286 694,-2658 995,-4101l-14057 -18c294,1442 621,2814 982,4103 1574,5647 3640,9174 5604,9621zm9647 -13701c-331,1648 -705,3214 -1117,4676 -1091,3874 -2389,6784 -3847,8667 5884,-1406 11023,-6332 14475,-13331l-9511 -12zm-26374 -38c3038,6198 7401,10781 12437,12740 -1270,-1880 -2404,-4580 -3372,-8049 -406,-1464 -776,-3029 -1103,-4680l-7962 -11zm38212 54c-2333,5019 -5481,9134 -9155,11915 6618,-2245 12344,-6444 16486,-11905l-7331 -10zm-47867 -69c4126,5473 9838,9686 16450,11951 -3666,-2792 -6804,-6915 -9122,-11941l-7328 -10zm48787 -2063l7906 9c3300,-5107 5293,-11135 5500,-17606l-9960 -15c-132,6415 -1372,12424 -3446,17612zm-12360 -19l10087 14c2150,-5108 3447,-11137 3584,-17611l-12188 -17c-61,6301 -574,12330 -1483,17614zm-17036 -25l14870 23c928,-5246 1453,-11286 1514,-17614l-17847 -27c44,6330 550,12370 1463,17618zm-10702 -15l8537 13c-895,-5288 -1392,-11317 -1433,-17618l-10639 -17c119,6474 1401,12508 3535,17622zm-10178 -15l7904 11c-2058,-5192 -3281,-11203 -3396,-17620l-9960 -15c188,6474 2164,12508 5452,17624zm53726 -19673l9959 15c-175,-6122 -1934,-11972 -5082,-17080l-8031 -11c1957,5167 3048,10999 3154,17076zm-14323 -20l12188 16c-112,-6121 -1257,-11967 -3311,-17075l-10219 -15c837,5154 1300,10987 1342,17074zm-19982 -30l17847 27c-42,-6113 -517,-11953 -1372,-17073l-15055 -21c-872,5116 -1361,10956 -1420,17067zm-12774 -18l10639 16c56,-6086 538,-11917 1391,-17069l-8672 -13c-2068,5102 -3231,10946 -3358,17066zm-12097 -17l9960 14c125,-6075 1230,-11905 3204,-17067l-8032 -10c-3161,5098 -4938,10943 -5132,17063zm55146 -19127l7478 10c-1067,-1472 -2259,-2873 -3569,-4187 -3786,-3796 -8302,-6607 -13230,-8298 2314,1769 4447,4100 6323,6945 1128,1714 2129,3566 2998,5530zm-12013 -17l9665 15c-725,-1535 -1538,-2990 -2434,-4352 -3393,-5151 -7657,-8452 -12262,-9566 1453,1888 2742,4801 3822,8678 454,1622 857,3372 1209,5225zm-16450 -23l14276 21c-322,-1645 -687,-3201 -1091,-4650 -1633,-5858 -3797,-9433 -5823,-9659 -209,7 -417,19 -625,35 -1965,445 -4042,3964 -5632,9606 -409,1449 -777,3004 -1105,4647zm-10289 -15l8114 11c359,-1852 768,-3601 1224,-5221 978,-3469 2121,-6165 3396,-8041 -3840,1480 -7380,4518 -10288,8906 -899,1360 -1716,2813 -2446,4345zm-9826 -14l7478 10c874,-1962 1881,-3809 3015,-5521 1882,-2841 4024,-5166 6344,-6927 -4934,1676 -9459,4474 -13257,8262 -1312,1309 -2508,2706 -3580,4176z"/>
  <path class="fil2" d="M98966 9025l0 131929c0,4980 -4055,9036 -9034,9036l-40133 0 1301 -6365 1586 -7757 772 -3777 23310 -114009 3699 -18093 9465 0c4979,0 9034,4053 9034,9036z"/>
  <path class="fil3" d="M39897 12630l19802 0c944,0 1712,-765 1712,-1712 0,-946 -768,-1714 -1712,-1714l-19802 0c-947,0 -1712,768 -1712,1714 0,947 765,1712 1712,1712z"/>
  <path class="fil3" d="M45316 139323c0,-2477 2006,-4482 4483,-4482 1086,0 2082,386 2857,1027 993,822 1625,2064 1625,3455 0,2035 -1354,3754 -3211,4302 -403,119 -829,183 -1271,183 -2477,0 -4483,-2008 -4483,-4485z"/>
 </g>
</svg>
