<?xml version="1.0" encoding="UTF-8"?>
<!DOCTYPE svg PUBLIC "-//W3C//DTD SVG 1.1//EN" "http://www.w3.org/Graphics/SVG/1.1/DTD/svg11.dtd">
<!-- Creator: CorelDRAW X7 -->
<svg xmlns="http://www.w3.org/2000/svg" xml:space="preserve" width="270px" height="270px" version="1.1" style="shape-rendering:geometricPrecision; text-rendering:geometricPrecision; image-rendering:optimizeQuality; fill-rule:evenodd; clip-rule:evenodd"
viewBox="0 0 270000 270000"
 xmlns:xlink="http://www.w3.org/1999/xlink">
 <defs>
  <style type="text/css">
   <![CDATA[
    .fil0 {fill:#CC6666}
   ]]>
  </style>
 </defs>
 <g id="Layer_x0020_1">
  <metadata id="CorelCorpID_0Corel-Layer"/>
  <path class="fil0" d="M135000 -1c74559,0 135001,60442 135001,135001 0,74559 -60442,135001 -135001,135001 -74559,0 -135001,-60442 -135001,-135001 0,-74559 60442,-135001 135001,-135001zm44111 90890c1556,1556 4087,1556 5643,0l30084 -30072c1557,-1569 1557,-4087 0,-5643 -1555,-1555 -4086,-1555 -5642,0l-30085 30072c-1556,1556 -1556,4087 0,5643zm28439 -5880l-5645 -5643 -7076 7077c988,4682 -332,9744 -3955,13369 -5725,5710 -14978,5710 -20686,0 -5710,-5708 -5710,-14961 0,-20686 3625,-3623 8687,-4943 13353,-3955l7079 -7076 -5629 -5645c-3887,-3887 -44044,-3887 -47949,0l-80129 80130c-3888,3887 -3888,10206 0,14109l56398 56398c3903,3888 10222,3888 14109,0l80130 -80129c3900,-3905 3900,-44046 0,-47949zm-88395 86340c-808,2133 -2218,4228 -4247,6247 -2426,2426 -4890,3982 -7384,4640 -1779,449 -3557,489 -5364,81 -1794,-411 -3218,-1120 -4259,-2163 -606,-608 -910,-1332 -923,-2190 -15,-843 302,-1607 965,-2255 512,-512 1130,-804 1829,-830 702,-24 1505,158 2426,567 1094,462 2082,778 2981,952 885,169 1832,78 2835,-240 1003,-314 2029,-1013 3112,-2082 1474,-1475 2332,-3018 2570,-4628 224,-1608 -171,-2939 -1200,-3968 -818,-816 -1729,-1225 -2730,-1239 -1013,-13 -2043,236 -3099,765 -1053,514 -2397,1290 -4020,2306 -2186,1346 -4139,2349 -5893,2981 -1741,634 -3441,830 -5103,580 -1647,-262 -3189,-1107 -4612,-2533 -1345,-1345 -2188,-2924 -2491,-4719 -318,-1779 -54,-3653 774,-5618 832,-1977 2193,-3887 4089,-5784 1504,-1518 2993,-2626 4480,-3350 1479,-724 2891,-1146 4233,-1254 1347,-105 2532,16 3547,373 1017,338 1862,843 2507,1488 593,593 910,1346 973,2226 54,898 -236,1662 -858,2295 -578,567 -1146,843 -1723,872 -581,13 -1373,-144 -2374,-436 -1372,-489 -2638,-671 -3785,-568 -1145,106 -2410,844 -3798,2228 -1289,1293 -2042,2610 -2265,3970 -224,1357 65,2426 854,3216 490,499 1057,789 1677,872 632,90 1304,35 2029,-174 726,-223 1412,-489 2032,-830 618,-329 1633,-911 3019,-1741 1712,-1068 3322,-1963 4839,-2703 1515,-722 2954,-1212 4294,-1435 1348,-227 2664,-132 3971,277 1305,409 2571,1238 3809,2491 1490,1488 2442,3203 2863,5153 422,1951 222,4009 -580,6160zm25929 -24760l-13536 13551c-1098,1083 -2110,1624 -3062,1624 -960,-13 -1978,-554 -3045,-1624l-18494 -18495c-712,-726 -1188,-1410 -1437,-2072 -240,-672 -240,-1330 13,-1988 236,-662 712,-1346 1424,-2044l13156 -13156c790,-807 1555,-1216 2295,-1254 735,-27 1397,237 1965,805 589,580 856,1252 830,1991 -41,738 -450,1501 -1239,2291l-11236 11236 6042 6024 10334 -10323c766,-764 1502,-1162 2213,-1199 727,-28 1360,222 1914,789 568,567 831,1201 816,1924 -13,711 -407,1465 -1187,2242l-10333 10337 6998 6999 11615 -11612c778,-794 1556,-1187 2308,-1229 765,-37 1451,253 2055,857 580,580 843,1252 820,2005 -42,766 -449,1543 -1229,2321zm21911 -22889c-895,2097 -2305,4127 -4242,6051 -1927,1941 -3955,3338 -6104,4246 -2138,899 -4285,1292 -6435,1188 -2150,-118 -4271,-711 -6380,-1782 -2110,-1066 -4088,-2518 -5936,-4363 -1881,-1897 -3346,-3901 -4376,-6026 -1040,-2109 -1594,-4245 -1674,-6378 -78,-2135 330,-4231 1216,-6305 893,-2068 2281,-4032 4149,-5916 2547,-2544 5261,-4219 8122,-5010 2875,-790 5723,-712 8572,262 2844,961 5562,2730 8133,5313 1897,1899 3376,3876 4415,5960 1043,2055 1624,4178 1728,6354 104,2174 -290,4310 -1188,6406zm-10045 -13710c-1804,-1804 -3651,-3070 -5550,-3809 -1911,-740 -3744,-911 -5498,-502 -1752,397 -3335,1291 -4732,2688 -988,1003 -1728,2110 -2187,3338 -476,1213 -663,2491 -541,3811 91,1330 528,2713 1290,4192 753,1461 1831,2884 3216,4269 1401,1398 2834,2494 4327,3271 1474,779 2913,1211 4310,1320 1382,91 2677,-96 3875,-554 1213,-463 2308,-1188 3297,-2190 1279,-1279 2135,-2769 2558,-4469 436,-1715 304,-3547 -394,-5511 -713,-1950 -2032,-3902 -3971,-5854z"/>
 </g>
</svg>
