<?xml version="1.0" encoding="UTF-8"?>
<!DOCTYPE svg PUBLIC "-//W3C//DTD SVG 1.1//EN" "http://www.w3.org/Graphics/SVG/1.1/DTD/svg11.dtd">
<!-- Creator: CorelDRAW X7 -->
<svg xmlns="http://www.w3.org/2000/svg" xml:space="preserve" width="85px" height="85px" version="1.1" style="shape-rendering:geometricPrecision; text-rendering:geometricPrecision; image-rendering:optimizeQuality; fill-rule:evenodd; clip-rule:evenodd"
viewBox="0 0 85000 85000"
 xmlns:xlink="http://www.w3.org/1999/xlink"
 enable-background="new 0 0 182 118">
 <defs>
  <style type="text/css">
   <![CDATA[
    .fil0 {fill:#DCAD26}
    .fil1 {fill:#FAF1BD}
   ]]>
  </style>
 </defs>
 <g id="Layer_x0020_1">
  <metadata id="CorelCorpID_0Corel-Layer"/>
  <path class="fil0" d="M83448 53813c6267,-22626 -7010,-45994 -29635,-52261 -22626,-6268 -45994,7010 -52261,29635 -6267,22626 7010,45994 29635,52261 22626,6267 46100,-7010 52261,-29635z"/>
  <path class="fil1" d="M58805 10793c0,0 0,0 0,0l0 0zm8179 15189c531,744 956,1381 1488,2125 5310,8073 9985,18271 13702,29954 425,-1168 850,-2336 1274,-3612 -1593,-4461 -4248,-11258 -7754,-18588 -3930,-8073 -9985,-19014 -16676,-25174l0 0 0 0c-4250,-4037 -9241,-6267 -14659,-7330 -2444,-424 -5099,-531 -7648,-318 -2443,213 -4992,956 -7542,1805 -2868,956 -5417,2231 -8073,4037 -2655,1699 -4674,3612 -6797,5948 -4356,4886 -7224,10517 -8180,16358 -850,5099 -531,9667 1487,14446 2231,5206 6055,10092 11473,14234l3823 2868c7860,5949 23263,17526 27937,21457 955,-212 1806,-425 2761,-638 -8604,-6798 -16465,-12746 -22944,-18269 -743,-638 -1487,-1276 -2124,-1912 -6798,-5842 -11897,-11260 -14446,-16678 -11260,-24112 9241,-42913 29954,-38346 8179,1806 16040,8073 22944,17633zm-38558 37497c743,638 1381,1274 2123,1912 17528,-8179 30062,-20607 37816,-37178 -531,-744 -957,-1487 -1487,-2125 -7754,16678 -20500,29105 -38452,37391z"/>
 </g>
</svg>
