<?xml version="1.0" encoding="UTF-8"?>
<!DOCTYPE svg PUBLIC "-//W3C//DTD SVG 1.1//EN" "http://www.w3.org/Graphics/SVG/1.1/DTD/svg11.dtd">
<!-- Creator: CorelDRAW X7 -->
<svg xmlns="http://www.w3.org/2000/svg" xml:space="preserve" width="125px" height="65px" version="1.1" style="shape-rendering:geometricPrecision; text-rendering:geometricPrecision; image-rendering:optimizeQuality; fill-rule:evenodd; clip-rule:evenodd"
viewBox="0 0 125000 64999"
 xmlns:xlink="http://www.w3.org/1999/xlink">
 <defs>
  <style type="text/css">
   <![CDATA[
    .fil2 {fill:#454545}
    .fil1 {fill:#454545;fill-rule:nonzero}
    .fil0 {fill:#858585;fill-rule:nonzero}
   ]]>
  </style>
 </defs>
 <g id="Layer_x0020_1">
  <metadata id="CorelCorpID_0Corel-Layer"/>
  <path class="fil0" d="M2379 676l0 27152 10990 0c3764,0 6731,-1178 8936,-3498 2245,-2358 3347,-5743 3347,-10154 0,-4373 -1141,-7758 -3384,-10078 -2245,-2281 -5248,-3422 -9014,-3422l-10875 0zm4753 23159l0 -19128 4791 0c3081,0 5325,760 6769,2319 1484,1522 2207,3994 2207,7454 0,3194 -723,5553 -2169,7073 -1444,1521 -3459,2282 -6008,2282l-5590 0z"/>
  <path id="1" class="fil0" d="M35121 27828l0 -10077c0,-2016 532,-3689 1598,-4982 1102,-1255 2661,-1902 4715,-1902 570,0 1216,0 1673,115l0 -4298c-342,-113 -913,-151 -1331,-151 -1483,0 -2852,418 -4069,1254 -1255,838 -2167,1977 -2777,3423l-75 0 0 -4221 -4297 0 0 20839 4563 0z"/>
  <path id="2" class="fil0" d="M54972 6418c-6465,0 -10192,5096 -10192,11028 0,6389 3765,10991 10039,10991 4602,0 7910,-2396 9431,-6199l-4334 0c-951,1559 -2587,2625 -5058,2625 -3347,0 -5400,-2549 -5514,-6314l15401 0 0 -836c0,-6085 -3270,-11295 -9773,-11295zm-5628 9051c418,-3195 2206,-5515 5475,-5515 3271,0 5020,2245 5325,5515l-10800 0z"/>
  <path id="3" class="fil0" d="M88969 24824c-266,114 -532,152 -799,152 -798,0 -1102,-380 -1102,-1254l0 -11258c0,-3802 -2776,-6046 -8595,-6046 -5134,0 -8898,1977 -9316,6351l4601 0c191,-1977 1635,-3156 4411,-3156 3157,0 4298,1179 4298,3346 0,1712 -1066,2205 -2625,2396 -3726,494 -7453,722 -9506,2358 -1256,1027 -1902,2510 -1902,4525 0,2015 646,3536 1902,4564 1254,1102 2965,1635 5133,1635 1560,0 2967,-266 4145,-761 1179,-494 2245,-1369 3119,-2472l37 0c305,2244 1559,2967 3538,2967 912,0 1597,-77 2661,-343l0 -3004zm-6502 -4943c0,1672 -533,2965 -1559,3916 -989,913 -2320,1369 -3994,1369 -1141,0 -2054,-266 -2775,-761 -800,-570 -1180,-1368 -1180,-2395 0,-1977 1370,-2967 4146,-3461l3613 -608c836,-152 1406,-380 1711,-723l38 0 0 2663z"/>
  <path id="4" class="fil0" d="M124146 27828l0 -14184c0,-4564 -2472,-7226 -7339,-7226 -2700,0 -4907,1294 -6428,3689 -913,-2395 -3004,-3689 -6046,-3689 -2815,0 -4982,1217 -6541,3651l-76 0 0 -3080 -4298 0 0 20839 4602 0 0 -12054c0,-1712 418,-3120 1255,-4146 874,-1026 2015,-1521 3422,-1521 2700,0 3765,1483 3765,4373l0 13348 4602 0 0 -11864c0,-3803 1482,-5857 4487,-5857 3233,0 4031,2016 4031,4906l0 12815 4564 0z"/>
  <path class="fil1" d="M2379 31464l0 27152 10990 0c3764,0 6731,-1178 8936,-3498 2245,-2357 3347,-5743 3347,-10154 0,-4373 -1141,-7758 -3384,-10077 -2245,-2282 -5248,-3423 -9014,-3423l-10875 0zm4753 23159l0 -19128 4791 0c3081,0 5325,761 6769,2320 1484,1521 2207,3993 2207,7454 0,3193 -723,5552 -2169,7072 -1444,1521 -3459,2282 -6008,2282l-5590 0z"/>
  <path id="1" class="fil1" d="M49990 55612c-266,114 -532,152 -799,152 -798,0 -1102,-380 -1102,-1254l0 -11257c0,-3803 -2777,-6047 -8595,-6047 -5134,0 -8898,1978 -9316,6351l4601 0c190,-1977 1635,-3156 4410,-3156 3158,0 4299,1179 4299,3346 0,1712 -1066,2206 -2625,2396 -3726,495 -7453,723 -9507,2358 -1255,1027 -1901,2510 -1901,4525 0,2015 646,3537 1901,4564 1255,1102 2966,1635 5133,1635 1561,0 2967,-266 4146,-761 1179,-494 2244,-1369 3118,-2472l38 0c305,2244 1559,2967 3538,2967 911,0 1596,-77 2661,-343l0 -3004zm-6502 -4943c0,1672 -533,2966 -1560,3916 -988,913 -2319,1369 -3993,1369 -1141,0 -2054,-266 -2776,-760 -799,-571 -1179,-1369 -1179,-2396 0,-1977 1370,-2967 4145,-3460l3613 -609c837,-152 1407,-380 1712,-722l38 0 0 2662z"/>
  <path id="2" class="fil1" d="M63795 37206c-6732,0 -10383,5135 -10383,11181 0,6236 4184,10838 10268,10838 5324,0 8708,-3118 9431,-7643l-4411 0c-494,2433 -2205,4069 -5020,4069 -4069,0 -5704,-3956 -5704,-7379 0,-3649 1825,-7529 5781,-7529 2700,0 4297,1217 4715,3347l4525 0c-609,-4564 -4411,-6884 -9202,-6884z"/>
  <path id="3" class="fil1" d="M96461 58616l0 -13234c0,-5513 -2282,-8176 -7568,-8176 -2662,0 -5247,1484 -6351,3727l-114 0 0 -11104 -4563 0 0 28787 4563 0 0 -11484c0,-3917 1711,-6237 5210,-6237 3004,0 4259,1826 4259,5362l0 12359 4564 0z"/>
  <path id="4" class="fil1" d="M121939 55612c-266,114 -532,152 -799,152 -798,0 -1102,-380 -1102,-1254l0 -11257c0,-3803 -2777,-6047 -8595,-6047 -5134,0 -8898,1978 -9317,6351l4602 0c190,-1977 1635,-3156 4410,-3156 3158,0 4298,1179 4298,3346 0,1712 -1065,2206 -2624,2396 -3726,495 -7453,723 -9507,2358 -1255,1027 -1901,2510 -1901,4525 0,2015 646,3537 1901,4564 1255,1102 2966,1635 5133,1635 1561,0 2967,-266 4146,-761 1179,-494 2244,-1369 3118,-2472l38 0c305,2244 1559,2967 3537,2967 912,0 1597,-77 2662,-343l0 -3004zm-6503 -4943c0,1672 -532,2966 -1559,3916 -988,913 -2319,1369 -3993,1369 -1141,0 -2054,-266 -2776,-760 -799,-571 -1180,-1369 -1180,-2396 0,-1977 1371,-2967 4146,-3460l3613 -609c836,-152 1407,-380 1712,-722l37 0 0 2662z"/>
  <rect class="fil2" y="62175" width="125001" height="2000"/>
 </g>
</svg>
