<?xml version="1.0" encoding="UTF-8"?>
<!DOCTYPE svg PUBLIC "-//W3C//DTD SVG 1.1//EN" "http://www.w3.org/Graphics/SVG/1.1/DTD/svg11.dtd">
<!-- Creator: CorelDRAW X7 -->
<svg xmlns="http://www.w3.org/2000/svg" xml:space="preserve" width="85px" height="85px" version="1.1" style="shape-rendering:geometricPrecision; text-rendering:geometricPrecision; image-rendering:optimizeQuality; fill-rule:evenodd; clip-rule:evenodd"
viewBox="0 0 85000 85000"
 xmlns:xlink="http://www.w3.org/1999/xlink">
 <defs>
  <style type="text/css">
   <![CDATA[
    .fil0 {fill:#858585;fill-rule:nonzero}
   ]]>
  </style>
 </defs>
 <g id="Layer_x0020_1">
  <metadata id="CorelCorpID_0Corel-Layer"/>
  <g id="_322013488">
   <path class="fil0" d="M42500 -1c11736,0 22361,4757 30052,12449 7692,7691 12449,18316 12449,30052 0,11736 -4757,22361 -12449,30052 -7691,7692 -18316,12448 -30052,12448 -11736,0 -22361,-4756 -30052,-12448 -7692,-7691 -12449,-18316 -12449,-30052 0,-11736 4757,-22361 12449,-30052 7691,-7692 18316,-12449 30052,-12449zm26914 15587c-6888,-6887 -16403,-11147 -26914,-11147 -10511,0 -20026,4260 -26914,11147 -6888,6888 -11147,16403 -11147,26914 0,10511 4259,20026 11147,26914 6888,6888 16403,11149 26914,11149 10511,0 20026,-4261 26914,-11149 6888,-6888 11147,-16403 11147,-26914 0,-10511 -4259,-20026 -11147,-26914z"/>
   <path class="fil0" d="M27692 15714c4696,270 8588,3644 11456,8231 3469,5552 5484,13021 5484,18555 0,9712 -1684,16280 -4631,20491 -3157,4510 -7608,6313 -12922,6313 -9381,0 -11024,-5620 -11312,-7592 -123,-836 -179,-672 590,-684l2815 -45c1138,-17 608,-171 942,795 410,1186 1857,3262 6967,3262 3937,0 7198,-1279 9439,-4480 2450,-3499 3849,-9267 3849,-18060 0,-4850 -1776,-11412 -4835,-16306 -2136,-3419 -4857,-5945 -7917,-6212 -662,-57 -536,99 -536,-629l0 -3006c0,-733 -135,-676 611,-633l0 0z"/>
   <path class="fil0" d="M40734 24562c-1108,-704 -3125,-1307 -5250,-1307 -970,0 -1923,130 -2762,443 -782,290 -1492,744 -2054,1407 -890,1044 -1457,2664 -1457,5058 0,3507 1719,5248 3998,6107 2693,1015 6306,1015 9160,1015 7671,0 8558,-5435 9368,-10400 950,-5826 1825,-11189 9266,-11189 4720,0 5175,3879 5208,4995 12,359 61,297 -264,287l-3763 -134c-340,-12 -165,31 -258,-289 -75,-256 -293,-597 -923,-597 -3829,0 -4424,3648 -5070,7608 -1089,6674 -2281,13981 -13564,13981 -3183,0 -7216,0 -10658,-1298 -3857,-1453 -6764,-4338 -6764,-10086 0,-3505 964,-6033 2474,-7808 1065,-1254 2383,-2104 3817,-2637 1377,-513 2831,-727 4246,-727 3033,0 6077,1010 7819,2180 703,473 633,356 128,951l-2022 2391c-374,442 -207,348 -676,49l1 0z"/>
   <path class="fil0" d="M47650 61691c-280,1953 -1903,7612 -11318,7612 -5253,0 -8830,-1239 -11178,-3739 -2334,-2488 -3268,-6047 -3275,-10732l-8 0 0 -33c0,-7045 3534,-11460 7957,-14117 4218,-2533 9267,-3384 12638,-3390l0 -8 34 0c11360,0 12482,9169 13507,17546 651,5316 1250,10209 4996,10209 3111,0 3831,-2390 3996,-3499 103,-685 -135,-553 609,-548l3231 25c586,4 489,-93 420,608 -187,1907 -1326,7678 -8254,7678 -7519,0 -8338,-6690 -9227,-13956 -807,-6588 -1689,-13800 -9278,-13800l-33 0 0 -8c-2800,4 -6985,705 -10456,2789 -3266,1962 -5878,5234 -5878,10470l0 34 -8 0c6,3592 613,6203 2127,7818 1501,1598 4081,2390 8080,2390 5471,0 6743,-2382 7040,-3502 177,-669 -126,-570 580,-559l3176 49c700,12 635,-129 522,663l0 0z"/>
  </g>
 </g>
</svg>
