<?xml version="1.0" encoding="UTF-8"?>
<!DOCTYPE svg PUBLIC "-//W3C//DTD SVG 1.1//EN" "http://www.w3.org/Graphics/SVG/1.1/DTD/svg11.dtd">
<!-- Creator: CorelDRAW X7 -->
<svg xmlns="http://www.w3.org/2000/svg" xml:space="preserve" width="260px" height="85px" version="1.1" style="shape-rendering:geometricPrecision; text-rendering:geometricPrecision; image-rendering:optimizeQuality; fill-rule:evenodd; clip-rule:evenodd"
viewBox="0 0 260000 85000"
 xmlns:xlink="http://www.w3.org/1999/xlink">
 <defs>
  <style type="text/css">
   <![CDATA[
    .fil2 {fill:black}
    .fil0 {fill:#DB3427}
    .fil1 {fill:white}
   ]]>
  </style>
 </defs>
 <g id="Layer_x0020_1">
  <metadata id="CorelCorpID_0Corel-Layer"/>
  <g id="_228762208">
   <g>
    <path class="fil0" d="M146081 12800c-4383,847 -9786,676 -13791,1901 3251,-2826 8873,-4206 13791,-1901z"/>
    <path class="fil0" d="M115647 19932c466,2051 -1787,1385 -1904,2855 -999,-725 505,-2955 1904,-2855z"/>
    <path class="fil0" d="M168431 24690c1636,585 1643,2792 1902,4754 -1791,-428 -1799,-2638 -1902,-4754z"/>
    <path class="fil0" d="M100905 25640c791,0 1585,0 2377,0 338,2396 -1753,2366 -1904,4279 -1077,-506 -181,-2990 -473,-4279z"/>
    <path class="fil0" d="M155117 25640c1060,1314 1849,2904 2376,4755 -585,206 -976,608 -951,1426 -985,-1614 -3497,-4377 -1426,-6183l1 2z"/>
    <path class="fil0" d="M118022 27542c-633,1206 -2108,-698 -3327,-477 384,-1794 2446,-34 3327,477z"/>
    <path class="fil0" d="M176040 29443c1240,1273 94,4194 0,5707 -1068,-1097 -381,-4479 0,-5707z"/>
    <path class="fil0" d="M123732 30395c2005,810 -3,2797 -1904,3803 104,-1795 1495,-2308 1904,-3803z"/>
    <path class="fil0" d="M147510 30395c1202,539 1377,2109 1423,3803 -421,-369 -1072,-509 -1900,-473 -383,-1650 708,-1828 477,-3330z"/>
    <path class="fil0" d="M152263 30872c1430,1320 2947,4099 1425,5705 -961,-1535 -3089,-4380 -1425,-5705z"/>
    <path class="fil0" d="M102330 32772c-561,1185 221,3708 -1425,3805 144,-1597 -637,-4122 1425,-3805z"/>
    <path class="fil0" d="M146557 34675c1660,-190 1702,3965 2851,1427 638,313 887,1016 952,1901 -1254,649 -3242,563 -4755,951 39,-1703 739,-2748 952,-4279l0 0z"/>
    <path class="fil0" d="M117548 37053c62,852 -741,2905 -637,3804 -1423,0 -3490,475 -4119,-1903 448,-1773 3072,-1366 4756,-1901l0 0z"/>
    <path class="fil0" d="M151312 39905c-386,2311 -3905,1486 -6184,1903 1148,-1550 4189,-1204 6184,-1903z"/>
    <path class="fil0" d="M105183 41332c3328,478 6908,701 9989,1425 362,2582 -589,6028 -477,8357 -1634,-208 -2667,-1987 -3803,-1696 -765,-1485 823,-4072 475,-6661 -1599,1100 -1513,3879 -1429,6661 -1108,0 -2216,0 -3329,0 -1399,-1562 -2660,-5432 -1426,-8086z"/>
    <path class="fil0" d="M161773 42283c1963,278 2725,3689 2378,4755 -1817,-558 -1974,-2779 -2378,-4755z"/>
    <path class="fil0" d="M117548 44664c817,610 3536,2645 3568,4040 -713,555 -3129,1304 -3563,2139 -1509,-1088 134,-4895 -5,-6179z"/>
    <path class="fil0" d="M135620 46563c-124,1463 -1034,2141 -1427,3328 -925,-651 -125,-3580 1427,-3328z"/>
    <path class="fil0" d="M158922 46563c879,1338 2003,2434 2375,4280 -1524,-575 -3262,-2801 -2375,-4280z"/>
    <path class="fil0" d="M123732 50367c-691,1689 -2938,1820 -5232,1903 973,-1403 3413,-1342 5232,-1903z"/>
    <path class="fil0" d="M176199 43565c-2094,1709 -308,-6632 -1423,-16167 -415,-1841 2074,-778 1423,-2853 -3569,-14300 -20959,-25042 -35188,-22828 -10476,-2192 -24354,-557 -32813,3331 -615,1442 -895,3223 -1426,4755 -5771,3161 -13123,8097 -12840,15692 -608,815 -2844,11 -2852,1427 3956,4396 -3659,26305 -2905,28105 224,1528 3210,8673 3380,11842 1312,588 2415,1386 4280,1426 6488,8843 17948,16567 33287,16643 19453,98 43596,-9059 48030,-21876 2349,-6792 -459,-14201 -953,-19497l0 0zm-5226 -11886l0 0c-1793,-429 -1802,-2639 -1904,-4756 1634,584 1643,2795 1904,4756zm-2381 -6658l0 0c-1885,-1284 -3141,-3199 -3804,-5706 2302,865 3162,3178 3804,5706zm-21873 -9988l0 0c-4386,847 -9787,678 -13792,1902 3250,-2827 8871,-4204 13792,-1902zm-13315 -7607l0 0c-1456,1553 -3627,2396 -5231,3804 512,2414 -879,2924 -1902,3803 -942,-1436 -2153,-2604 -3328,-3803 3470,-1285 6357,-3151 10461,-3804zm-9513 65624l0 0c6059,240 14025,-1001 19024,-3327 808,-177 896,369 951,950 -5194,4720 -14492,6042 -19975,2377zm0 -6657l0 0c3320,-1544 6025,-807 9513,-1902 -1727,1840 -7413,3442 -9513,1902zm32813 -13790l0 0c-6740,4830 -12707,10436 -22350,12364 8286,-4238 15596,-13100 19965,-21249 -11864,-3109 -12143,3321 -12319,9328 -2815,1144 -7707,9286 -13827,8118 2112,-2009 5331,-2912 7607,-4758 -663,-1392 -2082,-9654 -474,-13790 -1878,1402 -7753,6999 -6436,11634 -1681,222 -2932,-1307 -4132,-605 -9487,2408 -28807,-16362 -28904,-26247 2667,-449 1956,2484 2852,3805 841,-11490 9433,-18582 19498,-22351 -5545,5708 -12051,10458 -17121,16643 4196,232 6905,-2042 9990,-4279 -743,1794 -1854,3220 -2855,4754 5204,821 11513,534 15218,2855 2682,-2075 2454,-7057 7608,-6659 -1988,2292 -3407,5153 -5231,7610 1490,1521 2385,1285 2102,4579 -1340,1351 -2944,2652 -6067,2223 -1143,600 -797,4287 -1741,5086 2479,1641 6398,1845 7607,4755 4793,-7413 7634,-16777 14744,-21873 2093,-193 1524,2278 4279,1425 -207,1059 -1092,2579 478,2855 54,-2434 2815,-3227 1900,-5230 -449,-2086 -5009,-67 -6181,-1429 1672,-2448 9180,938 8086,-4280 3527,1293 5621,4871 949,6184 1529,1273 682,2105 1901,3328 2806,-298 221,-1615 477,-3328 5951,1342 6991,9248 9511,14265 2282,4543 1148,9472 2892,15615 -615,655 -2465,7349 -3729,7352 631,-9032 -3958,-5805 -6297,-8699l0 -1zm-42321 -27582l0 0c-1000,-727 499,-2954 1901,-2855 465,2051 -1786,1385 -1901,2855zm46124 48505l0 0c-555,-2127 3564,-4052 5232,-6657 2211,-3452 4033,-8019 5707,-11415 2471,8357 -4513,15447 -10938,18072l-1 0z"/>
    <path class="fil0" d="M106136 27923c5447,-1647 9573,1520 11888,3804 -2131,3769 -7738,6487 -12840,5708 -224,-3711 544,-6431 952,-9512z"/>
   </g>
   <g>
    <path class="fil1" d="M101105 26838c793,0 1585,0 2380,0 -1587,3137 17,7463 -2380,9515 61,-4142 263,-5583 0,-9515z"/>
    <path class="fil2" d="M72574 36827c-5917,5020 -10307,11568 -15217,17594 -1741,-1022 -2940,-1780 -4755,-471 -5595,-5419 -10680,-20312 -4756,-28536 1346,78 1980,872 3328,952 125,5581 1245,10168 1904,15217 1528,-5445 1801,-12149 3329,-17596 8431,-125 2469,11103 3804,15692 6502,-4436 10630,-11243 17119,-15692 2762,1741 6367,-306 9034,1427 431,1793 844,3595 1429,5232 1610,-2453 -1251,-6450 1426,-7612 6346,6456 2433,20131 1426,29962 329,1582 -983,765 -1426,475 -259,690 556,2458 -475,2375 -553,-76 -847,106 -951,476 -2492,-1267 -1688,-2995 -3804,-4755 0,-3804 0,-7607 0,-11413 -2200,4637 -600,10747 -2379,15218 -2862,46 -2720,1660 -5706,950 -523,-7337 1264,-12367 1426,-19020 -5180,3697 -8819,13053 -14742,17594 -465,-643 -1268,-948 -1901,-1425 3245,-6264 8127,-10894 11889,-16645l-2 1zm8085 6181l0 0c197,-3611 2191,-7944 950,-11413 -121,3692 -2138,7999 -950,11413zm8084 3803l0 0c-398,-5146 -75,-9410 -951,-14740 -624,4443 -858,11292 951,14740z"/>
    <path class="fil2" d="M196690 29219c1668,-549 2569,-1873 4754,-1903 553,703 -5556,4725 -6109,5429 3276,-285 11559,-6469 13244,-4955 1030,992 -8367,4113 -8785,4955 1184,-53 9782,-3466 10688,-2575 -3624,3512 -9744,4522 -14741,6657 3500,6006 8852,10168 11887,16645 -425,209 -850,420 -952,949 -2898,-109 -3011,-3007 -5231,-3805 -616,1166 -2863,2919 -3803,952 -1208,1332 2891,3395 475,4756 -6044,-4102 -8597,-11690 -13791,-16643 -2893,1861 273,9785 -2854,11413 -1398,-185 -928,-2243 -1901,-2854 -1156,1727 1238,5326 -2853,4758 363,-4011 -737,-6557 -478,-10466 -2971,1149 382,8627 -3803,8562 1239,-9222 795,-20130 3331,-28059 672,44 1346,80 1426,-472 1332,724 2635,1483 2854,3329 1180,-565 2797,-689 4278,-952 676,2367 78,5670 -473,9036 5515,-2271 10613,-7426 15693,-8560 1221,1814 -2425,2137 -2855,3805l-1 -2z"/>
    <path class="fil2" d="M29775 22563c3082,1354 4220,4656 6183,7132 1063,-1254 -1227,-3192 -952,-5232 856,62 1004,-580 1904,-476 5836,6958 6053,19199 6180,29963 -4907,-799 -2926,-8489 -4279,-12843 -1530,2516 -295,9985 475,13314 -1499,-234 -1679,860 -3328,475 -1121,-3470 -1128,-8065 -1427,-12365 -2504,3931 811,9877 -475,13317 -769,-133 -818,450 -1425,476 -3898,-2174 -729,-9036 -1430,-13793 -3962,0 -7925,0 -11887,0 -145,5059 1267,8565 1903,12842 -614,656 -2066,472 -3330,475 -1774,-3574 -1307,-8249 -2379,-13317 -4003,1442 2748,10523 -4278,9989 -74,-3189 -318,-7882 -952,-9989 -1121,-8 -1400,820 -2851,477 65,4213 1812,6745 1425,11413 -854,-58 -1005,583 -1901,476 -4590,-2081 -758,-9919 -5710,-11889 2980,-5716 930,-15658 1907,-19973 792,0 1584,0 2375,0 1384,4408 1277,7716 1428,12841 1121,612 883,-62 2375,477 1499,-2714 -1942,-9243 -1424,-12365 1985,-878 3020,793 6658,0 1756,3865 2737,6250 3803,12365 2950,2104 8001,46 11413,950 1073,-3876 -1229,-10707 0,-14740l-1 0zm-22349 17592l0 0c826,-437 2551,16 2376,-1429 -837,277 -2794,-570 -2854,477 371,106 556,400 478,952z"/>
    <path class="fil2" d="M141528 23035c1656,248 1895,1908 4279,1428 940,328 -117,2655 951,2853 890,-2123 1609,-4413 4755,-4281 3235,4849 4717,11455 8562,15691 145,-5243 -5426,-11342 -6185,-15691 951,0 1904,0 2853,0 5073,9988 10268,19853 13790,31386 -1545,928 -2897,1076 -3803,-471 -449,1136 -1240,1926 -2377,2374 -1776,-603 -1953,-2802 -2855,-4280 -2209,488 1189,2934 -473,4280 -5899,-1076 -5334,-8618 -8561,-12364 -2323,212 -4093,980 -6657,952 -3431,1639 -738,9404 -5231,9984 -1014,225 -906,-676 -950,-1424 -1645,414 -3122,998 -3805,2376 -1257,-170 -428,-2423 -1427,-2852 -2027,189 -1029,3409 -3805,2852 1895,-12695 8259,-20910 10940,-32814l-1 1zm13313 15691l0 0c717,-3254 -2180,-7004 -3803,-9507 666,3773 1378,7497 3803,9507zm-9035 1429l0 0c1717,-185 3189,-614 4757,-952 -1249,-1919 -831,-5506 -2853,-6655 -289,2882 -1556,4788 -1904,7607zm14742 9513l0 0c-1995,-1335 -926,-5732 -3804,-6184 5,3020 2035,6514 3804,6184zm4755 1426l0 0c-694,-2793 -856,-6116 -3329,-7133 1200,2290 1445,5529 3329,7133z"/>
    <path class="fil2" d="M99203 23035c1106,166 2231,310 1902,1905 2458,234 2211,-2231 4757,-1905 4268,4481 19917,1119 21875,8084 2415,8596 -9504,5264 -14267,8562 7289,791 16942,3396 14743,10935 -1644,5636 -26182,8517 -31860,2380 2045,-7276 -989,-17772 -955,-26630 2282,-539 1675,1812 2854,2376 1290,-933 -291,-4730 951,-5708l0 1zm1902 13318l0 0c2397,-2051 793,-6378 2380,-9515 -795,0 -1587,0 -2380,0 263,3932 61,5373 0,9515zm4281 950l0 0c6643,462 10282,-2081 12840,-5708 -3380,-1692 -7164,-2979 -11414,-3805 -1142,2505 -1320,5972 -1426,9513zm16643 -1903l0 0c1497,228 1861,-677 2853,-948 -111,-2110 -509,-3933 -2376,-4282 709,1557 -386,3155 -477,5230zm-17118 7608l0 0c-119,3289 589,5754 1901,7608 5533,-380 9533,-635 12840,-2376 -1448,-4923 -9647,-5530 -14741,-5232z"/>
    <path class="fil2" d="M255656 23987c769,-132 818,449 1428,476 785,9489 1683,17713 1427,29487 -2294,-75 -1585,2850 -3805,2850 -3105,-152 -235,-3316 -3330,-3328 -616,-3824 -492,-8382 -473,-12839 -1826,4196 -599,11449 -2377,15689 -2869,-597 -3361,1910 -5708,478 -9,-6982 1039,-12911 1902,-19021 -3367,1733 -5575,6043 -8085,9509 -2271,3143 -4402,8695 -8560,7133 1503,-5651 7631,-10741 10938,-16165 -5786,4514 -9792,10812 -14269,16640 -2659,-650 -2692,-1619 -5227,-475 -5587,-5528 -10077,-19329 -5232,-28055 1791,-366 2273,576 3803,472 342,6324 1344,9652 1902,16170 2216,-5785 914,-13758 4280,-18545 7407,1479 1240,11509 3331,16170 5460,-5476 10670,-11201 16643,-16170 3592,1885 11960,-97 9985,6656 2756,-1111 -911,-6183 1426,-7132l1 0zm-8085 19974l0 0c110,-3858 2327,-8131 955,-11890 41,4014 -2123,8337 -955,11890zm8085 3803l0 0c-418,-5979 527,-10874 -950,-15216 -278,4677 -933,10577 950,15216z"/>
   </g>
  </g>
 </g>
</svg>
