<?xml version="1.0" encoding="UTF-8"?>
<!DOCTYPE svg PUBLIC "-//W3C//DTD SVG 1.1//EN" "http://www.w3.org/Graphics/SVG/1.1/DTD/svg11.dtd">
<!-- Creator: CorelDRAW X7 -->
<svg xmlns="http://www.w3.org/2000/svg" xml:space="preserve" width="85px" height="85px" version="1.1" style="shape-rendering:geometricPrecision; text-rendering:geometricPrecision; image-rendering:optimizeQuality; fill-rule:evenodd; clip-rule:evenodd"
viewBox="0 0 85000 85000"
 xmlns:xlink="http://www.w3.org/1999/xlink">
 <defs>
  <style type="text/css">
   <![CDATA[
    .fil2 {fill:none}
    .fil1 {fill:#4FA800}
    .fil4 {fill:#85360F}
    .fil0 {fill:#EF7F1A}
    .fil3 {fill:#85360F;fill-rule:nonzero}
   ]]>
  </style>
 </defs>
 <g id="Layer_x0020_1">
  <metadata id="CorelCorpID_0Corel-Layer"/>
  <g id="_355192592">
   <rect class="fil0" x="23023" y="519" width="2731" height="8192" rx="14661" ry="24189"/>
   <rect class="fil0" transform="matrix(0.107497 -0.0620639 0.1024 0.177363 11719.8 4279.65)" width="21999" height="40001" rx="118111" ry="118111"/>
   <rect class="fil0" transform="matrix(0.0620636 -0.107498 0.177363 0.102401 3811.06 13187.9)" width="21999" height="40001" rx="118111" ry="118111"/>
   <rect class="fil0" transform="matrix(3.29196E-015 -0.124128 0.204801 5.42887E-015 1416.03 24857.1)" width="21999" height="40001" rx="118111" ry="118111"/>
   <rect class="fil0" transform="matrix(3.30158E-015 -0.124128 0.204801 5.44812E-015 1416.03 24857.1)" width="21999" height="40001" rx="118111" ry="118111"/>
   <rect class="fil0" transform="matrix(-0.0620636 -0.107498 0.177363 -0.102401 5176.42 36160.4)" width="21999" height="40001" rx="118111" ry="118111"/>
   <rect class="fil0" transform="matrix(-0.107497 -0.0620639 0.1024 -0.177363 14084.7 44069.1)" width="21999" height="40001" rx="118111" ry="118111"/>
   <rect class="fil0" x="23023" y="38272" width="2731" height="8192" rx="14661" ry="24189"/>
   <rect class="fil0" transform="matrix(-0.107497 -0.0620639 -0.1024 0.177363 37483.6 4279.65)" width="21999" height="40001" rx="118111" ry="118111"/>
   <rect class="fil0" transform="matrix(-0.0620636 -0.107498 -0.177363 0.102401 45392.3 13187.9)" width="21999" height="40001" rx="118111" ry="118111"/>
   <rect class="fil0" transform="matrix(-3.29196E-015 -0.124128 -0.204801 5.42887E-015 47787.3 24857.1)" width="21999" height="40001" rx="118111" ry="118111"/>
   <rect class="fil0" transform="matrix(-3.30158E-015 -0.124128 -0.204801 5.44812E-015 47787.3 24857.1)" width="21999" height="40001" rx="118111" ry="118111"/>
   <rect class="fil0" transform="matrix(0.0620636 -0.107498 -0.177363 -0.102401 44026.9 36160.4)" width="21999" height="40001" rx="118111" ry="118111"/>
   <rect class="fil0" transform="matrix(0.107497 -0.0620639 -0.1024 -0.177363 35118.7 44069.1)" width="21999" height="40001" rx="118111" ry="118111"/>
   <ellipse class="fil0" cx="24388" cy="23492" rx="12476" ry="12048"/>
  </g>
  <path class="fil1" d="M65645 18443c1957,-1258 4314,-1991 6847,-1991 6798,0 12311,5279 12311,11792 0,4504 -2636,8418 -6511,10404 2111,2764 3348,6122 3348,9743 0,9436 -8402,17086 -18765,17086 -1700,0 -3349,-206 -4915,-593 -2260,3957 -6355,6603 -11033,6603 -4516,0 -8489,-2464 -10790,-6195 -1843,1868 -4441,3031 -7318,3031 -5590,0 -10121,-4389 -10121,-9805 0,-1234 235,-2415 666,-3504 -2401,-3014 -3829,-6789 -3829,-10886 0,-8471 6102,-15566 14293,-17406 -39,-519 -60,-1043 -60,-1573 0,-10742 8284,-19451 18503,-19451 7977,0 14774,5306 17374,12745z"/>
  <path class="fil2" d="M51598 82821c676,-3907 -290,-13679 -1612,-17129 -3617,-9438 -12474,-23191 -3788,-33159 5460,-6267 26857,8854 25496,18025 -1695,11410 -20011,6401 -22121,4156"/>
  <path class="fil3" d="M48645 82317c292,-1686 220,-4763 -69,-7848 -296,-3140 -812,-6197 -1391,-7710 -677,-1769 -1404,-3405 -2162,-5112 -4275,-9623 -9510,-21415 -1087,-31083l12 0c1906,-2188 4713,-2836 7919,-2361 2320,345 4906,1308 7462,2683 2468,1327 4939,3045 7128,4951 5149,4487 8928,10258 8200,15154 -409,2756 -1570,4841 -3211,6385 -1901,1786 -4361,2752 -6994,3153 -2386,364 -4939,264 -7299,-86 -2645,-393 -5162,-1169 -7021,-1997l350 787c887,1995 1730,3895 2304,5393 756,1972 1399,5643 1742,9305 335,3562 398,7222 23,9394l-5906 -1008zm-192 -47821l7 6c-5027,5768 -2655,13726 361,20918l2931 -2757c484,515 3052,1374 6268,1851 1832,271 3779,355 5542,85 1519,-231 2867,-721 3783,-1581 691,-650 1190,-1591 1383,-2894 395,-2661 -2436,-6475 -6209,-9763 -1884,-1641 -3974,-3100 -6025,-4202 -1966,-1057 -3875,-1787 -5494,-2027 -1215,-180 -2141,-93 -2547,364z"/>
  <path class="fil4" d="M28983 83088c9230,-678 28534,1256 38477,1256 -7456,-4772 -29182,-3549 -38477,-1256z"/>
 </g>
</svg>
