<?xml version="1.0" encoding="UTF-8"?>
<!DOCTYPE svg PUBLIC "-//W3C//DTD SVG 1.1//EN" "http://www.w3.org/Graphics/SVG/1.1/DTD/svg11.dtd">
<!-- Creator: CorelDRAW X7 -->
<svg xmlns="http://www.w3.org/2000/svg" xml:space="preserve" width="150px" height="35px" version="1.1" style="shape-rendering:geometricPrecision; text-rendering:geometricPrecision; image-rendering:optimizeQuality; fill-rule:evenodd; clip-rule:evenodd"
viewBox="0 0 150000 35000"
 xmlns:xlink="http://www.w3.org/1999/xlink">
 <defs>
  <style type="text/css">
   <![CDATA[
    .fil0 {fill:#009846}
    .fil1 {fill:white;fill-rule:nonzero}
   ]]>
  </style>
 </defs>
 <g id="Layer_x0020_1">
  <metadata id="CorelCorpID_0Corel-Layer"/>
  <polygon class="fil0" points="3554,24280 143174,24280 143174,33526 3554,33526 "/>
  <path class="fil1" d="M27340 32257l0 -5950 2400 0c616,0 1079,122 1388,364 308,243 463,604 463,1087 0,310 -72,574 -214,790 -144,217 -356,383 -639,499 359,66 637,226 836,479 200,251 299,569 299,954 0,545 -181,976 -542,1296 -360,321 -851,481 -1470,481l-2521 0zm808 -3448l1418 0c418,0 725,-76 921,-226 198,-152 295,-388 295,-708 0,-302 -93,-525 -282,-671 -189,-145 -479,-218 -869,-218l-1483 0 0 1823zm0 2730l1640 0c412,0 724,-91 938,-273 212,-182 318,-445 318,-793 0,-345 -108,-598 -325,-760 -217,-161 -557,-242 -1023,-242l-1548 0 0 2068z"/>
  <path class="fil1" d="M34080 29785l1855 0 -921 -2626 -934 2626zm-1720 2472l2210 -5950 892 0 2218 5950 -878 0 -630 -1777 -2341 0 -634 1777 -837 0z"/>
  <path class="fil1" d="M38321 30000l0 -3693 808 0 0 3701c0,557 122,969 369,1236 247,266 629,400 1146,400 512,0 892,-136 1144,-406 253,-271 378,-681 378,-1230l0 -3701 813 0 0 3693c0,797 -206,1400 -617,1809 -411,410 -1015,614 -1812,614 -743,0 -1300,-202 -1672,-606 -371,-404 -557,-1010 -557,-1817z"/>
  <path class="fil1" d="M45167 27188l0 5069 -743 0 0 -5950 1155 0 1474 4552c43,130 74,230 94,302 20,70 36,134 47,188 22,-100 43,-189 65,-266 21,-79 44,-154 69,-224l1527 -4552 1158 0 0 5950 -783 0 0 -5069c-19,86 -40,173 -64,261 -24,87 -50,174 -78,259l-1530 4549 -764 0 -1494 -4549c-27,-74 -50,-156 -73,-241 -21,-87 -41,-179 -60,-279z"/>
  <path class="fil1" d="M51219 30298l779 0c8,430 152,774 430,1030 279,255 651,383 1117,383 462,0 824,-96 1089,-291 266,-193 399,-458 399,-791 0,-455 -498,-801 -1495,-1039 -59,-12 -105,-23 -138,-31 -808,-192 -1341,-406 -1601,-641 -260,-235 -390,-570 -390,-1004 0,-530 195,-956 582,-1278 387,-322 903,-483 1547,-483 658,0 1175,170 1551,507 377,338 568,801 574,1392l-772 4c-28,-399 -163,-705 -406,-917 -244,-214 -577,-320 -999,-320 -396,0 -712,87 -949,261 -237,173 -356,405 -356,693 0,461 490,804 1470,1030 145,35 257,62 335,82l86 19c639,154 1066,320 1275,498 160,133 281,297 364,489 84,193 126,408 126,645 0,574 -206,1030 -617,1370 -411,339 -966,508 -1665,508 -723,0 -1286,-181 -1688,-547 -403,-365 -619,-888 -648,-1569z"/>
  <path class="fil1" d="M61203 30047l784 0c-35,724 -283,1302 -742,1732 -458,429 -1052,644 -1779,644 -837,0 -1494,-286 -1969,-857 -476,-570 -713,-1361 -713,-2371 0,-932 250,-1671 747,-2220 498,-548 1171,-822 2016,-822 673,0 1225,174 1654,521 430,347 678,822 746,1422l-792 0c-76,-393 -255,-697 -538,-908 -282,-210 -649,-317 -1101,-317 -604,0 -1072,211 -1404,635 -332,423 -499,1019 -499,1789 0,727 172,1310 518,1749 346,440 806,659 1376,659 487,0 887,-152 1197,-455 312,-302 477,-703 499,-1201z"/>
  <polygon class="fil1" points="63145,32257 63145,26307 63953,26307 63953,28752 67039,28752 67039,26307 67851,26307 67851,32257 67039,32257 67039,29471 63953,29471 63953,32257 "/>
  <path class="fil1" d="M69299 30000l0 -3693 808 0 0 3701c0,557 122,969 369,1236 247,266 629,400 1146,400 512,0 892,-136 1145,-406 252,-271 378,-681 378,-1230l0 -3701 811 0 0 3693c0,797 -205,1400 -616,1809 -411,410 -1015,614 -1812,614 -743,0 -1300,-202 -1672,-606 -371,-404 -557,-1010 -557,-1817z"/>
  <polygon class="fil1" points="75402,32257 75402,26307 76218,26307 76218,31506 79182,31506 79182,32257 "/>
  <polygon class="fil1" points="86283,30394 86283,29739 88282,29739 88282,30394 "/>
  <path class="fil1" d="M100463 31462c-243,320 -531,561 -864,721 -334,160 -713,240 -1139,240 -806,0 -1458,-288 -1958,-863 -499,-575 -749,-1330 -749,-2265 0,-972 259,-1738 776,-2300 517,-561 1218,-842 2104,-842 679,0 1233,172 1660,515 429,344 686,822 773,1436l-788 0c-73,-401 -252,-711 -539,-930 -287,-217 -656,-326 -1106,-326 -649,0 -1152,211 -1509,633 -358,420 -536,1015 -536,1783 0,760 177,1354 530,1781 353,429 839,643 1459,643 560,0 1007,-171 1341,-513 334,-342 501,-803 501,-1382l0 -77 -1863 0 0 -670 2610 0 0 3211 -529 0 -174 -795z"/>
  <path class="fil1" d="M103282 27188l0 5069 -744 0 0 -5950 1156 0 1474 4552c43,130 74,230 94,302 20,70 36,134 46,188 23,-100 43,-189 65,-266 22,-79 44,-154 69,-224l1528 -4552 1158 0 0 5950 -783 0 0 -5069c-19,86 -40,173 -65,261 -23,87 -49,174 -77,259l-1531 4549 -763 0 -1494 -4549c-27,-74 -51,-156 -73,-241 -22,-87 -41,-179 -60,-279z"/>
  <path class="fil1" d="M109609 32257l0 -5950 2399 0c617,0 1080,122 1389,364 308,243 462,604 462,1087 0,310 -72,574 -214,790 -143,217 -355,383 -638,499 358,66 637,226 836,479 200,251 299,569 299,954 0,545 -181,976 -542,1296 -360,321 -851,481 -1470,481l-2521 0zm808 -3448l1418 0c418,0 725,-76 921,-226 197,-152 295,-388 295,-708 0,-302 -93,-525 -282,-671 -189,-145 -479,-218 -869,-218l-1483 0 0 1823zm0 2730l1640 0c412,0 724,-91 938,-273 212,-182 318,-445 318,-793 0,-345 -109,-598 -325,-760 -217,-161 -557,-242 -1023,-242l-1548 0 0 2068z"/>
  <polygon class="fil1" points="115292,32257 115292,26307 116100,26307 116100,28752 119186,28752 119186,26307 119998,26307 119998,32257 119186,32257 119186,29471 116100,29471 116100,32257 "/>
  <path class="fil0" d="M85913 5703c0,-573 16,-866 432,-866l2524 0 0 -3894 -10517 0c-436,0 -661,426 -661,681l0 16082c0,178 151,690 517,690l10661 0 0 -3174 -2235 0c-687,0 -721,-410 -721,-1298l0 -8221zm5913 0c0,-573 -16,-866 -433,-866l-2524 0 0 -3894 10498 0c436,0 681,426 681,681l0 15988c0,406 -101,784 -586,784l-10593 0 0 -3174 2236 0c687,0 721,-410 721,-1298l0 -8221z"/>
  <path class="fil0" d="M64061 9597l-2087 0c-436,0 -581,-263 -581,-814l0 -7239c0,-419 -183,-601 -621,-601l-7636 0c-435,0 -686,187 -686,646l0 16022c0,565 154,785 581,785l7741 0c421,0 621,-343 621,-770l0 -3936c0,-419 274,-631 720,-631l1948 0 0 -3462zm0 0l2107 0c435,0 561,-293 561,-844l0 -7129c0,-419 213,-681 651,-681l7536 0c582,0 756,227 756,795l0 15823c0,565 -234,835 -661,835l-7601 0c-482,0 -681,-273 -681,-701l0 -3995c0,-419 -254,-641 -700,-641l-1968 0 0 -3462z"/>
  <path class="fil0" d="M25342 943l-20969 0c-446,0 -819,570 -819,859l0 9994c0,170 106,686 696,686l13012 0c276,0 571,269 571,651 0,625 0,477 0,1102 0,469 -148,879 -616,879l-4483 0c-492,0 -713,-901 -1102,-901 -2501,0 -4704,0 -7204,0 -405,0 -819,451 -829,765 0,1106 0,1598 0,2703 0,270 433,715 869,715l20960 0c452,0 771,-314 771,-830l0 -8690 -13544 0c-319,0 -735,-174 -735,-577l0 -3268c0,-308 374,-626 809,-626l4429 0c610,208 703,1010 1108,1010l7078 0c390,0 711,-254 711,-671l0 -3125c0,-291 -238,-676 -713,-676z"/>
  <path class="fil0" d="M49934 943l-21229 0c-406,0 -631,433 -631,670l0 16013c0,306 301,770 720,770l21294 0c288,0 487,-263 487,-517l0 -3328c0,-443 -239,-482 -483,-482l-7147 0c-595,0 -746,1153 -1168,1153l-4457 0c-712,0 -880,-604 -880,-780l0 -8914c0,-158 257,-691 655,-691l4970 0c233,0 484,866 795,866l7263 0c254,0 452,-330 452,-531l0 -3618c0,-242 -195,-611 -641,-611z"/>
  <path class="fil0" d="M142419 943l-21140 0c-444,0 -750,246 -750,670 0,866 0,1078 0,1943 0,273 270,705 700,705l11403 0c328,0 562,216 14,667 -2227,1833 -12405,10145 -12405,10150l0 2661c-11,476 84,657 522,657l21331 0c534,0 792,-163 792,-973l0 -1530c0,-576 -243,-815 -830,-815l-11854 0c-296,2 -345,-456 -198,-576 1773,-1452 11539,-8986 13130,-10236 23,-19 38,-24 40,-82l0 -2535c0,-567 -190,-706 -755,-706z"/>
  <path class="fil0" d="M110220 943l-7572 0c-446,0 -581,255 -581,576l0 16083c0,458 239,794 526,794l15087 0c349,0 683,-80 683,-592 0,-580 3,-1122 3,-1702 0,-546 -183,-735 -776,-735l-6114 0c-359,0 -611,-210 -611,-621 0,-4520 0,-8752 0,-13271 0,-431 -225,-532 -645,-532z"/>
 </g>
</svg>
