<?xml version="1.0" encoding="UTF-8"?>
<!DOCTYPE svg PUBLIC "-//W3C//DTD SVG 1.1//EN" "http://www.w3.org/Graphics/SVG/1.1/DTD/svg11.dtd">
<!-- Creator: CorelDRAW X7 -->
<svg xmlns="http://www.w3.org/2000/svg" xml:space="preserve" width="80px" height="100px" version="1.1" style="shape-rendering:geometricPrecision; text-rendering:geometricPrecision; image-rendering:optimizeQuality; fill-rule:evenodd; clip-rule:evenodd"
viewBox="0 0 80000 100001"
 xmlns:xlink="http://www.w3.org/1999/xlink">
 <defs>
  <style type="text/css">
   <![CDATA[
    .fil0 {fill:black;fill-rule:nonzero}
   ]]>
  </style>
 </defs>
 <g id="Layer_x0020_1">
  <metadata id="CorelCorpID_0Corel-Layer"/>
  <g id="_687905800">
   <path class="fil0" d="M45280 10931l-14572 0 0 -10898 3864 3864 3432 -3428 3426 3428 3850 -3849 0 10884 0 -1zm-13701 -868l0 0 12830 0 0 -7916 -2979 2979 -3426 -3428 -3432 3428 -2993 -2993 0 7930z"/>
   <path class="fil0" d="M46566 48840c1555,170 3156,256 4753,256 1768,0 3990,-235 4554,-297 3939,-432 7591,-2382 10283,-5489l624 -720 -7662 0 -130 153c-1027,1201 -1938,1927 -1955,1940 -1221,1011 -2543,1792 -3931,2320l-39 16c-7,4 -673,329 -1924,628 -1140,-285 -1756,-584 -1766,-589l-39 -16c-99,-38 -197,-79 -295,-121 2602,-1465 4777,-3646 6309,-6335 60,-104 118,-210 181,-326 0,0 116,-230 156,-317 629,-1338 946,-2769 946,-4258 0,-3151 -1443,-6067 -3958,-7998 -56,-45 -1428,-1099 -3321,-1442 -648,-120 -1357,-135 -2308,-148l-408 -7 -1182 1 -502 -1 -302 1 -1574 1 -271 5c-260,4 -501,7 -729,12l-33 0 0 0c-667,15 -1210,45 -1718,137 -1894,343 -3264,1398 -3319,1441 -2517,1933 -3960,4848 -3960,8000 0,1488 317,2920 946,4257 40,87 156,317 161,329 58,105 116,210 175,314 1539,2702 3746,4878 6318,6330 -100,41 -202,85 -305,123l-37 16c-8,5 -724,352 -2037,654 -1269,-310 -1953,-657 -1964,-663l-40 -18c-5972,-2395 -9984,-8693 -9984,-15680 0,-6979 4012,-13278 9984,-15672l25 -12c9,-3 505,-232 1437,-477 952,243 1465,476 1468,478l23 10c3312,1329 6122,3908 7912,7265l122 230 7488 0 -345 -640c-2608,-4851 -7242,-8088 -12399,-8660 -286,-31 -567,-59 -844,-83l0 -2c-53,-7 -1325,-176 -3339,-176 -1451,0 -2909,89 -4330,262 -8315,1015 -14585,8528 -14585,17482 0,9004 6271,16518 14588,17477 1582,183 3229,277 4894,277 1665,0 2716,-95 2761,-98l0 -4c626,-39 1286,-93 1974,-170 537,-59 1078,-146 1606,-261 418,109 1846,263 1846,263l1 2zm5577 -20465l0 0c2300,1767 3620,4431 3620,7310 0,1359 -290,2667 -864,3889 -37,78 -138,282 -138,282 -56,100 -110,200 -168,299 -1538,2700 -3756,4860 -6414,6246 -43,22 -87,43 -130,66 -884,-452 -1736,-1007 -2548,-1667 608,-570 1530,-1516 2388,-2740 771,-976 1350,-2104 1714,-3342 335,-1028 490,-2053 460,-3047 -6,-201 -20,-420 -40,-658 -185,-3202 -1802,-6093 -4209,-7664 238,-85 483,-157 732,-214 6,-1 616,-134 1086,-159 631,14 1118,40 1565,123 1678,304 2932,1265 2947,1275l-1 1zm-7304 -595l0 0c2454,1325 4133,4138 4317,7297 20,237 32,434 38,621 27,892 -114,1817 -423,2763 -337,1146 -866,2178 -1572,3069l-15 21c-850,1213 -1767,2145 -2345,2679 -572,-531 -1494,-1465 -2342,-2678l-17 -21c-705,-890 -1234,-1923 -1575,-3081 -305,-933 -447,-1858 -420,-2750 6,-187 18,-386 41,-634 185,-3207 1882,-5976 4313,-7286l0 0zm-3762 -13125l0 0c271,24 544,51 822,81 4643,515 8843,3325 11367,7567l-5494 0c-1890,-3422 -4799,-6055 -8222,-7430 -15,-7 -47,-22 -91,-39 0,0 663,-216 1618,-179l0 0zm-4185 -134l0 0c-561,175 -889,320 -961,353 -6293,2529 -10520,9149 -10520,16481 0,7326 4225,13942 10512,16474 84,42 390,188 901,366 -335,-10 -1300,-54 -1300,-54 -655,-42 -1303,-99 -1939,-172 -7878,-909 -13819,-8052 -13819,-16620 0,-8510 5942,-15652 13822,-16613 0,0 1973,-244 3304,-215l0 0zm3280 33532l0 0c272,-103 441,-180 499,-208 324,-123 648,-263 967,-413 428,203 862,386 1305,549 -648,71 -1273,122 -1867,158 -555,32 -904,-86 -904,-86l0 0zm6488 -79l0 0c-4756,-521 -9081,-3443 -11573,-7817 -57,-100 -113,-200 -162,-289 0,0 -107,-213 -146,-292 -572,-1222 -863,-2530 -863,-3889 0,-2879 1321,-5543 3621,-7312 13,-10 1268,-971 2945,-1275 458,-83 954,-110 1604,-123l2439 -15c-2745,1431 -4662,4497 -4868,8041 -21,250 -35,469 -41,671 -31,992 125,2017 457,3034 368,1249 946,2376 1718,3353 1418,2025 3000,3285 3059,3332 1291,1067 2688,1892 4158,2454 84,39 397,182 923,358 -1102,-36 -2197,-113 -3271,-231l0 0zm6324 21l0 0c241,-92 392,-162 445,-188 1470,-561 2869,-1386 4151,-2447 39,-31 908,-724 1937,-1900l5320 0c-2469,2522 -5651,4102 -9060,4476 -644,71 -1268,123 -1857,161 -655,55 -936,-101 -936,-101l0 -1z"/>
   <g>
    <path class="fil0" d="M5342 79806c0,2811 833,4218 2498,4218 1240,-19 2122,-785 2642,-2301l811 0c-521,2073 -1781,3115 -3780,3124 -3066,0 -4600,-1679 -4600,-5041 0,-1515 415,-2717 1249,-3608 927,-1022 2021,-1533 3280,-1533 1108,0 1951,326 2529,980l14 -867 810 0 0 3395 -796 0c-133,-947 -363,-1634 -695,-2060 -361,-444 -820,-667 -1379,-667 -662,0 -1240,374 -1732,1123 -568,851 -852,1930 -852,3237l1 0z"/>
    <path class="fil0" d="M19459 78002l0 2741 -965 0c0,-1250 -299,-1875 -895,-1875l-952 0 0 4262c0,729 237,1093 710,1093l0 583 -3394 0 0 -583c388,0 583,-246 583,-739l0 -4616 -768 0c-595,0 -894,626 -894,1875l-952 0 0 -2741 7527 0 0 0z"/>
    <path class="fil0" d="M23976 77761c2414,0 3622,1178 3622,3536 0,2349 -1208,3523 -3622,3523 -2415,0 -3622,-1174 -3622,-3523 0,-2358 1207,-3536 3622,-3536zm-15 780l0 0c-985,0 -1477,903 -1477,2706 28,1861 535,2792 1520,2792 974,0 1463,-921 1463,-2763 -10,-1823 -511,-2734 -1506,-2734l0 -1z"/>
    <path class="fil0" d="M33634 78854l-1448 0c0,1424 -110,2596 -327,3517 -341,1233 -745,2020 -1208,2363 -237,198 -520,299 -852,299 -152,0 -284,-19 -398,-57 -359,-104 -591,-256 -695,-456 -39,-65 -57,-140 -57,-227 0,-66 15,-146 42,-241 86,-322 313,-672 681,-1051 378,-388 669,-905 867,-1548 170,-529 269,-1325 299,-2387 -67,-312 -376,-477 -924,-498l0 -582 6747 0 0 582c-398,11 -598,257 -598,740l0 4162c0,491 176,738 527,738l0 581 -3224 0 0 -581c378,0 568,-365 568,-1095l0 -4260 0 1z"/>
    <path class="fil0" d="M37824 79778c76,-1185 1307,-1776 3694,-1776l2768 0 0 696c-226,0 -341,106 -341,313l0 4772c0,200 115,308 341,327l0 696 -2784 0 0 -696c256,-19 384,-275 384,-767l0 -1492c-662,9 -1103,507 -1320,1492 -208,975 -721,1463 -1535,1463l-1633 0 0 -568c634,-47 1026,-488 1179,-1321 151,-832 780,-1274 1888,-1321 -1761,0 -2641,-606 -2641,-1818l0 0zm3153 -966l0 0c-701,75 -1051,453 -1051,1136 0,710 350,1103 1051,1179l909 0 0 -2315 -909 0z"/>
    <path class="fil0" d="M48277 86367c0,484 200,735 598,754l0 568 -3224 0 0 -568c349,-9 525,-261 525,-754l0 -7157c-28,-398 -379,-611 -1051,-640l0 -639c663,0 1179,-15 1547,-42 379,-29 914,-85 1605,-171l0 810c502,-512 1180,-767 2032,-767 1676,0 2533,1164 2571,3495 0,2367 -971,3555 -2912,3564 -795,0 -1359,-212 -1691,-640l0 2189 0 -2zm0 -3564l0 0c172,777 535,1179 1095,1207 899,0 1349,-918 1349,-2756 -9,-1826 -478,-2740 -1407,-2740 -453,0 -799,317 -1037,951l0 3338 0 0z"/>
    <path class="fil0" d="M56615 81794l0 1336c0,729 236,1093 711,1093l0 583 -3410 0 0 -583c398,0 596,-246 596,-739l0 -4161c0,-492 -198,-743 -596,-753l0 -583 3410 0 0 583c-475,20 -711,384 -711,1095l0 1320 2755 0 0 -1320c0,-720 -232,-1085 -696,-1095l0 -583 3394 0 0 583c-397,10 -596,261 -596,753l0 4161c0,493 199,739 596,739l0 583 -3394 0 0 -583c464,0 696,-364 696,-1093l0 -1336 -2755 0z"/>
    <path class="fil0" d="M66330 77761c1866,9 2821,734 2869,2173l0 3749c0,190 86,284 256,284 151,0 298,-70 439,-213l214 440c-332,389 -801,597 -1407,626 -823,0 -1330,-214 -1519,-640 -350,428 -1013,640 -1989,640 -1334,-114 -2006,-730 -2016,-1847 0,-1193 583,-1879 1746,-2059 1174,-199 1899,-464 2173,-795l0 -895c-66,-521 -203,-781 -412,-781 -216,0 -354,131 -411,397 -76,303 -233,568 -469,796 -236,208 -530,312 -881,312 -548,-9 -822,-293 -822,-852 8,-378 197,-691 567,-937 540,-265 1094,-398 1662,-398l0 0zm725 3153l0 0c-1232,321 -1847,908 -1847,1760 47,881 426,1322 1136,1322 264,0 502,-115 711,-342l0 -2740z"/>
    <path class="fil0" d="M71087 79778c77,-1185 1308,-1776 3694,-1776l2769 0 0 696c-226,0 -340,106 -340,313l0 4772c0,200 114,308 340,327l0 696 -2784 0 0 -696c257,-19 383,-275 383,-767l0 -1492c-661,9 -1102,507 -1319,1492 -209,975 -721,1463 -1534,1463l-1634 0 0 -568c633,-47 1026,-488 1178,-1321 152,-832 782,-1274 1889,-1321 -1761,0 -2642,-606 -2642,-1818l0 0zm3154 -966l0 0c-701,75 -1050,453 -1050,1136 0,710 349,1103 1050,1179l908 0 0 -2315 -908 0z"/>
    <path class="fil0" d="M2335 90307l2708 4275 2452 -4275 2256 0 0 711c-313,0 -469,250 -469,752l0 4361c0,217 156,326 469,326l0 696 -3082 0 0 -696c332,0 502,-87 512,-255l0 -3239 -2230 4190 -469 0 -2841 -4389 0 3367c0,217 157,326 468,326l0 696 -1931 0 0 -696c313,0 469,-109 469,-326l0 -4361c0,-502 -157,-752 -469,-752l0 -711 2157 0z"/>
    <path class="fil0" d="M13885 90108c1864,8 2821,734 2869,2172l0 3750c0,189 85,285 255,285 152,0 299,-71 440,-214l214 441c-332,387 -801,596 -1406,624 -824,0 -1331,-212 -1520,-639 -351,427 -1014,639 -1989,639 -1336,-114 -2007,-728 -2016,-1847 0,-1193 582,-1879 1747,-2059 1172,-199 1898,-464 2173,-794l0 -896c-67,-521 -204,-780 -412,-780 -219,0 -356,132 -413,396 -75,304 -232,569 -468,797 -238,207 -531,311 -880,311 -551,-8 -825,-293 -825,-851 10,-378 200,-691 568,-937 540,-266 1094,-398 1662,-398l1 0zm724 3152l0 0c-1232,323 -1847,910 -1847,1762 48,881 426,1320 1136,1320 266,0 502,-112 711,-340l0 -2742z"/>
    <path class="fil0" d="M21668 97166c-2178,-9 -3291,-1201 -3338,-3578 38,-2309 1240,-3472 3608,-3480 1486,19 2305,516 2457,1491 0,673 -335,1018 -1009,1037 -568,0 -894,-270 -979,-809 0,-313 51,-564 156,-753 28,-29 43,-58 43,-85 0,-114 -171,-171 -512,-171 -994,19 -1496,933 -1506,2741 10,1790 516,2690 1520,2699 815,0 1468,-540 1960,-1619l527 283c-456,1497 -1431,2244 -2927,2244l0 0z"/>
    <path class="fil0" d="M32746 90349l0 2743 -965 0c0,-1251 -299,-1876 -895,-1876l-952 0 0 4261c0,729 237,1093 710,1093l0 583 -3394 0 0 -583c388,0 582,-246 582,-738l0 -4616 -767 0c-596,0 -895,625 -895,1876l-951 0 0 -2743 7528 0 -1 0z"/>
    <path class="fil0" d="M36908 97166c-2225,-56 -3357,-1263 -3395,-3621 105,-2263 1231,-3410 3381,-3437 1004,0 1781,317 2329,952 530,605 795,1434 795,2485l-4218 0c19,1808 497,2718 1435,2727 861,0 1524,-541 1988,-1619l554 312c-417,1421 -1373,2155 -2869,2201zm980 -4288l0 0c-38,-1373 -332,-2060 -881,-2060 -549,0 -937,687 -1163,2060l2044 0z"/>
    <path class="fil0" d="M43826 98715c0,483 198,735 595,753l0 569 -3223 0 0 -569c349,-10 525,-262 525,-753l0 -7158c-29,-398 -379,-612 -1051,-640l0 -639c663,0 1179,-14 1549,-42 377,-29 913,-85 1605,-170l0 809c500,-512 1177,-767 2031,-767 1675,0 2531,1165 2570,3494 0,2368 -971,3555 -2911,3566 -795,0 -1360,-214 -1690,-639l0 2186 0 0zm0 -3565l0 0c170,776 534,1179 1092,1207 900,0 1350,-919 1350,-2755 -9,-1827 -478,-2740 -1405,-2740 -456,0 -801,316 -1037,950l0 3338 0 0z"/>
    <path class="fil0" d="M52845 97166c-2178,-9 -3292,-1201 -3339,-3578 39,-2309 1240,-3472 3608,-3480 1486,19 2306,516 2457,1491 0,673 -337,1018 -1009,1037 -568,0 -894,-270 -980,-809 0,-313 52,-564 156,-753 29,-29 43,-58 43,-85 0,-114 -170,-171 -511,-171 -993,19 -1497,933 -1506,2741 9,1790 516,2690 1520,2699 814,0 1468,-540 1961,-1619l524 283c-453,1497 -1429,2244 -2924,2244l0 0z"/>
    <path class="fil0" d="M59618 93147c957,-2007 2112,-3012 3466,-3012 606,0 1079,177 1421,527 142,180 212,379 212,596 -9,540 -283,810 -823,810 -540,0 -810,-218 -810,-654 0,-187 44,-344 129,-467 28,-48 41,-85 41,-115 0,-37 -32,-57 -98,-57l-14 0c-134,0 -450,436 -952,1307 -502,871 -1151,1364 -1947,1477 1176,133 2022,658 2543,1577 539,918 1141,1396 1804,1434l0 583 -1677 0c-1013,0 -1760,-497 -2243,-1492 -483,-994 -834,-1500 -1052,-1519l0 1690c0,491 175,738 526,738l0 583 -3096 0 0 -568c312,-19 468,-270 468,-753l0 -4233c-28,-397 -383,-610 -1065,-639l0 -639c672,0 1193,-14 1562,-44 359,-27 894,-85 1604,-170l0 3040 1 0z"/>
    <path class="fil0" d="M68779 90108c1866,8 2823,734 2869,2172l0 3750c0,189 86,285 257,285 151,0 297,-71 440,-214l213 441c-332,387 -801,596 -1407,624 -823,0 -1330,-212 -1519,-639 -351,427 -1013,639 -1989,639 -1335,-114 -2007,-728 -2017,-1847 0,-1193 583,-1879 1747,-2059 1174,-199 1899,-464 2174,-794l0 -896c-67,-521 -204,-780 -412,-780 -218,0 -356,132 -412,396 -76,304 -232,569 -469,797 -237,207 -531,311 -881,311 -550,-8 -824,-293 -824,-851 10,-378 200,-691 568,-937 541,-266 1094,-398 1662,-398l0 0zm726 3152l0 0c-1231,323 -1847,910 -1847,1762 48,881 427,1320 1137,1320 265,0 502,-112 710,-340l0 -2742 0 0z"/>
    <path class="fil0" d="M73538 92125c76,-1184 1306,-1776 3692,-1776l2771 0 0 696c-228,0 -341,105 -341,313l0 4773c0,198 114,307 341,326l0 696 -2785 0 0 -696c256,-19 385,-276 385,-767l0 -1491c-664,9 -1104,506 -1322,1491 -209,976 -719,1463 -1534,1463l-1633 0 0 -568c634,-48 1027,-487 1178,-1320 152,-834 782,-1275 1889,-1322 -1761,0 -2641,-606 -2641,-1818l0 0zm3154 -966l0 0c-702,76 -1052,454 -1052,1137 0,709 350,1102 1052,1178l909 0 0 -2315 -909 0z"/>
   </g>
   <g>
    <path class="fil0" d="M34174 65882l-26126 0c-88,0 -159,-72 -159,-159 0,-88 71,-159 159,-159l26126 0c87,0 158,71 158,159 0,87 -71,159 -158,159z"/>
    <path class="fil0" d="M72273 65882l-26125 0c-89,0 -160,-72 -160,-159 0,-88 71,-159 160,-159l26125 0c87,0 158,71 158,159 0,87 -71,159 -158,159z"/>
    <g>
     <path class="fil0" d="M44775 62491l-79 -572 34 -43 571 -78 -77 -573 -830 -813 -6728 6718c-377,32 -744,192 -1031,480 -647,645 -647,1697 0,2343 645,648 1697,648 2345,0 311,-311 472,-715 484,-1125l16 -22 558 -76 -76 -560 44 -57 559 -77 -77 -559 42 -57 560 -77 -77 -562 43 -54 561 -77 -77 -564 39 -53 565 -78 -77 -563 39 -52 563 -78 -76 -566 37 -49 566 -77 -78 -567 37 -50 568 -77 -78 -569 35 -46 570 -79 -79 -569 35 -46 570 -77 -1 1zm-6271 6985l0 0c-113,111 -245,190 -386,238 -231,76 -485,66 -711,-35 -106,-47 -207,-114 -296,-203 -384,-383 -384,-1007 0,-1390 78,-77 165,-138 256,-184 260,-129 564,-137 828,-24 112,49 218,117 307,208 383,383 383,1007 0,1390l2 0z"/>
     <g>
      <path class="fil0" d="M36761 64673c-138,-909 519,-1602 726,-1792l1795 1794 805 -803 -1797 -1797 257 -249 40 41c156,155 403,157 553,7l318 -316c150,-150 145,-397 -10,-553l-1074 -1074c-155,-154 -402,-159 -552,-9l-317 318c-151,150 -146,397 9,551l62 63c-166,169 -633,633 -999,1000 -1366,1367 183,2817 183,2817l1 2z"/>
      <polygon class="fil0" points="42208,66427 42067,66445 42086,66586 42151,67055 41722,67114 44889,70283 45689,69475 42589,66375 "/>
     </g>
    </g>
   </g>
  </g>
 </g>
</svg>
