<?xml version="1.0" encoding="UTF-8"?>
<!DOCTYPE svg PUBLIC "-//W3C//DTD SVG 1.1//EN" "http://www.w3.org/Graphics/SVG/1.1/DTD/svg11.dtd">
<!-- Creator: CorelDRAW X7 -->
<svg xmlns="http://www.w3.org/2000/svg" xml:space="preserve" width="100px" height="150px" version="1.1" style="shape-rendering:geometricPrecision; text-rendering:geometricPrecision; image-rendering:optimizeQuality; fill-rule:evenodd; clip-rule:evenodd"
viewBox="0 0 100000 150000"
 xmlns:xlink="http://www.w3.org/1999/xlink">
 <defs>
  <style type="text/css">
   <![CDATA[
    .fil2 {fill:#4F4F4F}
    .fil0 {fill:#818181}
    .fil4 {fill:#FF756F}
    .fil3 {fill:#4F4F4F;fill-rule:nonzero}
    .fil1 {fill:white;fill-opacity:0.250980}
   ]]>
  </style>
 </defs>
 <g id="Layer_x0020_1">
  <metadata id="CorelCorpID_0Corel-Layer"/>
  <rect class="fil0" x="3204" y="3204" width="93593" height="45592"/>
  <polygon class="fil1" points="50000,48797 59321,3204 96796,3204 96796,48797 "/>
  <path class="fil2" d="M27252 18684c912,0 1744,148 2492,444 748,296 1388,716 1920,1260 532,544 940,1208 1228,1992 288,784 432,1660 432,2628 0,976 -144,1856 -432,2640 -288,784 -696,1452 -1228,2004 -532,552 -1172,976 -1920,1272 -748,296 -1580,444 -2492,444 -920,0 -1756,-148 -2508,-444 -752,-296 -1392,-720 -1924,-1272 -532,-552 -944,-1220 -1236,-2004 -292,-784 -440,-1664 -440,-2640 0,-968 148,-1844 440,-2628 292,-784 704,-1448 1236,-1992 532,-544 1172,-964 1924,-1260 752,-296 1588,-444 2508,-444zm0 10404c1024,0 1784,-344 2276,-1032 492,-688 736,-1696 736,-3024 0,-1328 -244,-2340 -736,-3036 -492,-696 -1252,-1044 -2276,-1044 -1040,0 -1808,348 -2308,1048 -500,700 -752,1712 -752,3032 0,1320 252,2324 752,3016 500,692 1268,1040 2308,1040z"/>
  <path class="fil3" d="M0 53603l2999 0 0 2000 39603 0 0 1641 0 2750 0 80507 -5603 0 0 9500 26002 0 0 -9500 -5604 0 0 -80507 0 -2750 0 -1641 39604 0 0 -2000 2999 0 0 -53603 -100000 0 0 53603zm86797 -4806l0 -1444c1564,-634 2671,-2164 2671,-3955 0,-2351 -1914,-4265 -4263,-4265 -2361,0 -4275,1914 -4275,4265 0,1791 1110,3321 2673,3955l0 1444 -32001 0 0 -1444c1562,-634 2664,-2164 2664,-3955 0,-23 -8,-37 -8,-62 -32,-2328 -1922,-4203 -4258,-4203 -2336,0 -4226,1875 -4258,4203 0,17 -8,39 -8,62 0,1791 1102,3321 2663,3955l0 1444 -33194 0 0 -1514c1562,-635 2665,-2158 2665,-3947 0,-2360 -1915,-4274 -4266,-4274 -2360,0 -4267,1914 -4267,4274 0,1789 1103,3312 2664,3947l0 1514 -8795 0 0 -45593 93592 0 0 45593 -9999 0z"/>
  <path class="fil4" d="M70332 21276c-80,128 -164,216 -252,268 -88,52 -200,80 -336,80 -144,0 -296,-40 -460,-120 -164,-80 -356,-172 -571,-272 -217,-100 -460,-188 -737,-268 -276,-80 -604,-120 -979,-120 -585,0 -1041,124 -1373,372 -332,248 -499,572 -499,972 0,264 87,484 259,664 173,180 401,340 684,476 285,136 604,256 965,364 359,108 727,228 1099,356 372,128 737,272 1096,436 361,164 685,372 968,624 285,252 513,556 684,908 172,352 256,776 256,1272 0,592 -104,1136 -316,1636 -212,500 -528,932 -943,1296 -416,364 -929,648 -1541,852 -611,204 -1320,308 -2119,308 -425,0 -837,-40 -1241,-116 -404,-76 -792,-180 -1164,-316 -372,-136 -715,-296 -1031,-480 -316,-184 -596,-384 -836,-600l684 -1128c87,-136 192,-240 311,-312 121,-72 273,-108 457,-108 183,0 359,52 523,156 164,104 352,216 569,336 215,120 472,232 763,336 293,104 660,156 1109,156 351,0 655,-44 907,-128 252,-84 460,-192 624,-328 164,-136 285,-296 361,-476 76,-180 111,-364 111,-556 0,-288 -83,-524 -255,-708 -172,-184 -401,-344 -685,-480 -283,-136 -608,-260 -972,-368 -364,-108 -736,-224 -1116,-352 -380,-128 -751,-280 -1115,-452 -364,-172 -689,-388 -973,-652 -283,-264 -512,-588 -684,-972 -172,-384 -260,-848 -260,-1392 0,-504 100,-984 300,-1440 200,-456 496,-856 884,-1196 389,-340 872,-612 1453,-816 579,-204 1248,-304 2008,-304 847,0 1620,140 2315,420 697,280 1276,648 1740,1104l-672 1068z"/>
  <path class="fil4" d="M60108 12660c384,632 644,1288 780,1972 137,684 149,1360 36,2028 -111,668 -344,1308 -700,1920 -356,612 -836,1164 -1435,1652l-937 -564c-79,-48 -136,-108 -167,-176 -33,-68 -45,-136 -40,-204 4,-68 20,-132 48,-196 27,-64 63,-120 111,-168 169,-200 328,-464 480,-792 152,-328 260,-696 321,-1104 60,-408 52,-844 -25,-1308 -76,-464 -259,-928 -547,-1392 -136,-232 -173,-436 -113,-608 61,-172 189,-292 389,-364l1799 -696z"/>
  <path class="fil2" d="M51924 21012c384,-736 840,-1316 1368,-1736 528,-420 1152,-628 1872,-628 568,0 1024,124 1368,372l-192 2220c-40,144 -96,244 -172,304 -76,60 -180,92 -308,92 -120,0 -296,-20 -532,-60 -236,-40 -468,-60 -692,-60 -328,0 -620,48 -876,144 -256,96 -484,232 -688,412 -204,180 -384,400 -540,656 -156,256 -304,548 -440,876l0 7584 -2964 0 0 -12312 1740 0c304,0 516,52 636,160 120,108 200,304 240,584l180 1392z"/>
  <path class="fil2" d="M46200 18876l0 12312 -1812 0c-392,0 -640,-180 -744,-540l-204 -984c-504,512 -1060,924 -1668,1240 -608,316 -1324,476 -2148,476 -672,0 -1264,-116 -1780,-344 -516,-228 -952,-548 -1304,-964 -352,-416 -616,-912 -796,-1484 -180,-572 -272,-1200 -272,-1888l0 -7824 2964 0 0 7824c0,752 176,1332 524,1744 348,412 868,620 1564,620 512,0 992,-116 1440,-344 448,-228 872,-540 1272,-940l0 -8904 2964 0z"/>
  <path class="fil2" d="M16884 24468l0 6720 -3216 0 0 -6720 -6324 -10632 2844 0c280,0 504,68 668,204 164,136 300,308 412,516l3168 5796c184,344 348,668 488,972 140,304 264,608 376,912 104,-304 224,-608 360,-912 136,-304 292,-628 468,-972l3156 -5796c88,-176 220,-340 396,-492 176,-152 400,-228 672,-228l2856 0 -6324 10632z"/>
 </g>
</svg>
