<?xml version="1.0" encoding="UTF-8"?>
<!DOCTYPE svg PUBLIC "-//W3C//DTD SVG 1.1//EN" "http://www.w3.org/Graphics/SVG/1.1/DTD/svg11.dtd">
<!-- Creator: CorelDRAW X7 -->
<svg xmlns="http://www.w3.org/2000/svg" xml:space="preserve" width="100px" height="150px" version="1.1" style="shape-rendering:geometricPrecision; text-rendering:geometricPrecision; image-rendering:optimizeQuality; fill-rule:evenodd; clip-rule:evenodd"
viewBox="0 0 100000 150000"
 xmlns:xlink="http://www.w3.org/1999/xlink">
 <defs>
  <style type="text/css">
   <![CDATA[
    .fil3 {fill:#0096AF}
    .fil0 {fill:#1F1F1F;fill-rule:nonzero}
    .fil1 {fill:#FF756F;fill-rule:nonzero}
    .fil2 {fill:white;fill-opacity:0.250980}
   ]]>
  </style>
 </defs>
 <g id="Layer_x0020_1">
  <metadata id="CorelCorpID_0Corel-Layer"/>
  <path class="fil0" d="M89932 -11l-80266 0c-4985,0 -9037,4054 -9037,9036l0 131929c0,4981 4052,9036 9037,9036l80266 0c4979,0 9034,-4055 9034,-9036l0 -131929c0,-4982 -4055,-9036 -9034,-9036zm-50035 9215l19802 0c944,0 1712,768 1712,1714 0,947 -768,1712 -1712,1712l-19802 0c-947,0 -1712,-765 -1712,-1712 0,-946 765,-1714 1712,-1714zm9932 134604c-2477,0 -4483,-2007 -4483,-4484 0,-2477 2006,-4483 4483,-4483 2477,0 4483,2006 4483,4483 0,2477 -2006,4484 -4483,4484zm41375 -13908c0,1205 -967,2191 -2145,2191l-78520 0c-1180,0 -2145,-986 -2145,-2191l0 -109627c0,-1207 967,-2191 2145,-2191l78520 0c1180,0 2145,984 2145,2191l0 109627z"/>
  <path class="fil1" d="M50001 111718c-213,4 -425,0 -640,-4 -63,1 -129,0 -190,4 -125,0 -250,-7 -375,-19 -12199,-396 -22909,-6768 -29295,-16273 -71,-79 -132,-169 -177,-266 -3828,-5805 -6053,-12754 -6042,-20211 14,-9810 3846,-19025 10791,-25949 6672,-6653 15451,-10427 24827,-10702 126,-10 269,-2 377,-17l3 0 3 0 3 0 3 0 3 0 3 0 4 0c57,0 116,2 173,4 194,-2 385,-2 581,-2 9808,13 19023,3845 25947,10792 6926,6945 10733,16170 10718,25978 -10,7451 -2253,14388 -6089,20178 -49,110 -117,210 -198,295 -6605,9764 -17785,16192 -30430,16192zm-1247 -2185c207,19 413,31 622,39 2030,-218 4203,-3788 5854,-9645 363,-1286 694,-2658 995,-4100l-14057 -19c294,1443 621,2814 982,4103 1574,5648 3640,9174 5604,9622zm9647 -13702c-331,1649 -705,3215 -1117,4676 -1091,3874 -2389,6785 -3847,8667 5884,-1405 11023,-6332 14475,-13331l-9511 -12zm-26374 -38c3038,6199 7401,10781 12437,12741 -1270,-1880 -2404,-4581 -3372,-8050 -406,-1463 -776,-3029 -1103,-4680l-7962 -11zm38212 54c-2333,5019 -5481,9134 -9155,11916 6618,-2246 12344,-6445 16486,-11905l-7331 -11zm-47867 -68c4126,5473 9838,9686 16450,11951 -3666,-2792 -6804,-6916 -9122,-11941l-7328 -10zm48787 -2064l7906 10c3300,-5108 5293,-11135 5500,-17607l-9960 -14c-132,6414 -1372,12424 -3446,17611zm-12360 -19l10087 14c2150,-5107 3447,-11137 3584,-17611l-12188 -16c-61,6300 -574,12330 -1483,17613zm-17036 -25l14870 23c928,-5245 1453,-11286 1514,-17613l-17847 -27c44,6329 550,12369 1463,17617zm-10702 -15l8537 13c-895,-5287 -1392,-11317 -1433,-17618l-10639 -16c119,6474 1401,12507 3535,17621zm-10178 -14l7904 10c-2058,-5191 -3281,-11202 -3396,-17620l-9960 -14c188,6473 2164,12507 5452,17624zm53726 -19673l9959 14c-175,-6122 -1934,-11972 -5082,-17080l-8031 -10c1957,5166 3048,10998 3154,17076zm-14323 -21l12188 16c-112,-6121 -1257,-11967 -3311,-17075l-10219 -15c837,5154 1300,10987 1342,17074zm-19982 -30l17847 28c-42,-6113 -517,-11953 -1372,-17074l-15055 -21c-872,5117 -1361,10957 -1420,17067zm-12774 -18l10639 16c56,-6085 538,-11917 1391,-17069l-8672 -12c-2068,5102 -3231,10945 -3358,17065zm-12097 -17l9960 15c125,-6076 1230,-11905 3204,-17068l-8032 -10c-3161,5098 -4938,10944 -5132,17063zm55146 -19127l7478 10c-1067,-1472 -2259,-2872 -3569,-4186 -3786,-3797 -8302,-6607 -13230,-8298 2314,1768 4447,4099 6323,6945 1128,1714 2129,3565 2998,5529zm-12013 -17l9665 15c-725,-1534 -1538,-2990 -2434,-4351 -3393,-5152 -7657,-8453 -12262,-9566 1453,1887 2742,4800 3822,8677 454,1623 857,3372 1209,5225zm-16450 -23l14276 21c-322,-1645 -687,-3200 -1091,-4649 -1633,-5859 -3797,-9434 -5823,-9659 -209,6 -417,18 -625,35 -1965,444 -4042,3963 -5632,9605 -409,1449 -777,3005 -1105,4647zm-10289 -14l8114 10c359,-1851 768,-3601 1224,-5220 978,-3470 2121,-6166 3396,-8042 -3840,1480 -7380,4518 -10288,8907 -899,1359 -1716,2813 -2446,4345zm-9826 -15l7478 11c874,-1962 1881,-3810 3015,-5522 1882,-2841 4024,-5165 6344,-6927 -4934,1676 -9459,4474 -13257,8262 -1312,1310 -2508,2707 -3580,4176z"/>
  <path class="fil2" d="M98966 9025l0 131929c0,4981 -4055,9036 -9034,9036l-40133 0 1301 -6364 1586 -7757 772 -3778 23310 -114009 3699 -18093 9465 0c4979,0 9034,4054 9034,9036z"/>
  <path class="fil3" d="M39897 12630l19802 0c944,0 1712,-765 1712,-1712 0,-946 -768,-1714 -1712,-1714l-19802 0c-947,0 -1712,768 -1712,1714 0,947 765,1712 1712,1712z"/>
  <path class="fil3" d="M45316 139324c0,-2477 2006,-4483 4483,-4483 1086,0 2082,386 2857,1028 993,822 1625,2064 1625,3455 0,2035 -1354,3754 -3211,4302 -403,119 -829,182 -1271,182 -2477,0 -4483,-2007 -4483,-4484z"/>
 </g>
</svg>
