<?xml version="1.0" encoding="UTF-8"?>
<!DOCTYPE svg PUBLIC "-//W3C//DTD SVG 1.1//EN" "http://www.w3.org/Graphics/SVG/1.1/DTD/svg11.dtd">
<!-- Creator: CorelDRAW X7 -->
<svg xmlns="http://www.w3.org/2000/svg" xml:space="preserve" width="35px" height="35px" version="1.1" style="shape-rendering:geometricPrecision; text-rendering:geometricPrecision; image-rendering:optimizeQuality; fill-rule:evenodd; clip-rule:evenodd"
viewBox="0 0 35000 35000"
 xmlns:xlink="http://www.w3.org/1999/xlink">
 <defs>
  <style type="text/css">
   <![CDATA[
    .fil0 {fill:#CC6666;fill-rule:nonzero}
   ]]>
  </style>
 </defs>
 <g id="Layer_x0020_1">
  <metadata id="CorelCorpID_0Corel-Layer"/>
  <path class="fil0" d="M17501 498c-9373,0 -17001,7628 -17001,17002 0,9374 7628,17002 17001,17002 9374,0 17001,-7628 17001,-17002 0,-9374 -7627,-17002 -17001,-17002zm0 31088c-7767,0 -14086,-6319 -14086,-14086 0,-7767 6319,-14086 14086,-14086 7767,0 14087,6319 14087,14086 0,7767 -6321,14086 -14087,14086z"/>
  <path class="fil0" d="M24080 10922c-569,-569 -1493,-569 -2061,0l-4518 4519 -4518 -4519c-569,-569 -1490,-569 -2061,0 -568,569 -568,1492 0,2061l4519 4518 -4519 4518c-568,571 -568,1492 0,2061 286,285 658,428 1031,428 374,0 747,-143 1030,-428l4518 -4518 4518 4518c285,285 657,428 1030,428 373,0 745,-143 1031,-428 570,-569 570,-1490 0,-2061l-4518 -4517 4518 -4519c568,-569 568,-1492 0,-2061z"/>
 </g>
</svg>
