<?xml version="1.0" encoding="UTF-8"?>
<!DOCTYPE svg PUBLIC "-//W3C//DTD SVG 1.1//EN" "http://www.w3.org/Graphics/SVG/1.1/DTD/svg11.dtd">
<!-- Creator: CorelDRAW X7 -->
<svg xmlns="http://www.w3.org/2000/svg" xml:space="preserve" width="270px" height="66px" version="1.1" style="shape-rendering:geometricPrecision; text-rendering:geometricPrecision; image-rendering:optimizeQuality; fill-rule:evenodd; clip-rule:evenodd"
viewBox="0 0 270000 65998"
 xmlns:xlink="http://www.w3.org/1999/xlink">
 <defs>
  <style type="text/css">
   <![CDATA[
    .fil0 {fill:#C85050}
   ]]>
  </style>
 </defs>
 <g id="Layer_x0020_1">
  <metadata id="CorelCorpID_0Corel-Layer"/>
  <path class="fil0" d="M197783 60543l43 -137 -1 0c76,-259 178,-590 362,-855l3 -3c334,-475 827,-716 1605,-172l1 -1c815,568 2277,970 3975,1169 1967,231 4230,186 6179,-176 1885,-350 3462,-993 4135,-1957 175,-251 287,-529 322,-833 355,-3047 -2341,-5243 -4882,-7315 -1265,-1029 -2498,-2033 -3355,-3127 -1825,-2327 -1954,-4924 2709,-8576 3101,-2430 7128,-2385 9843,-1266 905,372 1674,867 2222,1430 584,600 930,1289 948,2005 27,1040 -626,2101 -2218,2989 -1258,805 -1870,727 -2224,175 -209,-326 -246,-785 -282,-1304 -59,-814 -137,-1838 -1024,-2190 -949,-377 -2246,-285 -3450,151 -827,299 -1607,762 -2194,1344 -565,561 -954,1236 -1032,1980 -67,643 94,1359 572,2119 394,283 953,626 1591,1016 1308,802 2962,1816 4408,3064 3186,2753 5361,6590 942,11707l-13 15 -16 16c-2910,2763 -7424,3536 -11324,3226 -1781,-141 -3449,-514 -4776,-1023 -1379,-529 -2413,-1226 -2872,-1993 -283,-472 -363,-972 -198,-1478l1 0zm-151318 -27609c-696,1240 -1224,2515 -1119,3024 91,-19 274,-92 521,-385 650,-769 1565,-2013 2161,-3239 386,-796 637,-1584 587,-2220 -561,337 -1440,1556 -2150,2820l0 0zm-36799 23399c-5973,-5972 -9666,-14222 -9666,-23334 0,-9112 3693,-17362 9666,-23334 5972,-5973 14222,-9666 23334,-9666 9113,0 17364,3693 23334,9666 5973,5972 9667,14222 9667,23334 0,9112 -3694,17362 -9667,23334 -5970,5973 -14221,9666 -23334,9666 -9112,0 -17362,-3693 -23334,-9666zm2791 -2791c5257,5257 12521,8509 20543,8509 8024,0 15286,-3252 20543,-8509 5258,-5257 8509,-12521 8509,-20543 0,-8022 -3251,-15286 -8509,-20543 -5257,-5257 -12519,-8509 -20543,-8509 -8022,0 -15286,3252 -20543,8509 -5257,5257 -8509,12521 -8509,20543 0,8022 3252,15286 8509,20543zm21965 -41717c1520,-2220 3044,-4444 5044,-6177l198 -172 -38 261c-1195,8302 -3106,16423 -5019,24557 -1271,5403 -2545,10811 -3609,16278 -724,3723 -1036,5326 -842,5363l1 0c155,30 708,-806 1678,-2273 473,-714 1044,-1577 1718,-2556 953,-1384 1460,-2217 1717,-3121 257,-906 268,-1897 230,-3596 -30,-1275 75,-2550 282,-3808 207,-1256 517,-2499 895,-3711 666,-2127 1974,-4674 3728,-6684 1415,-1619 3121,-2891 5021,-3316 1578,-353 2550,113 3465,551 793,381 1544,740 2620,493 634,-145 1248,-503 1874,-869 1304,-761 2666,-1555 4465,-643 1678,852 2335,2719 2430,4866 141,3181 -953,6984 -1775,8958 -1944,4665 -3510,6796 -4518,7509 -340,241 -626,328 -848,298 -239,-32 -402,-190 -483,-432 -127,-389 -32,-1009 325,-1642 1218,-2170 2144,-3956 2840,-5817 694,-1861 1162,-3804 1463,-6292 99,-819 100,-1941 -146,-2902 -130,-503 -328,-962 -616,-1308l1 0c-282,-341 -652,-572 -1132,-630 -273,-33 -584,-11 -933,79 -2450,631 -3049,2775 -3726,5204 -577,2069 -1213,4343 -3079,6101 -623,585 -1151,885 -1583,966 -333,60 -610,-6 -831,-173 -216,-163 -376,-420 -477,-745 -199,-631 -183,-1526 44,-2471 386,-1610 1138,-2741 1898,-3883 466,-701 936,-1408 1322,-2229 326,-693 328,-1208 95,-1534 -236,-332 -724,-479 -1361,-430 -660,51 -1475,313 -2343,795 -2792,1552 -6121,5384 -6669,11898 -160,1917 97,4032 286,5576l0 1c122,1001 215,1765 147,2100 -144,702 -1205,1642 -2226,2547 -604,536 -1196,1060 -1565,1506 -1002,1214 -1907,2534 -2811,3854 -1521,2223 -3044,4445 -5043,6178l-200 173 38 -261c1196,-8302 3107,-16424 5020,-24558 1272,-5403 2544,-10810 3608,-16277 724,-3724 1036,-5327 842,-5363l-1 0c-153,-31 -707,805 -1677,2271 -474,714 -1043,1577 -1718,2557 -954,1384 -1460,2217 -1718,3122 -257,905 -268,1896 -229,3595 30,1277 -76,2550 -282,3808 -208,1258 -518,2499 -897,3712 -665,2126 -1972,4674 -3726,6684 -1415,1618 -3122,2890 -5021,3315 -1578,352 -2551,-113 -3467,-552 -792,-380 -1542,-740 -2618,-492 -634,146 -1249,503 -1875,868 -1306,762 -2666,1556 -4464,644 -1679,-852 -2336,-2719 -2431,-4867 -142,-3180 952,-6982 1775,-8957 1944,-4665 3511,-6796 4517,-7509l1 0c340,-242 625,-327 847,-298 240,32 404,190 483,432 129,389 32,1009 -324,1642 -1217,2170 -2143,3956 -2839,5817 -696,1862 -1163,3805 -1465,6292 -99,820 -100,1942 148,2903 129,503 327,963 614,1308 281,340 652,571 1132,629 273,33 583,11 934,-79 2450,-631 3048,-2774 3726,-5204 577,-2069 1212,-4343 3078,-6099 624,-587 1152,-887 1583,-968 333,-60 610,6 832,173 216,163 375,420 477,745 198,631 183,1526 -44,2471 -386,1611 -1139,2741 -1898,3884 -467,701 -937,1407 -1323,2228 -326,694 -327,1209 -94,1535 236,331 723,478 1360,430 661,-51 1476,-312 2344,-795 2792,-1552 6119,-5384 6668,-11898 161,-1919 -98,-4033 -286,-5577l0 -1c-121,-1001 -215,-1765 -146,-2101 144,-701 1203,-1641 2225,-2546 605,-536 1195,-1060 1564,-1506 1004,-1214 1907,-2534 2812,-3855l1 0zm-13768 18214c-91,19 -273,92 -521,386 -649,768 -1566,2013 -2160,3238 -386,797 -638,1585 -587,2222 560,-339 1440,-1557 2150,-2821 695,-1241 1224,-2516 1118,-3025l0 0zm123530 10816c-158,-746 -576,-1270 -1300,-1457 -5411,-1403 -9996,2620 -12758,7342 -1189,2033 -2043,4199 -2480,6122 -426,1874 -457,3496 -22,4502l1 0c301,695 865,1073 1715,974l34 -5 36 2c4370,188 9198,-4441 12136,-9228 975,-1593 1743,-3205 2210,-4658 454,-1414 624,-2671 428,-3594zm-21508 23848c-1037,199 -2203,-531 -3512,-2358l-156 -220 121 -243c4815,-9605 7322,-21762 9201,-30881 723,-3504 1354,-6565 1990,-8875l2 -6c919,-3144 1627,-6797 2279,-10170 888,-4582 1679,-8665 2811,-10430 665,-1038 1444,-1379 2398,-769 1930,1070 -684,10752 -3249,20252 -2015,7461 -4000,14811 -3794,17396 3925,-2011 7234,-3070 9940,-3156 2920,-94 5151,921 6711,3056l1 3c2011,2790 1451,6423 -281,10030 -2486,5178 -7412,10342 -10448,12755 -4866,3867 -6583,3121 -10168,1562l0 -2c-469,-203 -974,-422 -1550,-656 -595,1584 -1351,2531 -2296,2712zm95922 -4158l44 -142 1 0c77,-260 178,-591 364,-854l1 2c334,-476 830,-719 1606,-174l-1 1c815,567 2282,969 3986,1167 1966,229 4224,185 6170,-177 1885,-352 3460,-993 4131,-1956 174,-252 288,-530 323,-834 356,-3047 -2341,-5243 -4882,-7315 -1265,-1029 -2498,-2033 -3355,-3127 -1822,-2328 -1952,-4924 2709,-8576 3102,-2430 7130,-2385 9844,-1266 905,372 1674,868 2221,1430 584,600 930,1289 948,2005 27,1040 -626,2101 -2218,2989 -1258,805 -1870,727 -2224,175 -210,-329 -245,-785 -282,-1302l0 -1c-59,-814 -136,-1839 -1024,-2191 -949,-377 -2247,-285 -3452,152 -825,299 -1604,762 -2191,1343 -565,561 -954,1236 -1032,1980 -67,643 96,1359 573,2119 394,283 953,626 1591,1018 1309,802 2960,1814 4404,3061 3189,2753 5364,6590 945,11708l-13 15 -16 16c-2907,2762 -7421,3535 -11320,3227 -1782,-141 -3450,-514 -4779,-1024l-1 2c-1378,-528 -2413,-1227 -2873,-1993 -281,-473 -361,-971 -198,-1478zm41932 -20071c-740,-65 -1673,103 -2830,577l0 1c-3194,1329 -7006,5815 -9435,10235 -946,1724 -1681,3435 -2080,4939 -384,1447 -459,2683 -112,3518 155,371 402,666 746,855 602,330 1456,375 2827,-82l2 0c1473,-490 3495,-1549 6343,-3414l3 -2c1275,-816 2490,-1800 3541,-2986 1048,-1181 1939,-2571 2568,-4205 561,-1455 1058,-3750 956,-5745 -51,-994 -254,-1907 -672,-2574 -389,-622 -988,-1040 -1857,-1117zm2806 21297l-33 150 -42 188 -165 100c-1977,1195 -2553,340 -3196,-613 -223,-333 -462,-685 -786,-857 -493,-260 -2318,564 -4519,1561 -3893,1761 -8889,4022 -11412,1932l-1 -3c-763,-641 -1289,-1447 -1603,-2371 -840,-2467 -181,-5801 1291,-9222 1447,-3365 3687,-6840 6040,-9642 2411,-2872 4964,-5060 6945,-5743 1372,-633 2858,-1031 4200,-1180 1414,-156 2693,-35 3555,372 2361,1119 2478,2075 2590,3017 58,486 116,973 778,1494 2022,197 3047,386 2920,2040 -102,1338 -1234,3771 -3522,8531l2 0c-1665,3697 -2836,9262 -3041,10240l-1 6zm-113507 254c113,741 198,1289 116,1754 -30,984 -538,1311 -1220,1298l-2 0c-743,-14 -1682,-553 -2257,-884l0 2c-158,-91 -288,-166 -343,-191l-352 -161 106 -369c152,-535 234,-1101 269,-1783 38,-709 30,-1542 6,-2590 -35,-1602 96,-3205 356,-4784 259,-1577 648,-3136 1122,-4651 836,-2674 2482,-5881 4691,-8411 1796,-2056 3973,-3676 6404,-4219 2068,-462 3327,142 4513,710 930,445 1811,867 3034,587 737,-169 1479,-602 2235,-1043 1694,-989 3463,-2018 5854,-807 2207,1120 3073,3544 3196,6318 177,3998 -1196,8776 -2228,11253 -2439,5853 -4431,8546 -5720,9458 -495,350 -931,472 -1283,426 -434,-55 -730,-334 -869,-759l2 -1c-185,-564 -60,-1433 426,-2298 1504,-2679 2650,-4885 3503,-7170 852,-2282 1428,-4670 1797,-7732 120,-986 122,-2335 -173,-3483 -148,-578 -376,-1105 -698,-1494l1 0c-298,-358 -690,-605 -1192,-665 -301,-35 -647,-10 -1038,90 -2855,735 -3575,3309 -4389,6226 -728,2609 -1531,5479 -3913,7721 -821,773 -1534,1172 -2128,1282 -508,94 -939,-12 -1287,-271l-1 -2c-325,-245 -561,-622 -707,-1086l0 -3c-263,-835 -245,-2011 49,-3239 493,-2056 1442,-3484 2399,-4922 574,-861 1153,-1732 1619,-2725 348,-740 367,-1267 147,-1576 -222,-310 -723,-447 -1397,-395 -774,59 -1739,371 -2772,945 -3393,1885 -7438,6552 -8106,14501 -200,2373 52,4006 228,5142l2 1zm9228 -9075l39 -44c792,-939 1913,-2461 2636,-3950 317,-654 558,-1300 654,-1877 -602,639 -1361,1764 -2013,2925 -625,1115 -1145,2235 -1316,2946zm-62304 -13948c-147,-950 -452,-3089 1106,-3056 743,14 1685,555 2259,885l0 -2c154,88 280,161 339,188l350 162 -105 369c-153,535 -234,1100 -270,1783 -37,710 -29,1543 -6,2590 37,1603 -95,3205 -355,4784 -260,1575 -648,3134 -1122,4649 -835,2675 -2482,5883 -4689,8411 -1795,2057 -3972,3677 -6405,4221 -2067,459 -3329,-143 -4513,-711 -930,-446 -1811,-867 -3037,-586 -743,170 -1482,601 -2235,1040l-1 3c-1692,986 -3460,2017 -5850,805 -2209,-1120 -3073,-3543 -3196,-6316 -176,-4000 1197,-8776 2229,-11254 2439,-5854 4431,-8547 5718,-9458l1 0c495,-350 930,-473 1282,-427 435,56 730,336 870,758 184,560 56,1433 -429,2300 -1505,2681 -2649,4885 -3503,7171 -852,2282 -1427,4672 -1797,7734 -119,983 -121,2332 174,3481 148,578 374,1105 697,1495 296,357 690,604 1190,665 302,35 648,10 1039,-90 2857,-736 3576,-3312 4390,-6228 727,-2610 1531,-5478 3913,-7720 821,-772 1535,-1173 2128,-1283 213,-39 411,-45 595,-16l0 -454 192 495c182,51 349,136 499,249l2 0c324,246 561,624 707,1087l0 2c262,835 245,2011 -48,3238 -494,2057 -1445,3486 -2402,4925 -572,861 -1151,1730 -1618,2724 -347,739 -366,1266 -146,1574 222,311 723,448 1397,396 774,-59 1739,-371 2772,-945 3392,-1885 7438,-6554 8106,-14503 199,-2369 -53,-4000 -228,-5135zm-9233 9072l-35 41c-793,939 -1912,2457 -2635,3947 -319,657 -560,1305 -658,1883 604,-639 1364,-1767 2015,-2928 624,-1114 1141,-2234 1313,-2943zm21659 -3668l-368 336 -2 2c-1318,1187 -1731,1805 -1546,2009 407,454 2423,90 4782,-664 2476,-791 5268,-2044 7054,-3300 1243,-874 1973,-1696 1633,-2233 -3358,-3650 -9324,1808 -11553,3849l0 1zm-1838 20304c-3678,1155 -7257,869 -8885,-4310l-183 -584 81 0c-205,-1401 -146,-2853 130,-4314 827,-4381 3624,-8881 7155,-12463 3534,-3585 7821,-6270 11621,-7015 1260,-247 2475,-284 3596,-72l23 3 21 8c2105,623 3315,1479 3833,2475 536,1035 334,2177 -393,3345 -669,1078 -1805,2196 -3205,3271 -4719,3627 -12603,6904 -15846,6955 -687,595 -1299,1269 -1793,1976 -685,985 -1136,2030 -1239,3023 -99,953 124,1869 771,2639l-1 2c216,256 480,499 796,725 911,365 2087,335 3280,128 1253,-216 2518,-630 3528,-995 1086,-392 1946,-888 2639,-1289l2 0c527,-303 969,-558 1379,-694l0 -3c1164,-385 1887,58 2676,2441l215 647 -679 -58c-686,-58 -2130,696 -3871,1609 -1705,894 -3688,1933 -5651,2550zm86901 -24236c-738,-65 -1671,103 -2829,577l0 1c-3196,1329 -7009,5819 -9439,10243 -945,1720 -1680,3432 -2078,4933 -383,1446 -457,2681 -111,3515 155,373 403,667 748,856 600,330 1454,375 2825,-82l3 0c1473,-490 3495,-1548 6343,-3414l4 -2c1274,-816 2489,-1800 3540,-2986 1047,-1181 1938,-2571 2567,-4205 562,-1455 1060,-3750 956,-5745 -51,-994 -254,-1907 -672,-2574 -389,-622 -987,-1040 -1857,-1117zm2799 21327l-24 116 -42 191 -166 101c-1975,1194 -2554,342 -3194,-612l-1 2c-226,-335 -465,-689 -788,-860 -492,-261 -2318,564 -4521,1561 -3893,1761 -8887,4022 -11410,1932l-1 -1c-764,-641 -1287,-1447 -1603,-2373 -839,-2467 -179,-5801 1290,-9219 1446,-3367 3685,-6840 6038,-9642 2412,-2873 4968,-5063 6948,-5746 1373,-633 2859,-1031 4200,-1180 1413,-156 2692,-35 3554,372 2360,1119 2477,2077 2591,3016 59,487 117,974 778,1495 2023,197 3048,387 2921,2040 -102,1338 -1234,3770 -3523,8531l1 0c-1682,3740 -2866,9397 -3048,10273l0 3z"/>
 </g>
</svg>
