<?xml version="1.0" encoding="UTF-8"?>
<!DOCTYPE svg PUBLIC "-//W3C//DTD SVG 1.1//EN" "http://www.w3.org/Graphics/SVG/1.1/DTD/svg11.dtd">
<!-- Creator: CorelDRAW X7 -->
<svg xmlns="http://www.w3.org/2000/svg" xml:space="preserve" width="50px" height="50px" version="1.1" style="shape-rendering:geometricPrecision; text-rendering:geometricPrecision; image-rendering:optimizeQuality; fill-rule:evenodd; clip-rule:evenodd"
viewBox="0 0 50000 50000"
 xmlns:xlink="http://www.w3.org/1999/xlink">
 <defs>
  <style type="text/css">
   <![CDATA[
    .fil0 {fill:#CC3333;fill-rule:nonzero}
   ]]>
  </style>
 </defs>
 <g id="Layer_x0020_1">
  <metadata id="CorelCorpID_0Corel-Layer"/>
  <path class="fil0" d="M13132 26845l1984 0 0 10729 1875 0 0 -10729 2018 0 0 -1756 -5877 0 0 1756zm15858 1311c-619,0 -1199,339 -1743,1009l0 -4076 -1686 0 0 12485 1686 0 0 -901c564,695 1144,1029 1743,1029 670,0 1122,-354 1346,-1047 113,-394 170,-1013 170,-1873l0 -3704c0,-881 -57,-1495 -170,-1871 -224,-697 -676,-1051 -1346,-1051zm-170 6758c0,840 -245,1255 -731,1255 -278,0 -560,-134 -842,-415l0 -5669c282,-278 564,-410 842,-410 484,0 731,429 731,1268l0 3971zm-6403 466c-376,529 -728,789 -1067,789 -225,0 -353,-134 -395,-396 -15,-54 -15,-258 -15,-653l0 -6849 -1686 0 0 7356c0,656 58,1101 150,1383 170,470 544,692 1086,692 621,0 1257,-374 1927,-1143l0 1015 1688 0 0 -9303 -1688 0 0 7109zm1448 -15705c547,0 811,-433 811,-1305l0 -3954c0,-868 -264,-1304 -811,-1304 -549,0 -814,436 -814,1304l0 3954c0,872 265,1305 814,1305zm1136 -19675c-13810,0 -25001,11191 -25001,25001 0,13808 11191,24999 25001,24999 13808,0 24999,-11191 24999,-24999 0,-13810 -11191,-25001 -24999,-25001zm2781 11693l1698 0 0 6922c0,399 0,607 20,661 37,266 171,399 399,399 343,0 700,-264 1076,-796l0 -7186 1704 0 0 9402 -1704 0 0 -1026c-679,778 -1322,1156 -1945,1156 -549,0 -926,-224 -1098,-699 -94,-286 -150,-735 -150,-1400l0 -7433zm-6434 3065c0,-1004 169,-1738 531,-2215 473,-642 1137,-964 1986,-964 852,0 1515,322 1985,964 357,474 530,1211 530,2215l0 3292c0,999 -173,1741 -530,2211 -470,642 -1133,964 -1985,964 -849,0 -1513,-322 -1986,-964 -362,-470 -531,-1212 -531,-2211l0 -3292zm-4556 -6279l1341 4953 1288 -4953 1912 0 -2273 7505 0 5111 -1889 0 0 -5111c-172,-903 -550,-2230 -1156,-3991 -397,-1170 -813,-2345 -1212,-3514l1989 0zm21667 29915c-342,1484 -1553,2577 -3014,2743 -3461,385 -6959,386 -10446,385 -3485,1 -6987,0 -10445,-385 -1461,-166 -2673,-1259 -3015,-2743 -485,-2111 -485,-4419 -485,-6592 0,-2174 5,-4481 493,-6593 339,-1485 1553,-2577 3012,-2743 3459,-385 6960,-387 10445,-385 3487,-2 6986,0 10446,385 1461,166 2675,1258 3016,2743 484,2112 480,4419 480,6593 0,2173 0,4481 -487,6592zm-4101 -10238c-862,0 -1532,317 -2018,954 -357,473 -520,1199 -520,2193l0 3260c0,986 183,1720 540,2186 486,636 1158,953 2041,953 881,0 1571,-332 2037,-1009 206,-297 338,-636 395,-1008 15,-170 35,-543 35,-1087l0 -245 -1718 0c0,674 -23,1049 -38,1141 -97,449 -337,675 -754,675 -577,0 -862,-430 -862,-1289l0 -1651 3372 0 0 -1926c0,-994 -168,-1720 -522,-2193 -470,-637 -1141,-954 -1988,-954zm826 3669l-1686 0 0 -859c0,-862 283,-1291 845,-1291 560,0 841,429 841,1291l0 859z"/>
 </g>
</svg>
