<?xml version="1.0" encoding="UTF-8"?>
<!DOCTYPE svg PUBLIC "-//W3C//DTD SVG 1.1//EN" "http://www.w3.org/Graphics/SVG/1.1/DTD/svg11.dtd">
<!-- Creator: CorelDRAW X7 -->
<svg xmlns="http://www.w3.org/2000/svg" xml:space="preserve" width="35px" height="35px" version="1.1" style="shape-rendering:geometricPrecision; text-rendering:geometricPrecision; image-rendering:optimizeQuality; fill-rule:evenodd; clip-rule:evenodd"
viewBox="0 0 35000 35000"
 xmlns:xlink="http://www.w3.org/1999/xlink">
 <defs>
  <style type="text/css">
   <![CDATA[
    .fil0 {fill:#CC6666;fill-rule:nonzero}
   ]]>
  </style>
 </defs>
 <g id="Layer_x0020_1">
  <metadata id="CorelCorpID_0Corel-Layer"/>
  <path class="fil0" d="M17500 2188c8443,0 15313,6869 15313,15312 0,8443 -6870,15313 -15313,15313 -8443,0 -15312,-6870 -15312,-15313 0,-8443 6869,-15312 15312,-15312zm0 -2189c-9664,0 -17501,7837 -17501,17501 0,9664 7837,17500 17501,17500 9664,0 17500,-7836 17500,-17500 0,-9664 -7836,-17501 -17500,-17501zm9756 23352l-98 -300c-231,-687 -991,-1405 -1692,-1596l-2587 -708c-700,-190 -1700,66 -2216,581l-935 936c-3401,-921 -6069,-3589 -6988,-6990l937 -936c512,-513 769,-1512 578,-2215l-705 -2588c-190,-700 -913,-1461 -1600,-1691l-296 -99c-689,-230 -1673,3 -2187,517l-1401 1402c-250,248 -410,959 -410,962 -47,4447 1696,8731 4841,11877 3136,3136 7404,4877 11837,4838 24,0 756,-156 1007,-405l1400 -1402c513,-510 744,-1495 515,-2183z"/>
 </g>
</svg>
