<?xml version="1.0" encoding="utf-8"?>
<!-- Generator: Adobe Illustrator 18.0.0, SVG Export Plug-In . SVG Version: 6.00 Build 0)  -->
<!DOCTYPE svg PUBLIC "-//W3C//DTD SVG 1.1//EN" "http://www.w3.org/Graphics/SVG/1.1/DTD/svg11.dtd">
<svg version="1.1" id="Слой_1" xmlns="http://www.w3.org/2000/svg" xmlns:xlink="http://www.w3.org/1999/xlink" x="0px" y="0px"
	 viewBox="0 0 100 125" enable-background="new 0 0 100 125" xml:space="preserve">
<g id="Layer_x0020_1">
	<rect x="0" y="0" fill="none" width="100" height="125"/>
	<g id="_692108392">
		
			<linearGradient id="SVGID_1_" gradientUnits="userSpaceOnUse" x1="71562.7266" y1="28453.916" x2="-22524.5801" y2="-25867.6816" gradientTransform="matrix(1.000000e-003 0 0 -1.000000e-003 -898.101 -1015.8565)">
			<stop  offset="0" style="stop-color:#262626"/>
			<stop  offset="0.102" style="stop-color:#262626"/>
			<stop  offset="0.4392" style="stop-color:#505050"/>
			<stop  offset="0.4902" style="stop-color:#505050"/>
			<stop  offset="0.5216" style="stop-color:#505050"/>
			<stop  offset="0.7804" style="stop-color:#242123"/>
			<stop  offset="1" style="stop-color:#000000"/>
		</linearGradient>
		<path fill="url(#SVGID_1_)" d="M50.4,1.5c22,0,39.8,17.8,39.8,39.8c0,22-17.8,39.8-39.8,39.8S10.6,63.3,10.6,41.3
			C10.6,19.4,28.4,1.5,50.4,1.5z"/>
		<path fill="#231F1F" d="M90.7,41.3c0,22.2-18.1,40.3-40.3,40.3S10.1,63.5,10.1,41.3C10.1,19.1,28.2,1,50.4,1S90.7,19.1,90.7,41.3z
			 M11.1,41.3L11.1,41.3c0,21.7,17.6,39.3,39.3,39.3C72,80.6,89.7,63,89.7,41.3C89.7,19.7,72,2,50.4,2C28.7,2,11.1,19.7,11.1,41.3z"
			/>
	</g>
	<g id="_692107432">
		<path fill-opacity="0.502" d="M50.4,23.5c9.9,0,17.9,8,17.9,17.9c0,9.9-8,17.9-17.9,17.9c-9.9,0-17.9-8-17.9-17.9
			C32.5,31.5,40.5,23.5,50.4,23.5z"/>
	</g>
	<g id="_692106808" opacity="0.47">
		<path fill="#FF6760" d="M50.4,26.9c8,0,14.5,6.5,14.5,14.5c0,8-6.5,14.5-14.5,14.5s-14.5-6.5-14.5-14.5
			C35.9,33.3,42.4,26.9,50.4,26.9z"/>
	</g>
	<path fill="#231F1F" fill-opacity="0.6" d="M79.2,41.3c0,15.9-12.9,28.8-28.8,28.8S21.6,57.2,21.6,41.3c0-15.9,12.9-28.8,28.8-28.8
		S79.2,25.4,79.2,41.3z M22,41.3L22,41.3C22,57,34.7,69.7,50.4,69.7c15.7,0,28.4-12.7,28.4-28.4c0-15.7-12.7-28.4-28.4-28.4
		C34.7,12.9,22,25.6,22,41.3z"/>
	<path fill="#231F1F" fill-opacity="0.6" d="M73,41.3C73,53.8,62.9,64,50.4,64c-12.5,0-22.6-10.2-22.6-22.6
		c0-12.5,10.2-22.6,22.6-22.6C62.9,18.7,73,28.8,73,41.3z M28.2,41.3L28.2,41.3c0,12.3,10,22.2,22.2,22.2c12.3,0,22.2-10,22.2-22.2
		c0-12.3-10-22.2-22.2-22.2C38.1,19.1,28.2,29.1,28.2,41.3z"/>
	<path fill="#D8DADB" d="M50.4,35.6c3.2,0,5.7,2.6,5.7,5.7c0,3.2-2.6,5.7-5.7,5.7c-3.2,0-5.7-2.6-5.7-5.7
		C44.7,38.2,47.2,35.6,50.4,35.6z"/>
	<path fill="#231F1F" fill-opacity="0.6" d="M85.2,41.3c0,19.2-15.6,34.8-34.8,34.8S15.6,60.5,15.6,41.3c0-19.2,15.6-34.8,34.8-34.8
		S85.2,22.1,85.2,41.3z M16.1,41.3L16.1,41.3c0,18.9,15.4,34.3,34.3,34.3s34.3-15.4,34.3-34.3c0-18.9-15.4-34.3-34.3-34.3
		S16.1,22.4,16.1,41.3z"/>
	<g>
		<defs>
			<rect id="SVGID_2_" x="9.7" y="26.9" width="82.3" height="98.1"/>
		</defs>
		<clipPath id="SVGID_3_">
			<use xlink:href="#SVGID_2_"  overflow="visible"/>
		</clipPath>
		<g clip-path="url(#SVGID_3_)">
		</g>
	</g>
	<g id="_318026576">
		<polygon fill="#FF6760" points="92,40.4 92,123.7 9.7,123.7 9.7,40.4 		"/>
	</g>
	<path fill="#FFFFFF" d="M29.5,50l-5.8,13.6c-0.1,0.2-0.2,0.3-0.3,0.4c-0.1,0.1-0.3,0.1-0.6,0.1h-1.9l2-4.3L18.5,50h2.3
		c0.2,0,0.4,0,0.5,0.1c0.1,0.1,0.2,0.2,0.3,0.3l2.3,5.5c0.1,0.2,0.1,0.4,0.2,0.6c0.1,0.2,0.1,0.4,0.1,0.6c0.1-0.2,0.1-0.4,0.2-0.6
		c0.1-0.2,0.1-0.4,0.2-0.6l2.1-5.5c0.1-0.1,0.1-0.3,0.3-0.3c0.1-0.1,0.3-0.1,0.4-0.1H29.5z"/>
	<path id="_x31_" fill="#FFFFFF" d="M35.1,49.9c0.8,0,1.5,0.1,2.2,0.4c0.6,0.3,1.2,0.6,1.7,1.1c0.5,0.5,0.8,1,1.1,1.7
		c0.2,0.7,0.4,1.4,0.4,2.3c0,0.8-0.1,1.6-0.4,2.3c-0.3,0.7-0.6,1.3-1.1,1.7c-0.5,0.5-1,0.8-1.7,1.1c-0.7,0.3-1.4,0.4-2.2,0.4
		c-0.8,0-1.5-0.1-2.2-0.4c-0.7-0.3-1.2-0.6-1.7-1.1c-0.5-0.5-0.8-1.1-1.1-1.7c-0.3-0.7-0.4-1.4-0.4-2.3c0-0.8,0.1-1.6,0.4-2.3
		c0.3-0.7,0.6-1.3,1.1-1.7c0.5-0.5,1-0.8,1.7-1.1C33.6,50,34.3,49.9,35.1,49.9z M35.1,58.9c0.9,0,1.5-0.3,2-0.9
		c0.4-0.6,0.6-1.5,0.6-2.6s-0.2-2-0.6-2.6c-0.4-0.6-1.1-0.9-2-0.9c-0.9,0-1.6,0.3-2,0.9c-0.4,0.6-0.7,1.5-0.7,2.6
		c0,1.1,0.2,2,0.7,2.6C33.6,58.6,34.2,58.9,35.1,58.9z"/>
	<path id="_x32_" fill="#FFFFFF" d="M51.6,50v10.7H50c-0.3,0-0.6-0.2-0.6-0.5l-0.2-0.9c-0.4,0.4-0.9,0.8-1.5,1.1
		c-0.5,0.3-1.2,0.4-1.9,0.4c-0.6,0-1.1-0.1-1.5-0.3c-0.4-0.2-0.8-0.5-1.1-0.8c-0.3-0.4-0.5-0.8-0.7-1.3c-0.2-0.5-0.2-1-0.2-1.6V50
		h2.6v6.8c0,0.7,0.2,1.2,0.5,1.5c0.3,0.4,0.8,0.5,1.4,0.5c0.4,0,0.9-0.1,1.3-0.3c0.4-0.2,0.8-0.5,1.1-0.8V50H51.6z"/>
	<path id="_x33_" fill="#FFFFFF" d="M56.6,51.9c0.3-0.6,0.7-1.1,1.2-1.5c0.5-0.4,1-0.5,1.6-0.5c0.5,0,0.9,0.1,1.2,0.3l-0.2,1.9
		c0,0.1-0.1,0.2-0.2,0.3c-0.1,0.1-0.2,0.1-0.3,0.1c-0.1,0-0.3,0-0.5-0.1c-0.2,0-0.4-0.1-0.6-0.1c-0.3,0-0.5,0-0.8,0.1
		c-0.2,0.1-0.4,0.2-0.6,0.4c-0.2,0.2-0.3,0.3-0.5,0.6c-0.1,0.2-0.3,0.5-0.4,0.8v6.6h-2.6V50h1.5c0.3,0,0.4,0,0.6,0.1
		c0.1,0.1,0.2,0.3,0.2,0.5L56.6,51.9z"/>
	<path id="_x34_" fill="#2B2A29" d="M22.3,83c0.3,0.4,0.6,0.6,1,0.8c0.3,0.1,0.7,0.2,1.1,0.2c0.4,0,0.8-0.1,1.1-0.2
		c0.3-0.1,0.6-0.4,0.8-0.7c0.2-0.3,0.4-0.7,0.5-1.2c0.1-0.5,0.2-1,0.2-1.7c0-1.2-0.2-2-0.6-2.6c-0.4-0.5-1-0.8-1.7-0.8
		c-0.5,0-0.9,0.1-1.3,0.3c-0.4,0.2-0.7,0.5-1.1,1V83z M22.3,76.4c0.4-0.5,0.9-0.8,1.4-1.1c0.5-0.3,1.1-0.4,1.8-0.4
		c0.6,0,1.2,0.1,1.7,0.4c0.5,0.2,0.9,0.6,1.3,1c0.4,0.5,0.6,1,0.8,1.7c0.2,0.6,0.3,1.4,0.3,2.2c0,0.9-0.1,1.7-0.3,2.4
		c-0.2,0.7-0.5,1.3-0.9,1.8c-0.4,0.5-0.9,0.9-1.4,1.2c-0.6,0.3-1.2,0.4-1.9,0.4c-0.3,0-0.6,0-0.9-0.1c-0.3-0.1-0.5-0.2-0.8-0.3
		c-0.2-0.1-0.4-0.3-0.6-0.4c-0.2-0.2-0.4-0.4-0.5-0.6l-0.1,0.7c0,0.2-0.1,0.3-0.2,0.4c-0.1,0.1-0.2,0.1-0.4,0.1h-1.7V70.3h2.6V76.4z
		"/>
	<path id="_x35_" fill="#2B2A29" d="M34,76.9c0.3-0.6,0.7-1.1,1.2-1.5s1-0.5,1.6-0.5c0.5,0,0.9,0.1,1.2,0.3l-0.2,1.9
		c0,0.1-0.1,0.2-0.2,0.3c-0.1,0.1-0.2,0.1-0.3,0.1c-0.1,0-0.3,0-0.5-0.1c-0.2,0-0.4-0.1-0.6-0.1c-0.3,0-0.5,0-0.8,0.1
		c-0.2,0.1-0.4,0.2-0.6,0.4c-0.2,0.2-0.3,0.3-0.5,0.6c-0.1,0.2-0.3,0.5-0.4,0.8v6.6h-2.6V75.1h1.5c0.3,0,0.4,0,0.6,0.1
		c0.1,0.1,0.2,0.3,0.2,0.5L34,76.9z"/>
	<path id="_x36_" fill="#2B2A29" d="M44.9,81.2c-0.7,0-1.4,0.1-1.9,0.2c-0.5,0.1-0.9,0.2-1.2,0.4c-0.3,0.1-0.5,0.3-0.7,0.5
		c-0.1,0.2-0.2,0.4-0.2,0.6c0,0.5,0.1,0.8,0.4,1c0.3,0.2,0.6,0.3,1,0.3c0.5,0,1-0.1,1.4-0.3c0.4-0.2,0.8-0.5,1.1-0.9V81.2z M39,76.6
		c1.2-1.1,2.7-1.7,4.4-1.7c0.6,0,1.2,0.1,1.7,0.3c0.5,0.2,0.9,0.5,1.3,0.9c0.3,0.4,0.6,0.8,0.8,1.3c0.2,0.5,0.3,1.1,0.3,1.7v6.8
		h-1.2c-0.2,0-0.4,0-0.6-0.1c-0.1-0.1-0.2-0.2-0.3-0.4l-0.2-0.8c-0.3,0.2-0.5,0.5-0.8,0.6c-0.3,0.2-0.5,0.3-0.8,0.5
		c-0.3,0.1-0.6,0.2-0.9,0.3c-0.3,0.1-0.7,0.1-1,0.1c-0.5,0-0.9-0.1-1.3-0.2c-0.4-0.1-0.7-0.3-1-0.5c-0.3-0.2-0.5-0.5-0.6-0.9
		c-0.2-0.4-0.2-0.8-0.2-1.3c0-0.3,0-0.5,0.1-0.8c0.1-0.3,0.2-0.5,0.4-0.8c0.2-0.2,0.5-0.5,0.8-0.7c0.3-0.2,0.7-0.4,1.2-0.6
		c0.5-0.2,1-0.3,1.7-0.4c0.6-0.1,1.4-0.2,2.2-0.2V79c0-0.7-0.2-1.2-0.5-1.6c-0.3-0.3-0.7-0.5-1.3-0.5c-0.4,0-0.8,0-1,0.1
		c-0.3,0.1-0.5,0.2-0.7,0.3c-0.2,0.1-0.4,0.2-0.6,0.3c-0.2,0.1-0.4,0.1-0.6,0.1c-0.2,0-0.3,0-0.5-0.1c-0.1-0.1-0.2-0.2-0.3-0.3
		L39,76.6z"/>
	<path id="_x37_" fill="#2B2A29" d="M52.2,76.4c0.2-0.2,0.4-0.4,0.7-0.6c0.2-0.2,0.5-0.3,0.8-0.5c0.3-0.1,0.6-0.2,0.9-0.3
		c0.3-0.1,0.6-0.1,1-0.1c0.6,0,1.1,0.1,1.6,0.3c0.5,0.2,0.8,0.5,1.1,0.8c0.3,0.4,0.5,0.8,0.7,1.3c0.2,0.5,0.2,1,0.2,1.6v6.8h-2.6V79
		c0-0.7-0.1-1.2-0.4-1.5c-0.3-0.4-0.8-0.5-1.4-0.5c-0.4,0-0.9,0.1-1.3,0.3c-0.4,0.2-0.8,0.5-1.1,0.8v7.7h-2.6V75.1h1.6
		c0.3,0,0.6,0.2,0.7,0.5L52.2,76.4z"/>
	<path id="_x38_" fill="#2B2A29" d="M68.3,77.8c-0.3-0.4-0.6-0.6-1-0.8c-0.3-0.1-0.7-0.2-1.1-0.2c-0.4,0-0.7,0.1-1.1,0.2
		c-0.3,0.1-0.6,0.4-0.8,0.7c-0.2,0.3-0.4,0.7-0.5,1.1c-0.1,0.5-0.2,1-0.2,1.6c0,0.6,0.1,1.2,0.2,1.6c0.1,0.4,0.2,0.8,0.4,1.1
		c0.2,0.3,0.4,0.5,0.7,0.6c0.3,0.1,0.6,0.2,0.9,0.2c0.5,0,1-0.1,1.4-0.3c0.4-0.2,0.7-0.5,1.1-1V77.8z M70.9,70.3v15.5h-1.6
		c-0.3,0-0.6-0.2-0.6-0.5l-0.2-1c-0.4,0.5-0.9,0.9-1.5,1.2s-1.2,0.5-2,0.5c-0.6,0-1.1-0.1-1.6-0.4c-0.5-0.2-0.9-0.6-1.3-1.1
		c-0.3-0.5-0.6-1-0.8-1.7c-0.2-0.7-0.3-1.5-0.3-2.3c0-0.8,0.1-1.5,0.3-2.2c0.2-0.7,0.5-1.3,0.9-1.8c0.4-0.5,0.9-0.9,1.4-1.2
		c0.6-0.3,1.2-0.4,1.9-0.4c0.6,0,1.1,0.1,1.5,0.3c0.4,0.2,0.8,0.4,1.1,0.8v-5.6H70.9z"/>
	<path id="_x39_" fill="#FFFFFF" d="M22.3,101.2c0.4-0.4,0.9-0.7,1.4-0.9c0.5-0.2,1.1-0.4,1.8-0.4c0.6,0,1.1,0.1,1.6,0.3
		c0.5,0.2,0.8,0.5,1.1,0.8c0.3,0.4,0.5,0.8,0.7,1.3c0.2,0.5,0.2,1,0.2,1.6v6.8h-2.6V104c0-0.7-0.1-1.2-0.4-1.5
		c-0.3-0.4-0.8-0.5-1.4-0.5c-0.4,0-0.9,0.1-1.3,0.3c-0.4,0.2-0.8,0.5-1.1,0.8v7.7h-2.6V95.3h2.6V101.2z"/>
	<path id="_x31_0" fill="#FFFFFF" d="M34.2,100.1v10.7h-2.6v-10.7H34.2z M34.5,97c0,0.2,0,0.4-0.1,0.6c-0.1,0.2-0.2,0.4-0.4,0.5
		c-0.1,0.1-0.3,0.3-0.5,0.3c-0.2,0.1-0.4,0.1-0.6,0.1c-0.2,0-0.4,0-0.6-0.1c-0.2-0.1-0.4-0.2-0.5-0.3c-0.1-0.1-0.3-0.3-0.3-0.5
		c-0.1-0.2-0.1-0.4-0.1-0.6c0-0.2,0-0.4,0.1-0.6c0.1-0.2,0.2-0.4,0.3-0.5c0.1-0.1,0.3-0.3,0.5-0.4c0.2-0.1,0.4-0.1,0.6-0.1
		c0.2,0,0.4,0,0.6,0.1c0.2,0.1,0.4,0.2,0.5,0.4c0.1,0.1,0.3,0.3,0.4,0.5C34.5,96.5,34.5,96.7,34.5,97z"/>
	<path id="_x31_1" fill="#FFFFFF" d="M43.3,102.2c-0.1,0.1-0.1,0.2-0.2,0.2c-0.1,0-0.2,0.1-0.3,0.1c-0.1,0-0.3,0-0.4-0.1
		c-0.1-0.1-0.3-0.1-0.5-0.2c-0.2-0.1-0.4-0.2-0.6-0.2c-0.2-0.1-0.5-0.1-0.9-0.1c-0.5,0-0.9,0.1-1.2,0.3c-0.3,0.2-0.4,0.5-0.4,0.8
		c0,0.2,0.1,0.4,0.2,0.6c0.2,0.2,0.3,0.3,0.6,0.4c0.2,0.1,0.5,0.2,0.8,0.3c0.3,0.1,0.6,0.2,1,0.3c0.3,0.1,0.6,0.2,1,0.4
		c0.3,0.1,0.6,0.3,0.8,0.5c0.2,0.2,0.4,0.5,0.6,0.8c0.1,0.3,0.2,0.7,0.2,1.1c0,0.5-0.1,1-0.3,1.4c-0.2,0.4-0.5,0.8-0.8,1.1
		c-0.4,0.3-0.8,0.6-1.3,0.7c-0.5,0.2-1.1,0.3-1.8,0.3c-0.4,0-0.7,0-1.1-0.1c-0.4-0.1-0.7-0.2-1-0.3c-0.3-0.1-0.6-0.3-0.9-0.4
		c-0.3-0.2-0.5-0.3-0.7-0.5l0.6-1c0.1-0.1,0.2-0.2,0.3-0.3c0.1-0.1,0.2-0.1,0.4-0.1c0.2,0,0.3,0,0.5,0.1c0.1,0.1,0.3,0.2,0.5,0.3
		c0.2,0.1,0.4,0.2,0.7,0.3c0.3,0.1,0.6,0.1,1,0.1c0.3,0,0.6,0,0.8-0.1c0.2-0.1,0.4-0.2,0.5-0.3c0.1-0.1,0.2-0.3,0.3-0.4
		c0.1-0.2,0.1-0.3,0.1-0.5c0-0.3-0.1-0.5-0.2-0.6c-0.1-0.2-0.3-0.3-0.6-0.4c-0.2-0.1-0.5-0.2-0.8-0.3c-0.3-0.1-0.6-0.2-1-0.3
		c-0.3-0.1-0.7-0.2-1-0.4c-0.3-0.2-0.6-0.3-0.8-0.6c-0.2-0.2-0.4-0.5-0.6-0.8c-0.2-0.3-0.2-0.7-0.2-1.2c0-0.4,0.1-0.9,0.3-1.3
		c0.2-0.4,0.4-0.7,0.8-1c0.3-0.3,0.8-0.5,1.3-0.7c0.5-0.2,1.1-0.3,1.7-0.3c0.7,0,1.4,0.1,2,0.4c0.6,0.2,1.1,0.6,1.5,1L43.3,102.2z"
		/>
	<path id="_x31_2" fill="#FFFFFF" d="M49.5,111c-0.9,0-1.6-0.3-2.1-0.8c-0.5-0.5-0.7-1.2-0.7-2.2v-6h-1.1c-0.1,0-0.3,0-0.4-0.1
		c-0.1-0.1-0.1-0.2-0.1-0.4v-1l1.7-0.3l0.5-2.9c0-0.1,0.1-0.2,0.2-0.3c0.1-0.1,0.2-0.1,0.4-0.1h1.3v3.4h2.9v1.8h-2.9v5.8
		c0,0.3,0.1,0.6,0.2,0.8c0.2,0.2,0.4,0.3,0.7,0.3c0.2,0,0.3,0,0.4-0.1c0.1,0,0.2-0.1,0.3-0.1c0.1,0,0.1-0.1,0.2-0.1
		c0.1,0,0.1-0.1,0.2-0.1c0.1,0,0.1,0,0.2,0.1c0,0,0.1,0.1,0.2,0.2l0.8,1.3c-0.4,0.3-0.8,0.5-1.3,0.7C50.6,110.9,50.1,111,49.5,111z"
		/>
	<path id="_x31_3" fill="#FFFFFF" d="M58.4,99.9c0.8,0,1.5,0.1,2.2,0.4c0.7,0.3,1.2,0.6,1.7,1.1c0.5,0.5,0.8,1,1.1,1.7
		c0.2,0.7,0.4,1.4,0.4,2.3c0,0.8-0.1,1.6-0.4,2.3c-0.3,0.7-0.6,1.3-1.1,1.7c-0.5,0.5-1,0.8-1.7,1.1c-0.7,0.3-1.4,0.4-2.2,0.4
		c-0.8,0-1.5-0.1-2.2-0.4c-0.7-0.3-1.2-0.6-1.7-1.1c-0.5-0.5-0.8-1.1-1.1-1.7c-0.3-0.7-0.4-1.4-0.4-2.3c0-0.8,0.1-1.6,0.4-2.3
		c0.3-0.7,0.6-1.3,1.1-1.7c0.5-0.5,1-0.8,1.7-1.1C56.9,100.1,57.6,99.9,58.4,99.9z M58.4,109c0.9,0,1.6-0.3,2-0.9
		c0.4-0.6,0.6-1.5,0.6-2.6s-0.2-2-0.6-2.6c-0.4-0.6-1.1-0.9-2-0.9c-0.9,0-1.6,0.3-2,0.9c-0.4,0.6-0.7,1.5-0.7,2.6
		c0,1.1,0.2,2,0.7,2.6C56.8,108.7,57.5,109,58.4,109z"/>
	<path id="_x31_4" fill="#FFFFFF" d="M68.1,101.9c0.3-0.6,0.7-1.1,1.2-1.5c0.5-0.4,1-0.5,1.6-0.5c0.5,0,0.9,0.1,1.2,0.3l-0.2,1.9
		c0,0.1-0.1,0.2-0.2,0.3c-0.1,0.1-0.2,0.1-0.3,0.1c-0.1,0-0.3,0-0.5-0.1c-0.2,0-0.4-0.1-0.6-0.1c-0.3,0-0.5,0-0.8,0.1
		c-0.2,0.1-0.4,0.2-0.6,0.4c-0.2,0.2-0.3,0.3-0.5,0.6c-0.1,0.2-0.3,0.5-0.4,0.8v6.6h-2.6v-10.7h1.5c0.3,0,0.4,0,0.6,0.1
		c0.1,0.1,0.2,0.3,0.2,0.5L68.1,101.9z"/>
	<path id="_x31_5" fill="#FFFFFF" d="M83.1,100.1l-5.8,13.6c-0.1,0.2-0.2,0.3-0.3,0.4c-0.1,0.1-0.3,0.1-0.6,0.1h-1.9l2-4.3l-4.3-9.9
		h2.3c0.2,0,0.4,0,0.5,0.1c0.1,0.1,0.2,0.2,0.3,0.3l2.3,5.5c0.1,0.2,0.1,0.4,0.2,0.6c0.1,0.2,0.1,0.4,0.2,0.6
		c0.1-0.2,0.1-0.4,0.2-0.6c0.1-0.2,0.1-0.4,0.2-0.6l2.1-5.5c0.1-0.1,0.1-0.3,0.3-0.3c0.1-0.1,0.3-0.1,0.4-0.1H83.1z"/>
	<path fill="#FFFFFF" d="M12.8,43.7h75.1h0.5v0.5v75.1v0.5h-0.5H12.8h-0.4v-0.5V44.2v-0.5H12.8z M87.4,44.6H13.2v74.2h74.2V44.6z"/>
</g>
</svg>
