<?xml version="1.0" encoding="UTF-8"?>
<!DOCTYPE svg PUBLIC "-//W3C//DTD SVG 1.1//EN" "http://www.w3.org/Graphics/SVG/1.1/DTD/svg11.dtd">
<!-- Creator: CorelDRAW X7 -->
<svg xmlns="http://www.w3.org/2000/svg" xml:space="preserve" width="100px" height="100px" version="1.1" style="shape-rendering:geometricPrecision; text-rendering:geometricPrecision; image-rendering:optimizeQuality; fill-rule:evenodd; clip-rule:evenodd"
viewBox="0 0 100000 100000"
 xmlns:xlink="http://www.w3.org/1999/xlink">
 <defs>
  <style type="text/css">
   <![CDATA[
    .fil0 {fill:#C85050}
   ]]>
  </style>
 </defs>
 <g id="Layer_x0020_1">
  <metadata id="CorelCorpID_0Corel-Layer"/>
  <path class="fil0" d="M69722 49905c-1019,1817 -1793,3683 -1639,4428 134,-27 401,-135 764,-564 950,-1125 2292,-2948 3163,-4743 566,-1167 934,-2321 860,-3253 -821,495 -2109,2281 -3148,4132zm-53899 34272c-8747,-8747 -14157,-20831 -14157,-34177 0,-13346 5410,-25430 14157,-34177 8747,-8747 20831,-14157 34177,-14157 13347,0 25431,5410 34177,14157 8747,8747 14157,20831 14157,34177 0,13346 -5410,25430 -14157,34177 -8746,8747 -20830,14157 -34177,14157 -13346,0 -25430,-5410 -34177,-14157zm4089 -4089c7700,7700 18338,12463 30088,12463 11751,0 22389,-4763 30089,-12463 7699,-7699 12462,-18338 12462,-30088 0,-11750 -4763,-22389 -12462,-30088 -7700,-7700 -18338,-12463 -30089,-12463 -11750,0 -22388,4763 -30088,12463 -7700,7699 -12463,18338 -12463,30088 0,11750 4763,22389 12463,30088zm32170 -61100c2227,-3253 4459,-6510 7387,-9047l291 -253 -55 382c-1751,12160 -4550,24055 -7353,35969 -1861,7912 -3726,15834 -5285,23841 -1060,5454 -1516,7801 -1233,7855l1 0c227,45 1037,-1180 2458,-3329 693,-1047 1528,-2309 2516,-3744 1396,-2027 2138,-3247 2515,-4572 377,-1326 394,-2778 336,-5266 -43,-1868 111,-3734 414,-5577 303,-1841 757,-3660 1312,-5436 975,-3115 2890,-6847 5460,-9789 2071,-2372 4571,-4235 7353,-4857 2311,-517 3735,165 5076,808 1161,556 2260,1083 3836,721 929,-213 1829,-737 2746,-1273 1911,-1115 3905,-2278 6540,-942 2457,1247 3420,3983 3560,7128 206,4657 -1396,10228 -2600,13119 -2847,6833 -5142,9954 -6618,10999 -498,353 -916,479 -1241,436 -351,-47 -591,-279 -708,-634 -188,-569 -47,-1477 475,-2405 1783,-3177 3140,-5793 4159,-8519 1018,-2726 1703,-5572 2144,-9216 145,-1200 147,-2843 -215,-4251 -190,-737 -480,-1410 -901,-1917l1 0c-413,-497 -955,-837 -1658,-922 -400,-48 -855,-15 -1367,116 -3588,924 -4465,4064 -5457,7622 -846,3031 -1776,6362 -4510,8935 -913,858 -1686,1298 -2318,1415 -487,89 -893,-9 -1217,-252 -317,-239 -550,-617 -700,-1091 -290,-924 -267,-2236 64,-3619 566,-2359 1668,-4016 2781,-5688 683,-1027 1372,-2062 1937,-3265 477,-1016 479,-1769 138,-2247 -346,-486 -1059,-701 -1993,-629 -966,74 -2160,457 -3432,1164 -4089,2273 -8963,7886 -9766,17426 -235,2809 142,5907 418,8168l0 1c178,1465 315,2584 214,3077 -210,1027 -1763,2404 -3258,3729 -886,785 -1752,1553 -2292,2206 -1469,1777 -2794,3712 -4118,5645 -2228,3254 -4459,6511 -7387,9048l-292 253 55 -382c1751,-12159 4550,-24055 7353,-35969 1862,-7912 3726,-15833 5285,-23840 1060,-5454 1516,-7801 1233,-7856l-1 0c-226,-44 -1036,1180 -2457,3328 -693,1047 -1528,2309 -2517,3745 -1395,2027 -2138,3247 -2515,4572 -377,1327 -393,2778 -336,5266 43,1869 -111,3735 -414,5577 -303,1842 -757,3661 -1312,5437 -975,3114 -2889,6846 -5459,9789 -2072,2371 -4572,4234 -7353,4856 -2312,517 -3736,-165 -5077,-808 -1161,-556 -2260,-1083 -3836,-721 -929,213 -1829,738 -2746,1273 -1912,1115 -3905,2278 -6539,942 -2457,-1247 -3421,-3983 -3560,-7128 -207,-4657 1395,-10227 2600,-13119 2847,-6833 5142,-9954 6616,-10999l1 0c498,-353 916,-478 1241,-435 351,46 592,279 708,633 188,569 47,1477 -474,2405 -1784,3178 -3141,5793 -4160,8520 -1018,2725 -1703,5571 -2144,9215 -145,1200 -147,2844 216,4252 189,737 479,1410 900,1916 412,497 954,837 1656,922 401,48 855,15 1368,-117 3589,-923 4465,-4063 5458,-7621 845,-3031 1775,-6362 4509,-8934 913,-859 1687,-1299 2318,-1416 487,-89 893,9 1217,253 317,238 551,616 700,1091 290,923 268,2235 -64,3618 -566,2360 -1668,4016 -2781,5688 -683,1028 -1372,2063 -1937,3265 -477,1016 -479,1769 -138,2247 346,486 1059,701 1993,629 966,-74 2160,-456 3432,-1164 4089,-2273 8963,-7885 9766,-17425 236,-2810 -142,-5908 -418,-8169l0 -1c-178,-1465 -315,-2584 -214,-3077 211,-1027 1763,-2403 3258,-3728 886,-785 1752,-1554 2292,-2206 1470,-1779 2794,-3713 4119,-5647zm-20165 26677c-133,27 -399,135 -763,565 -951,1125 -2293,2948 -3164,4743 -566,1168 -934,2321 -860,3254 821,-497 2109,-2281 3148,-4132 1020,-1818 1794,-3685 1639,-4430z"/>
 </g>
</svg>
