<?xml version="1.0" encoding="UTF-8"?>
<!DOCTYPE svg PUBLIC "-//W3C//DTD SVG 1.1//EN" "http://www.w3.org/Graphics/SVG/1.1/DTD/svg11.dtd">
<!-- Creator: CorelDRAW X7 -->
<svg xmlns="http://www.w3.org/2000/svg" xml:space="preserve" width="140px" height="110px" version="1.1" style="shape-rendering:geometricPrecision; text-rendering:geometricPrecision; image-rendering:optimizeQuality; fill-rule:evenodd; clip-rule:evenodd"
viewBox="0 0 140000 110000"
 xmlns:xlink="http://www.w3.org/1999/xlink">
 <defs>
  <style type="text/css">
   <![CDATA[
    .fil0 {fill:#C85050}
   ]]>
  </style>
 </defs>
 <g id="Layer_x0020_1">
  <metadata id="CorelCorpID_0Corel-Layer"/>
  <path class="fil0" d="M90116 107295c10,-31 21,-66 32,-103 48,-160 109,-363 212,-510 138,-198 349,-293 700,-48 614,428 1690,727 2931,872 1402,165 3015,133 4408,-127 1392,-260 2563,-747 3086,-1495 152,-218 249,-459 280,-722 270,-2301 -1684,-3892 -3528,-5394 -874,-711 -1722,-1401 -2300,-2139 -1167,-1490 -1229,-3168 1843,-5575 2074,-1625 4768,-1593 6586,-844 595,245 1096,566 1452,932 356,366 566,776 577,1198 17,619 -396,1261 -1403,1822 -692,444 -998,448 -1144,220 -105,-163 -125,-446 -149,-769 -48,-655 -108,-1478 -910,-1796 -735,-291 -1722,-226 -2632,104 -619,224 -1202,571 -1646,1011 -443,440 -748,973 -811,1570 -55,532 80,1114 480,1728 291,214 703,467 1180,759 907,556 2048,1255 3042,2113 2116,1827 3561,4371 631,7764l0 1 -1 0c-1963,1865 -5031,2384 -7688,2174 -1223,-97 -2359,-349 -3261,-696 -903,-347 -1571,-789 -1857,-1267 -153,-254 -196,-518 -110,-783zm-37505 -13939c-136,-638 -498,-1087 -1133,-1251 -3951,-1026 -7275,1872 -9269,5281 -850,1452 -1458,2998 -1771,4372 -312,1373 -329,2574 3,3340 268,617 763,950 1515,863l0 0 1 0c3185,137 6663,-3176 8767,-6606 698,-1136 1244,-2285 1579,-3326 334,-1040 457,-1971 308,-2673zm-15411 16455c-601,116 -1313,-358 -2152,-1527l-3 -4 3 -5c3389,-6759 5147,-15288 6466,-21689 505,-2448 945,-4586 1388,-6194l0 0c648,-2219 1144,-4778 1602,-7143 616,-3179 1164,-6008 1924,-7194 362,-564 771,-759 1258,-446l0 0c1189,527 -625,7244 -2405,13837 -1536,5683 -3045,11273 -2586,12716 2868,-1511 5260,-2302 7193,-2364 1935,-63 3410,606 4440,2014l0 0c1331,1845 943,4279 -224,6710 -1717,3577 -5125,7148 -7228,8819 -3263,2594 -4410,2095 -6804,1054 -419,-182 -876,-380 -1389,-582 -394,1181 -883,1882 -1483,1998zm67486 -2516c10,-31 20,-66 32,-103 48,-160 109,-363 212,-510 138,-198 349,-293 700,-48 614,428 1690,727 2930,872 1403,165 3016,133 4409,-127 1391,-260 2563,-747 3085,-1495 153,-218 250,-459 281,-722 269,-2301 -1684,-3892 -3528,-5394 -873,-711 -1722,-1401 -2300,-2139 -1168,-1490 -1230,-3168 1843,-5575 2074,-1625 4768,-1593 6586,-844 595,245 1096,566 1452,932 356,366 566,776 577,1198 16,619 -396,1261 -1403,1822 -692,444 -998,448 -1144,220 -105,-163 -126,-446 -149,-769 -48,-655 -108,-1478 -910,-1796 -735,-291 -1722,-226 -2632,104 -619,224 -1202,571 -1646,1011 -444,440 -748,973 -811,1570 -56,532 80,1114 480,1728 291,214 703,467 1180,759 907,556 2048,1255 3042,2113 2117,1827 3560,4371 631,7764l-1 1 0 0c-1963,1865 -5030,2384 -7688,2174 -1223,-97 -2359,-349 -3261,-696 -903,-347 -1571,-789 -1857,-1267 -152,-254 -197,-518 -110,-783zm29085 -14446c-562,-50 -1262,75 -2125,428l0 0c-2301,957 -5027,4154 -6755,7301 -675,1228 -1197,2448 -1483,3524 -286,1075 -336,2005 -65,2656 136,326 351,582 658,750 492,270 1167,315 2222,-36 1057,-352 2495,-1103 4512,-2423l0 0c913,-586 1785,-1291 2541,-2145 756,-853 1398,-1855 1853,-3035 406,-1052 765,-2706 690,-4147 -39,-744 -193,-1431 -517,-1948 -323,-516 -816,-861 -1531,-925zm1635 15158c-12,60 -19,93 -21,95l-1 2 -1 1c-1137,687 -1462,203 -1825,-337 -178,-264 -365,-543 -663,-701 -478,-253 -1816,353 -3433,1084 -2649,1199 -6046,2737 -7665,1396l0 0c-489,-411 -825,-928 -1028,-1523 -562,-1649 -107,-3906 895,-6237 1002,-2329 2552,-4733 4182,-6674 1660,-1977 3404,-3476 4738,-3931 935,-433 1946,-705 2861,-806 935,-104 1771,-29 2324,233 1500,711 1570,1295 1639,1871 51,424 101,843 732,1305 1276,123 1924,216 1855,1109 -68,888 -851,2568 -2437,5868l0 0c-1187,2635 -2016,6595 -2152,7245zm-79447 275c78,508 135,878 79,1153 -10,481 -237,639 -546,633 -444,-9 -1058,-362 -1434,-578 -113,-65 -204,-117 -263,-144l-6 -4 2 -6c114,-399 173,-815 200,-1317 26,-502 20,-1091 4,-1834 -26,-1104 65,-2205 244,-3293 179,-1088 447,-2163 776,-3214 575,-1838 1704,-4040 3221,-5776 1219,-1396 2687,-2491 4319,-2856 1346,-301 2177,98 2961,474 701,336 1364,654 2324,433 563,-129 1101,-443 1650,-763 1116,-651 2280,-1330 3805,-557 1427,724 1987,2322 2069,4162 122,2749 -825,6038 -1536,7746 -1682,4037 -3032,5876 -3898,6489 -278,197 -507,268 -681,245 -177,-24 -297,-143 -358,-324 -105,-319 -22,-834 276,-1365 1059,-1886 1865,-3439 2471,-5062 606,-1623 1013,-3315 1276,-5482 87,-719 88,-1703 -130,-2549 -115,-448 -291,-857 -549,-1166 -256,-310 -594,-521 -1032,-574 -247,-30 -525,-10 -839,71 -2171,558 -2696,2440 -3291,4573 -498,1787 -1046,3751 -2653,5262 -529,498 -974,753 -1335,819 -266,50 -487,-3 -662,-135 -175,-131 -304,-342 -388,-608 -168,-536 -154,-1298 39,-2105 333,-1386 982,-2362 1639,-3349 406,-611 816,-1226 1154,-1945 296,-631 293,-1104 75,-1409 -222,-312 -669,-451 -1250,-406 -583,45 -1302,275 -2067,700 -2441,1357 -5351,4706 -5830,10393 -142,1690 38,2856 164,3668zm6455 -5863c37,2 256,1 567,-366 567,-671 1366,-1757 1886,-2829 365,-751 592,-1494 506,-2082 -495,210 -1334,1349 -1998,2532 -640,1142 -1117,2323 -961,2745zm-42999 -10344c-78,-508 -135,-878 -79,-1153 10,-482 237,-640 546,-633 444,9 1058,362 1435,578 112,64 203,117 262,144l7 3 -3 7c-113,399 -173,815 -200,1316 -26,503 -20,1091 -3,1835 25,1104 -66,2205 -245,3293 -179,1088 -447,2163 -775,3213 -576,1838 -1705,4040 -3222,5777 -1219,1395 -2687,2490 -4319,2856 -1345,300 -2177,-98 -2960,-474 -702,-336 -1365,-654 -2325,-434 -563,130 -1101,443 -1650,764 -1116,651 -2279,1330 -3805,557 -1427,-724 -1986,-2322 -2068,-4162 -122,-2749 824,-6038 1536,-7747 1681,-4036 3031,-5875 3897,-6488 278,-197 507,-268 681,-245 177,24 298,142 358,324 105,319 22,834 -276,1365 -1059,1886 -1865,3439 -2471,5062 -606,1622 -1013,3315 -1276,5482 -87,719 -88,1703 130,2549 115,447 292,856 549,1166 257,310 594,521 1032,574 247,30 525,10 839,-71 2171,-559 2696,-2440 3291,-4573 499,-1788 1047,-3751 2653,-5262 530,-499 975,-753 1336,-820 266,-49 486,4 661,135 175,132 304,343 388,609 168,535 154,1298 -39,2105 -332,1386 -982,2362 -1638,3348 -407,612 -817,1227 -1155,1946 -295,630 -293,1103 -75,1409 223,312 669,450 1250,406 583,-45 1302,-275 2067,-700 2441,-1358 5351,-4706 5830,-10394 142,-1690 -38,-2855 -164,-3667zm-6455 5863c-37,-2 -255,-2 -567,366 -567,671 -1366,1757 -1886,2829 -365,751 -592,1494 -506,2081 495,-209 1334,-1348 1998,-2531 641,-1142 1117,-2323 961,-2745zm14645 -2259c-97,89 -184,169 -258,235 -1086,979 -1359,1558 -1106,1838 377,418 1909,184 3666,-377 1760,-562 3744,-1453 5020,-2349 1032,-724 1601,-1451 1211,-2007 -2553,-2812 -6905,1170 -8533,2660zm-1172 14146c-2419,760 -4770,576 -5836,-2816l0 -1 0 0c-207,-1057 -183,-2162 28,-3279 568,-3006 2493,-6098 4926,-8567 2433,-2469 5375,-4313 7976,-4824 846,-165 1656,-190 2400,-49l1 0 1 0c1386,411 2172,955 2496,1579 321,618 189,1315 -262,2041 -450,723 -1218,1476 -2170,2208 -3317,2550 -8874,4850 -11017,4805 -538,453 -1013,967 -1392,1510l0 0c-509,730 -843,1511 -922,2261 -79,750 98,1469 610,2078 175,208 389,403 645,582 704,293 1596,276 2492,120 898,-156 1800,-451 2522,-712 790,-285 1402,-639 1897,-924 356,-206 652,-376 909,-461 614,-204 1009,76 1485,1513l4 12 -13 -1c-566,-49 -1611,499 -2873,1161 -1182,620 -2555,1339 -3907,1764zm60942 -16976c-562,-50 -1262,75 -2125,428l0 0c-2301,957 -5027,4154 -6755,7301 -675,1228 -1197,2448 -1484,3524 -285,1075 -335,2005 -64,2656 135,326 351,582 658,750 492,270 1167,315 2222,-36 1057,-352 2495,-1103 4512,-2423l0 0c913,-586 1784,-1291 2541,-2145 756,-853 1398,-1855 1853,-3035 406,-1052 765,-2706 690,-4147 -39,-744 -193,-1431 -517,-1948 -324,-516 -816,-861 -1531,-925zm1635 15159c-13,60 -19,92 -21,94l-1 2 -2 1c-1136,687 -1461,203 -1824,-337 -178,-264 -365,-543 -663,-701 -478,-253 -1816,353 -3433,1084 -2649,1199 -6046,2737 -7665,1396l0 0c-489,-411 -825,-928 -1028,-1523 -562,-1649 -107,-3906 895,-6237 1002,-2329 2552,-4733 4182,-6674 1660,-1977 3404,-3476 4738,-3931 935,-433 1946,-705 2861,-806 935,-104 1771,-29 2324,233 1500,711 1570,1295 1639,1871 51,424 101,843 732,1305 1276,123 1924,216 1855,1109 -68,888 -851,2568 -2437,5868l0 0c-1187,2636 -2016,6597 -2152,7246z"/>
  <path class="fil0" d="M83261 32436c-685,1222 -1205,2477 -1102,2977 90,-18 270,-90 513,-379 640,-756 1542,-1982 2128,-3189 380,-784 627,-1560 577,-2187 -551,333 -1418,1533 -2116,2778l0 0zm-36242 23045c-5881,-5882 -9519,-14007 -9519,-22981 0,-8974 3638,-17100 9519,-22981 5882,-5882 14007,-9519 22981,-9519 8975,0 17100,3637 22981,9519 5881,5881 9519,14007 9519,22981 0,8974 -3638,17099 -9519,22981 -5881,5881 -14006,9519 -22981,9519 -8974,0 -17099,-3638 -22981,-9519zm2750 -2750c5177,5178 12330,8380 20231,8380 7901,0 15055,-3202 20232,-8380 5177,-5177 8379,-12330 8379,-20231 0,-7901 -3202,-15055 -8379,-20232 -5178,-5177 -12331,-8380 -20232,-8380 -7901,0 -15054,3203 -20231,8380 -5178,5177 -8380,12331 -8380,20232 0,7901 3202,15054 8380,20231zm21631 -41084c1497,-2187 2998,-4377 4967,-6083l196 -170 -37 257c-1178,8176 -3060,16175 -4945,24185 -1251,5320 -2505,10647 -3553,16031 -713,3667 -1020,5246 -829,5282l1 0c152,30 697,-794 1652,-2238 467,-705 1028,-1553 1692,-2518 939,-1363 1438,-2183 1691,-3074 253,-892 265,-1868 226,-3541 -29,-1256 75,-2511 278,-3750 204,-1238 510,-2461 883,-3656 655,-2094 1943,-4603 3671,-6582 1392,-1595 3073,-2847 4944,-3265 1554,-348 2511,111 3413,543 781,374 1520,728 2579,485 625,-144 1230,-496 1846,-856 1285,-750 2626,-1532 4398,-634 1652,839 2300,2679 2394,4794 138,3131 -939,6877 -1748,8821 -1915,4594 -3458,6693 -4450,7396 -335,237 -616,322 -835,293 -236,-32 -397,-188 -476,-426 -126,-383 -31,-993 320,-1617 1199,-2137 2111,-3895 2796,-5728 685,-1834 1145,-3747 1442,-6197 98,-807 99,-1912 -145,-2859 -127,-495 -322,-948 -605,-1289l0 0c-278,-334 -642,-563 -1115,-619 -268,-33 -575,-11 -919,77 -2412,622 -3002,2733 -3669,5126 -569,2038 -1194,4278 -3033,6008 -614,577 -1133,873 -1558,951 -328,60 -601,-6 -819,-169 -213,-161 -369,-415 -470,-734 -195,-621 -180,-1503 43,-2433 380,-1587 1121,-2701 1870,-3825 459,-690 922,-1387 1302,-2195 321,-684 322,-1190 93,-1512 -233,-326 -712,-471 -1340,-422 -650,49 -1453,307 -2308,782 -2750,1529 -6027,5303 -6567,11718 -158,1889 96,3972 282,5492l0 1c119,985 211,1737 143,2069 -141,690 -1185,1616 -2190,2507 -596,528 -1178,1044 -1541,1483 -988,1195 -1879,2496 -2770,3796 -1498,2188 -2998,4378 -4967,6084l-196 170 37 -257c1178,-8176 3059,-16175 4944,-24186 1252,-5320 2506,-10646 3554,-16030 713,-3667 1019,-5245 829,-5282l-1 0c-152,-30 -697,793 -1652,2237 -466,704 -1027,1553 -1693,2519 -938,1363 -1437,2183 -1691,3074 -253,892 -264,1868 -226,3541 29,1257 -74,2511 -278,3750 -204,1239 -509,2462 -882,3656 -656,2093 -1943,4603 -3671,6582 -1393,1594 -3074,2847 -4944,3265 -1555,348 -2512,-111 -3414,-543 -781,-374 -1519,-729 -2579,-485 -625,143 -1230,496 -1846,856 -1286,749 -2626,1531 -4397,633 -1652,-838 -2300,-2678 -2394,-4793 -139,-3132 938,-6877 1748,-8821 1915,-4595 3458,-6694 4449,-7396l1 0c335,-238 616,-322 834,-293 236,31 398,188 476,426 126,382 32,993 -318,1617 -1200,2137 -2113,3895 -2798,5729 -684,1832 -1145,3746 -1442,6196 -97,807 -99,1912 146,2859 127,496 322,948 605,1288 277,334 641,563 1114,620 269,33 574,10 919,-79 2414,-620 3003,-2732 3670,-5124 569,-2038 1194,-4278 3032,-6007 615,-578 1135,-874 1559,-952 328,-60 601,6 818,170 213,159 371,414 471,733 195,621 180,1503 -43,2433 -381,1587 -1122,2701 -1870,3825 -459,691 -923,1387 -1302,2195 -321,683 -322,1190 -93,1511 232,327 712,472 1340,423 650,-50 1452,-307 2308,-783 2749,-1528 6026,-5302 6566,-11717 159,-1889 -95,-3972 -281,-5492l0 -1c-119,-985 -211,-1738 -144,-2069 142,-691 1186,-1616 2191,-2507 596,-528 1178,-1045 1541,-1483 989,-1197 1879,-2497 2770,-3797l0 0zm-13559 17938c-90,18 -268,91 -513,380 -640,757 -1542,1982 -2128,3189 -380,785 -628,1561 -578,2188 552,-334 1418,-1534 2117,-2778 686,-1223 1206,-2478 1102,-2979l0 0z"/>
 </g>
</svg>
