<?xml version="1.0" encoding="UTF-8"?>
<!DOCTYPE svg PUBLIC "-//W3C//DTD SVG 1.1//EN" "http://www.w3.org/Graphics/SVG/1.1/DTD/svg11.dtd">
<!-- Creator: CorelDRAW X7 -->
<svg xmlns="http://www.w3.org/2000/svg" xml:space="preserve" width="295px" height="95px" version="1.1" style="shape-rendering:geometricPrecision; text-rendering:geometricPrecision; image-rendering:optimizeQuality; fill-rule:evenodd; clip-rule:evenodd"
viewBox="0 0 295000 95000"
 xmlns:xlink="http://www.w3.org/1999/xlink">
 <defs>
  <style type="text/css">
   <![CDATA[
    .str0 {stroke:#C85050;stroke-width:288}
    .fil0 {fill:#C85050}
   ]]>
  </style>
 </defs>
 <g id="Layer_x0020_1">
  <metadata id="CorelCorpID_0Corel-Layer"/>
  <path class="fil0 str0" d="M188365 87937c232,-714 552,-2332 1936,-1365 4594,3209 21583,2906 22284,-3073 1362,-11630 -24516,-14530 -8292,-27240 9194,-7202 24246,1275 14974,6432 -4577,2939 -933,-3436 -4564,-4875 -4547,-1803 -13694,2931 -9603,9203 4191,3094 20536,9988 10089,22090 -8827,8381 -28401,3678 -26824,-1172z"/>
  <path class="fil0 str0" d="M178224 58771c10807,-4423 9325,8388 7266,13728 -1894,4911 -5344,8340 -9143,10779 -8389,5490 -11963,6241 -14019,5112 -6476,-3557 6439,-25684 15896,-29619zm7766 30829c17,-25 1824,-9280 4515,-15257 6595,-13719 6509,-13971 1220,-14482 -3097,-2266 490,-4036 -4929,-6604 -2269,-1076 -6840,-628 -10766,1193 -9197,3133 -27777,30162 -18263,38150 5411,4481 20431,-6556 23070,-5157 1880,997 1644,4279 5153,2157z"/>
  <path class="fil0 str0" d="M57836 64258c2847,-2566 12671,-12225 18303,-6017 3519,5012 -29989,16551 -18303,6017zm-14003 23074c4771,15183 21950,-606 26212,-239 -1976,-5971 -3271,-2289 -8897,-253 -3003,1086 -7507,2452 -10438,1229 -4834,-3370 -2452,-9491 2202,-13405 8291,185 41260,-16589 22772,-22071 -12829,-2425 -34975,18810 -31851,34739z"/>
  <path class="fil0 str0" d="M41211 53893c-304,1480 985,4311 505,10022 -1927,22891 -22785,27567 -18894,19282 1835,-3907 4685,-6339 5805,-11003 1071,-4469 -511,-8283 -4849,-4202 -7322,6887 -4056,18315 -12365,20452 -5182,1334 -5751,-5261 -5323,-8789 1092,-9012 3387,-14082 7792,-21929 2401,-4274 -1942,-8010 -9657,10505 -2468,5922 -6292,20984 1099,24734 4723,2395 7779,-1931 11327,-2746 4234,-972 5691,3071 10989,1886 7608,-1703 13509,-11048 15664,-17935 1366,-4366 2226,-8934 2120,-13521 -71,-3093 -50,-4896 424,-6556 -812,-376 -4579,-3053 -4637,-200zm-13260 14568c-3,2 -490,-79 -1206,767 -2011,2380 -5431,7277 -4973,10246 2020,-812 6867,-9233 6179,-11013z"/>
  <path class="fil0 str0" d="M117481 92380c303,-1481 -986,-4311 -505,-10023 1926,-22891 22785,-27567 18894,-19281 -1835,3906 -4686,6339 -5805,11003 -1071,4468 510,8283 4848,4201 7322,-6887 4057,-18314 12366,-20452 5182,-1333 5750,5262 5323,8790 -1092,9011 -3388,14081 -7793,21928 -2400,4274 1943,8011 9658,-10505 2467,-5921 6291,-20984 -1100,-24734 -4722,-2395 -7779,1931 -11327,2746 -4234,972 -5691,-3070 -10989,-1886 -7607,1703 -13508,11048 -15663,17935 -1366,4366 -2226,8935 -2120,13522 70,3092 50,4895 -425,6555 813,376 4580,3054 4638,201zm13260 -14568c2,-3 490,79 1206,-768 2011,-2380 5431,-7276 4973,-10245 -2021,811 -6868,9232 -6179,11013z"/>
  <path class="fil0 str0" d="M274684 58771c10806,-4423 9325,8388 7265,13728 -1894,4911 -5343,8340 -9143,10779 -8388,5490 -11963,6241 -14018,5112 -6476,-3557 6439,-25684 15896,-29619zm7766 30829c17,-25 1823,-9280 4515,-15257 6595,-13719 6508,-13971 1219,-14482 -3096,-2266 491,-4036 -4929,-6604 -2269,-1076 -6839,-628 -10765,1193 -9197,3133 -27777,30162 -18264,38150 5411,4481 20431,-6556 23070,-5157 1880,997 1644,4279 5154,2157z"/>
  <path class="fil0 str0" d="M218656 87937c232,-714 553,-2332 1936,-1365 4595,3209 21584,2906 22284,-3073 1362,-11630 -24516,-14530 -8292,-27240 9194,-7202 24246,1275 14974,6432 -4577,2939 -932,-3436 -4564,-4875 -4546,-1803 -13694,2931 -9602,9203 4191,3094 20535,9988 10088,22090 -8826,8381 -28400,3678 -26824,-1172z"/>
  <path class="fil0 str0" d="M108022 56334c8614,2234 -6772,29402 -19799,28842 -10020,1170 1732,-33531 19799,-28842zm-34148 33643c3478,4852 5894,3928 7531,-992 7176,2816 9065,5363 17034,-971 7337,-5831 22319,-22790 15490,-32262 -4275,-5844 -12244,-5550 -24183,745 -2105,-6415 14970,-53201 10379,-55218 -4707,-3017 -5906,16987 -9919,30725 -3330,12083 -6589,38542 -16332,57973z"/>
 </g>
</svg>
