<?xml version="1.0" encoding="UTF-8"?>
<!DOCTYPE svg PUBLIC "-//W3C//DTD SVG 1.1//EN" "http://www.w3.org/Graphics/SVG/1.1/DTD/svg11.dtd">
<!-- Creator: CorelDRAW X7 -->
<svg xmlns="http://www.w3.org/2000/svg" xml:space="preserve" width="30px" height="20px" version="1.1" style="shape-rendering:geometricPrecision; text-rendering:geometricPrecision; image-rendering:optimizeQuality; fill-rule:evenodd; clip-rule:evenodd"
viewBox="0 0 30000 20000"
 xmlns:xlink="http://www.w3.org/1999/xlink">
 <defs>
  <style type="text/css">
   <![CDATA[
    .fil2 {fill:#666666;fill-rule:nonzero}
    .fil0 {fill:#CCCCCC;fill-rule:nonzero}
    .fil1 {fill:white;fill-rule:nonzero}
   ]]>
  </style>
 </defs>
 <g id="Layer_x0020_1">
  <metadata id="CorelCorpID_0Corel-Layer"/>
  <polygon class="fil0" points="0,15169 30002,15169 30002,4833 0,4833 "/>
  <path class="fil1" d="M7202 12931c0,1314 1026,1661 2350,1661 1323,0 2352,-347 2352,-1661l0 -4351 -4702 0 0 4351z"/>
 </g>
 <g id="Layer_x0020_1_0">
  <metadata id="CorelCorpID_1Corel-Layer"/>
  <path class="fil2" d="M5631 13476c-3,30 -22,58 -56,81 -33,24 -81,42 -147,49l0 0 -10 0 0 11 0 306 0 12 11 0 1062 0 11 0 0 -12 0 -306 0 -11 -9 0 0 0c-34,-7 -68,-28 -94,-54l0 0c-22,-23 -37,-50 -39,-76l65 -36 15 -9 -14 -10 -71 -55 -3 -2 -3 0 -709 0 -2 0 -4 2 -71 55 -11 10 14 9 0 0 65 36zm328 -5966c406,8 825,110 611,574 -101,220 -114,476 -611,476 -496,0 -508,-256 -609,-476 -214,-464 203,-566 609,-574zm379 5800l-686 0 0 -1105 60 -35c286,-122 485,-214 626,-288l0 1428zm-686 -1525l0 -434c143,33 346,65 638,104 -202,114 -455,239 -638,330zm0 -809l0 -103c184,-76 411,-142 686,-158l0 333c-81,4 -438,-20 -686,-72zm0 -572l0 -1074 686 0 0 958c-223,13 -463,46 -686,116zm-21 567c-45,-11 -86,-21 -121,-33 38,-19 78,-38 121,-56l0 89zm-56 -1902c36,24 53,52 56,83l-65 38 -17 9 17 10 71 40 4 1 708 0 5 -1 72 -40 16 -10 -16 -9 -66 -38c2,-27 17,-54 40,-77 25,-27 59,-46 93,-52l9 0 0 -10 0 -310 0 -11 -11 0 -1062 0 -11 0 0 11 0 310 0 10 11 0c64,6 113,23 146,46z"/>
  <path class="fil2" d="M9554 5416c-1100,21 -2233,296 -1654,1554 274,594 306,1291 1652,1291 1347,0 1379,-697 1653,-1291 580,-1258 -551,-1533 -1651,-1554zm-4125 7357l142 -174c-143,-243 -173,-247 60,-382l0 1105 0 11 10 0 708 0 11 0 0 -11 0 -1452c261,-138 322,-210 413,-288 -71,-81 -71,-174 -141,-375l-1 7c-14,-160 -196,-179 -271,-170l0 -331c244,-13 524,15 842,107l0 560c707,0 961,-4 1617,-4 9,409 245,982 733,982l0 724c0,654 514,1297 1178,1297 145,0 293,-26 366,-66 586,-254 808,-859 808,-1339l0 -1594 -1616 0c0,-534 -295,-976 -736,-976l0 -1823 -2350 0 0 1741c0,0 -382,-61 -842,-36l0 -968 0 -10 -11 0 -708 0 -10 0 0 10 0 1093c-181,59 -350,143 -488,261 265,437 -2,559 488,675l0 450 -131 66c-485,214 -333,747 -71,910zm7719 -5263c-406,8 -825,110 -611,574 101,220 112,476 610,476 497,0 509,-256 610,-476 214,-464 -203,-566 -609,-574zm530 5263l-143 -174c144,-243 173,-247 -59,-382l0 1105 0 11 -10 0 -709 0 -11 0 0 -11 0 -1452c-260,-138 -321,-210 -412,-288 70,-81 70,-174 141,-375l1 7c14,-160 195,-179 270,-170l0 -331c-243,-13 -523,15 -842,107l0 -498c0,0 383,-61 842,-36l0 -968 0 -10 11 0 709 0 10 0 0 10 0 1093c181,59 350,143 488,261 -264,437 1,559 -488,675l0 450 130 66c486,214 334,747 72,910zm-147 -3704c-35,24 -52,52 -55,83l65 38 16 9 -16 10 -71 40 -4 1 -708 0 -6 -1 -71 -40 -17 -10 17 -9 65 -38c-1,-27 -16,-54 -39,-77 -25,-27 -59,-46 -93,-52l-9 0 0 -10 0 -310 0 -11 11 0 1062 0 11 0 0 11 0 310 0 10 -11 0c-65,6 -114,23 -147,46zm-55 4407c3,30 20,58 55,81 33,24 82,42 148,49l0 0 10 0 0 11 0 306 0 12 -11 0 -1062 0 -11 0 0 -12 0 -306 0 -11 9 0 0 0c34,-7 68,-28 93,-54l0 0c23,-23 38,-50 39,-76l-64 -36 -15 -9 13 -10 72 -55 1 -2 5 0 708 0 3 0 4 2 71 55 11 10 -14 9 0 0 -65 36z"/>
  <polygon class="fil2" points="0,20001 30002,20001 30002,15170 0,15170 "/>
  <polygon class="fil2" points="0,4833 30002,4833 30002,0 0,0 "/>
 </g>
</svg>
