<?xml version="1.0" encoding="UTF-8"?>
<!DOCTYPE svg PUBLIC "-//W3C//DTD SVG 1.1//EN" "http://www.w3.org/Graphics/SVG/1.1/DTD/svg11.dtd">
<!-- Creator: CorelDRAW X7 -->
<svg xmlns="http://www.w3.org/2000/svg" xml:space="preserve" width="30px" height="20px" version="1.1" style="shape-rendering:geometricPrecision; text-rendering:geometricPrecision; image-rendering:optimizeQuality; fill-rule:evenodd; clip-rule:evenodd"
viewBox="0 0 30000 20000"
 xmlns:xlink="http://www.w3.org/1999/xlink">
 <defs>
  <style type="text/css">
   <![CDATA[
    .fil0 {fill:#313131;fill-rule:nonzero}
    .fil1 {fill:#717171;fill-rule:nonzero}
    .fil2 {fill:white;fill-rule:nonzero}
   ]]>
  </style>
 </defs>
 <g id="Layer_x0020_1">
  <metadata id="CorelCorpID_0Corel-Layer"/>
  <polygon class="fil0" points="-1,2431 -1,8326 9596,8326 "/>
  <polygon class="fil0" points="12622,0 1506,0 12622,6828 "/>
  <polygon class="fil0" points="28604,0 17378,0 17378,6896 "/>
  <polygon class="fil0" points="-1,11674 -1,17436 9378,11674 "/>
  <polygon class="fil0" points="1288,20000 12622,20000 12622,13038 "/>
  <polygon class="fil0" points="17378,20000 28384,20000 17378,13239 "/>
  <polygon class="fil0" points="30001,17636 30001,11674 20294,11674 "/>
  <polygon class="fil0" points="30001,8326 30001,2498 20514,8326 "/>
  <polygon class="fil1" points="29696,0 17378,7567 17378,8326 17672,8326 30001,752 30001,0 "/>
  <polygon class="fil1" points="12219,8326 -1,820 -1,1760 10689,8326 "/>
  <polygon class="fil1" points="12622,11674 12219,11674 -1,19180 -1,20000 194,20000 12622,12367 "/>
  <polygon class="fil1" points="17671,11674 30001,19248 30001,18307 19200,11674 "/>
  <polygon class="fil2" points="16558,11097 16558,20000 17378,20000 17378,13239 28384,20000 30001,20000 30001,19248 17671,11674 19200,11674 30001,18307 30001,17636 20294,11674 30001,11674 30001,11097 "/>
  <polygon class="fil2" points="13443,11097 -1,11097 -1,11674 9378,11674 -1,17436 -1,19180 12219,11674 12622,11674 12622,12367 194,20000 1288,20000 12622,13038 12622,20000 13443,20000 "/>
  <polygon class="fil2" points="13443,8903 13443,0 12622,0 12622,6828 1506,0 -1,0 -1,820 12219,8326 10689,8326 -1,1760 -1,2431 9596,8326 -1,8326 -1,8903 "/>
  <polygon class="fil2" points="17378,8326 17378,7567 29696,0 28604,0 17378,6896 17378,0 16558,0 16558,8903 30001,8903 30001,8326 20514,8326 30001,2498 30001,752 17672,8326 "/>
  <polygon class="fil1" points="16558,8903 16558,0 13443,0 13443,8903 -1,8903 -1,11097 13443,11097 13443,20000 16558,20000 16558,11097 30001,11097 30001,8903 "/>
 </g>
</svg>
