<?xml version="1.0" encoding="utf-8"?>
<!-- Generator: Adobe Illustrator 18.0.0, SVG Export Plug-In . SVG Version: 6.00 Build 0)  -->
<!DOCTYPE svg PUBLIC "-//W3C//DTD SVG 1.1//EN" "http://www.w3.org/Graphics/SVG/1.1/DTD/svg11.dtd">
<svg version="1.1" id="Слой_1" xmlns="http://www.w3.org/2000/svg" xmlns:xlink="http://www.w3.org/1999/xlink" x="0px" y="0px"
	 viewBox="0 0 100 125" enable-background="new 0 0 100 125" xml:space="preserve">
<pattern  x="-899" y="1143" width="792.3" height="1815.3" patternUnits="userSpaceOnUse" id="id1" viewBox="84.6 -1863.5 792.3 1815.3" overflow="visible">
	<g>
		<polygon fill="none" points="84.6,-48.2 876.9,-48.2 876.9,-1863.5 84.6,-1863.5 		"/>
		
			<linearGradient id="_x31__3_" gradientUnits="userSpaceOnUse" x1="-174650.1719" y1="-942.8558" x2="769548.875" y2="-942.8558" gradientTransform="matrix(1.000000e-003 0 0 -1.000000e-003 7234.7578 -7121.2725)">
			<stop  offset="0" style="stop-color:#FFFFFF"/>
			<stop  offset="1" style="stop-color:#000000"/>
		</linearGradient>
		<polygon id="_x31__1_" fill="url(#_x31__3_)" points="944.2,-1885.7 0,-1885.7 0,0 944.2,0 		"/>
	</g>
</pattern>
<g id="Layer_x0020_1">
	<g id="_692098240">
		<path fill="#F4F6F7" d="M91.3,118.3c0,3.1-2.5,5.7-5.7,5.7H14.4c-3.1,0-5.7-2.5-5.7-5.7V6.7c0-3.1,2.5-5.7,5.7-5.7h71.3
			c3.1,0,5.7,2.5,5.7,5.7V118.3z"/>
	</g>
	<g id="_692098216">
		<path fill="#232326" d="M87.8,112.4c0,0.3-0.2,0.5-0.5,0.5H12.9c-0.3,0-0.5-0.2-0.5-0.5V12.8c0-0.3,0.2-0.5,0.5-0.5h74.5
			c0.3,0,0.5,0.2,0.5,0.5V112.4z"/>
	</g>
	<polygon points="12.4,14.8 87.8,14.8 87.8,12.3 12.4,12.3 	"/>
	<g id="_692096584">
		<path fill="#B1B1B1" d="M53.3,119c0,1.8-1.4,3.2-3.2,3.2c-1.8,0-3.2-1.4-3.2-3.2c0-1.8,1.4-3.2,3.2-3.2
			C51.9,115.8,53.3,117.2,53.3,119z"/>
		
			<linearGradient id="SVGID_1_" gradientUnits="userSpaceOnUse" x1="-16389.1074" y1="58.937" x2="-16389.1074" y2="65.308" gradientTransform="matrix(1.000000e-003 0 0 -1.000000e-003 -898.101 -1015.8565)">
			<stop  offset="0" style="stop-color:#E4E4E8"/>
			<stop  offset="0.6" style="stop-color:#E4E4E8"/>
			<stop  offset="0.9294" style="stop-color:#F7F9FB"/>
			<stop  offset="0.949" style="stop-color:#F7F9FB"/>
			<stop  offset="1" style="stop-color:#F7F9FB"/>
		</linearGradient>
		<path fill="url(#SVGID_1_)" d="M53.3,119.1c0,1.8-1.4,3.2-3.2,3.2c-1.8,0-3.2-1.4-3.2-3.2c0-1.8,1.4-3.2,3.2-3.2
			C51.9,115.9,53.3,117.3,53.3,119.1z"/>
		
			<linearGradient id="SVGID_2_" gradientUnits="userSpaceOnUse" x1="108.681" y1="-16316.9365" x2="108.681" y2="-16323.3076" gradientTransform="matrix(1.000000e-003 0 0 -1.000000e-003 -898.101 -1015.8565)">
			<stop  offset="0" style="stop-color:#C8CACD"/>
			<stop  offset="0.149" style="stop-color:#C8CACD"/>
			<stop  offset="0.8118" style="stop-color:#F7F9FB"/>
			<stop  offset="1" style="stop-color:#F7F9FB"/>
		</linearGradient>
		<path fill="url(#SVGID_2_)" d="M50.1,119.5c-1.2,0-2.3-0.2-3.2-0.4c0,0,0,0,0,0c0,1.8,1.4,3.2,3.2,3.2c1.8,0,3.2-1.4,3.2-3.2
			c0,0,0,0,0,0C52.4,119.3,51.3,119.5,50.1,119.5z"/>
		
			<linearGradient id="SVGID_3_" gradientUnits="userSpaceOnUse" x1="-119.5173" y1="-16540.9727" x2="-119.583" y2="-16543.375" gradientTransform="matrix(1.000000e-003 0 0 -1.000000e-003 -898.101 -1015.8565)">
			<stop  offset="0" style="stop-color:#C6C6C6"/>
			<stop  offset="1" style="stop-color:#EBEBEF"/>
		</linearGradient>
		<path fill="url(#SVGID_3_)" d="M50.8,120.3h-1.4c-0.3,0-0.5-0.2-0.5-0.5v-1.4c0-0.3,0.2-0.5,0.5-0.5h1.4c0.3,0,0.5,0.2,0.5,0.5
			v1.4C51.3,120.1,51,120.3,50.8,120.3z M49.3,118L49.3,118c-0.2,0-0.4,0.2-0.4,0.4v1.4c0,0.2,0.2,0.4,0.4,0.4h1.4
			c0.2,0,0.4-0.2,0.4-0.4v-1.4c0-0.2-0.2-0.4-0.4-0.4H49.3z"/>
	</g>
	<defs>
		<filter id="Adobe_OpacityMaskFilter" filterUnits="userSpaceOnUse" x="49.9" y="1" width="41.4" height="94.8">
			<feColorMatrix  type="matrix" values="1 0 0 0 0  0 1 0 0 0  0 0 1 0 0  0 0 0 1 0"/>
		</filter>
	</defs>
	<mask maskUnits="userSpaceOnUse" x="49.9" y="1" width="41.4" height="94.8" id="id0">
		
			<pattern  id="SVGID_4_" xlink:href="#id1" patternTransform="matrix(1.000000e-003 0 0 -1.000000e-003 -6005.2808 -9056.4365)"  filter="url(#Adobe_OpacityMaskFilter)">
		</pattern>
		<rect x="49.5" y="0.5" fill="url(#SVGID_4_)" filter="url(#Adobe_OpacityMaskFilter)" width="42.3" height="95.7"/>
	</mask>
	<path id="_x31_" opacity="0.66" mask="url(#id0)" fill="#FFFFFF" d="M86.3,1H49.9l41.4,94.8V6C91.3,3.2,89.1,1,86.3,1z"/>
	<g id="_692126392">
		
			<linearGradient id="SVGID_5_" gradientUnits="userSpaceOnUse" x1="-16276.9941" y1="-5828.9302" x2="-16276.9941" y2="-4072.6201" gradientTransform="matrix(1.000000e-003 0 0 -1.000000e-003 -898.101 -1015.8565)">
			<stop  offset="0" style="stop-color:#5D5B5D"/>
			<stop  offset="1" style="stop-color:#010103"/>
		</linearGradient>
		<path fill="url(#SVGID_5_)" d="M51,7c0,0.5-0.4,0.9-0.9,0.9c-0.5,0-0.9-0.4-0.9-0.9c0-0.5,0.4-0.9,0.9-0.9C50.5,6.1,51,6.5,51,7z"
			/>
		<g>
			<g>
				<defs>
					<path id="SVGID_6_" d="M49.4,7.6c-0.1-0.1-0.2-0.2-0.2-0.4c-0.1-0.2-0.1-0.5,0.1-0.7c0-0.1,0.1-0.1,0.1-0.2
						c0.1-0.1,0.2-0.2,0.4-0.2c0.2-0.1,0.4-0.1,0.6,0c0.1,0,0.2,0.1,0.3,0.2c0.1,0.1,0.1,0.1,0.1,0.2c0.1,0.2,0.1,0.5,0.1,0.7
						c0,0.1-0.1,0.3-0.2,0.4c-0.1,0.1-0.2,0.2-0.3,0.2c-0.2,0.1-0.4,0.1-0.6,0C49.6,7.8,49.5,7.7,49.4,7.6z"/>
				</defs>
				<clipPath id="SVGID_7_">
					<use xlink:href="#SVGID_6_"  overflow="visible"/>
				</clipPath>
				<g clip-path="url(#SVGID_7_)">
				</g>
			</g>
		</g>
		
			<linearGradient id="SVGID_8_" gradientUnits="userSpaceOnUse" x1="-16276.9932" y1="61.662" x2="-16276.9932" y2="62.404" gradientTransform="matrix(1.000000e-003 0 0 -1.000000e-003 -898.101 -1015.8565)">
			<stop  offset="0" style="stop-color:#0A131C"/>
			<stop  offset="1" style="stop-color:#343F42"/>
		</linearGradient>
		<path fill="url(#SVGID_8_)" d="M49.7,7c0-0.2,0.2-0.4,0.4-0.4c0.2,0,0.4,0.2,0.4,0.4c0,0.2-0.2,0.4-0.4,0.4
			C49.8,7.4,49.7,7.2,49.7,7z"/>
		
			<linearGradient id="SVGID_9_" gradientUnits="userSpaceOnUse" x1="-16276.9932" y1="61.733" x2="-16276.9932" y2="62.332" gradientTransform="matrix(1.000000e-003 0 0 -1.000000e-003 -898.101 -1015.8565)">
			<stop  offset="0" style="stop-color:#4B4D4F"/>
			<stop  offset="0.6" style="stop-color:#2F3131"/>
			<stop  offset="1" style="stop-color:#1C1F1F"/>
		</linearGradient>
		<path fill="url(#SVGID_9_)" d="M50.3,7c0,0.2-0.1,0.3-0.3,0.3c-0.2,0-0.3-0.1-0.3-0.3c0-0.2,0.1-0.3,0.3-0.3
			C50.2,6.7,50.3,6.8,50.3,7z"/>
		
			<radialGradient id="SVGID_10_" cx="50.0325" cy="6.9935" r="0.2278" gradientTransform="matrix(1.000580e-003 0 0 -9.986011e-004 -898.1295 -1015.8481)" gradientUnits="userSpaceOnUse">
			<stop  offset="0" style="stop-color:#110C1A"/>
			<stop  offset="0.5804" style="stop-color:#131FA3"/>
			<stop  offset="1" style="stop-color:#2D5BFD"/>
		</radialGradient>
		<path fill="url(#SVGID_10_)" d="M50.3,7c0,0.1-0.1,0.2-0.2,0.2c-0.1,0-0.2-0.1-0.2-0.2c0-0.1,0.1-0.2,0.2-0.2
			C50.2,6.8,50.3,6.9,50.3,7z"/>
	</g>
	<path fill="#DADADA" d="M85.6,0H14.4c-3.7,0-6.7,3-6.7,6.7v111.7c0,3.7,3,6.7,6.7,6.7h71.3c3.7,0,6.7-3,6.7-6.7V6.7
		C92.3,3,89.3,0,85.6,0z M91.3,118.3L91.3,118.3c0,3.1-2.5,5.7-5.7,5.7H14.4c-3.1,0-5.7-2.5-5.7-5.7V6.7c0-3.1,2.5-5.7,5.7-5.7h71.3
		c3.1,0,5.7,2.5,5.7,5.7V118.3z"/>
	
		<radialGradient id="SVGID_11_" cx="86564.8984" cy="-1633.73" r="160403" gradientTransform="matrix(1.956120e-003 -1.136400e-003 -1.136400e-003 -1.956110e-003 -983.0195 -921.0403)" gradientUnits="userSpaceOnUse">
		<stop  offset="0" style="stop-color:#828282"/>
		<stop  offset="0.2392" style="stop-color:#828282"/>
		<stop  offset="1" style="stop-color:#DADADA"/>
	</radialGradient>
	<path fill="url(#SVGID_11_)" d="M85.6,0H56.5v1h29.1c3.1,0,5.7,2.5,5.7,5.7V38h1V6.7C92.3,3,89.3,0,85.6,0z"/>
	
		<radialGradient id="SVGID_12_" cx="12516.2002" cy="-2303.4199" r="143428" gradientTransform="matrix(-1.742090e-003 -1.682820e-003 -1.682850e-003 1.742060e-003 -871.8336 -987.2025)" gradientUnits="userSpaceOnUse">
		<stop  offset="0" style="stop-color:#828282"/>
		<stop  offset="0.2392" style="stop-color:#828282"/>
		<stop  offset="1" style="stop-color:#DADADA"/>
		<stop  offset="1" style="stop-color:#DADADA"/>
	</radialGradient>
	<path fill="url(#SVGID_12_)" d="M8.7,44.7v-38c0-3.1,2.5-5.7,5.7-5.7h33.4V0H14.4c-3.7,0-6.7,3-6.7,6.7v38H8.7z"/>
	
		<radialGradient id="SVGID_13_" cx="85250.2969" cy="-117064" r="181820" gradientTransform="matrix(1.581200e-003 1.821790e-003 1.821810e-003 -1.581190e-003 -732.0058 -1238.1534)" gradientUnits="userSpaceOnUse">
		<stop  offset="0" style="stop-color:#828282"/>
		<stop  offset="0.2392" style="stop-color:#828282"/>
		<stop  offset="1" style="stop-color:#DADADA"/>
		<stop  offset="1" style="stop-color:#DADADA"/>
	</radialGradient>
	<path fill="url(#SVGID_13_)" d="M91.3,83.7v34.6c0,3.1-2.5,5.7-5.7,5.7H50.9v1h34.7c3.7,0,6.7-3,6.7-6.7V83.7H91.3z"/>
	
		<linearGradient id="SVGID_14_" gradientUnits="userSpaceOnUse" x1="-8770.7969" y1="3506.1865" x2="-8767.0859" y2="3510.3086" gradientTransform="matrix(1.000000e-003 0 0 -1.000000e-003 -898.101 -1015.8565)">
		<stop  offset="0" style="stop-color:#828282"/>
		<stop  offset="0.2588" style="stop-color:#828282"/>
		<stop  offset="0.9882" style="stop-color:#DADADA"/>
		<stop  offset="1" style="stop-color:#DADADA"/>
	</linearGradient>
	<path fill="url(#SVGID_14_)" d="M85.4,124v1h0.2c2.2,0,4.1-1.1,5.3-2.7l-0.7-0.7c-1,1.5-2.7,2.4-4.7,2.4H85.4z"/>
	
		<radialGradient id="SVGID_15_" cx="14903.2998" cy="-116078" r="185794" gradientTransform="matrix(-1.810050e-003 1.551470e-003 1.551480e-003 1.810050e-003 -677.0786 -708.5426)" gradientUnits="userSpaceOnUse">
		<stop  offset="0" style="stop-color:#828282"/>
		<stop  offset="0.2706" style="stop-color:#828282"/>
		<stop  offset="1" style="stop-color:#DADADA"/>
		<stop  offset="1" style="stop-color:#DADADA"/>
	</radialGradient>
	<path fill="url(#SVGID_15_)" d="M50,124H14.4c-3.1,0-5.7-2.5-5.7-5.7V82.7h-1v35.6c0,3.7,3,6.7,6.7,6.7H50V124z"/>
	
		<linearGradient id="SVGID_16_" gradientUnits="userSpaceOnUse" x1="7715.02" y1="120.7605" x2="11326.9004" y2="120.7605" gradientTransform="matrix(1.000000e-003 0 0 -1.000000e-003 -898.101 -1015.8565)">
		<stop  offset="0" style="stop-color:#828282"/>
		<stop  offset="0.2588" style="stop-color:#828282"/>
		<stop  offset="0.9882" style="stop-color:#DADADA"/>
		<stop  offset="1" style="stop-color:#DADADA"/>
	</linearGradient>
	<path fill="url(#SVGID_16_)" d="M8.7,118.3v-0.6l-1,0.3v0.3c0,2.3,1.1,4.3,2.9,5.5l0.7-0.7C9.7,122.1,8.7,120.4,8.7,118.3z"/>
	<path fill="#FF6760" d="M29.3,29.9l-5.9,13.9c-0.1,0.2-0.2,0.3-0.3,0.4s-0.3,0.1-0.6,0.1h-2l2-4.4l-4.4-10.1h2.3
		c0.2,0,0.4,0.1,0.5,0.1c0.1,0.1,0.2,0.2,0.3,0.3l2.3,5.7c0.1,0.2,0.1,0.4,0.2,0.6c0.1,0.2,0.1,0.4,0.2,0.6c0.1-0.2,0.1-0.4,0.2-0.6
		c0.1-0.2,0.1-0.4,0.2-0.6l2.2-5.6c0.1-0.1,0.2-0.3,0.3-0.4c0.1-0.1,0.3-0.1,0.4-0.1H29.3z"/>
	<path id="_x31__2_" fill="#FF6760" d="M35.1,29.7c0.8,0,1.5,0.1,2.2,0.4c0.7,0.3,1.2,0.6,1.7,1.1c0.5,0.5,0.8,1.1,1.1,1.8
		c0.3,0.7,0.4,1.5,0.4,2.3c0,0.9-0.1,1.6-0.4,2.3c-0.3,0.7-0.6,1.3-1.1,1.8c-0.5,0.5-1,0.9-1.7,1.1c-0.7,0.3-1.4,0.4-2.2,0.4
		c-0.8,0-1.6-0.1-2.2-0.4c-0.7-0.3-1.2-0.6-1.7-1.1c-0.5-0.5-0.8-1.1-1.1-1.8c-0.3-0.7-0.4-1.5-0.4-2.3c0-0.9,0.1-1.6,0.4-2.3
		c0.3-0.7,0.6-1.3,1.1-1.8c0.5-0.5,1-0.9,1.7-1.1C33.5,29.8,34.3,29.7,35.1,29.7z M35.1,38.9c0.9,0,1.6-0.3,2-0.9
		c0.4-0.6,0.7-1.5,0.7-2.7c0-1.2-0.2-2.1-0.7-2.7c-0.4-0.6-1.1-0.9-2-0.9c-0.9,0-1.6,0.3-2,0.9s-0.7,1.5-0.7,2.7
		c0,1.2,0.2,2.1,0.7,2.7C33.5,38.6,34.2,38.9,35.1,38.9z"/>
	<path id="_x32_" fill="#FF6760" d="M51.9,29.9v10.9h-1.6c-0.3,0-0.6-0.2-0.7-0.5l-0.2-0.9c-0.4,0.5-0.9,0.8-1.5,1.1
		c-0.5,0.3-1.2,0.4-1.9,0.4c-0.6,0-1.1-0.1-1.6-0.3c-0.5-0.2-0.8-0.5-1.2-0.9c-0.3-0.4-0.5-0.8-0.7-1.3c-0.2-0.5-0.2-1.1-0.2-1.7
		v-6.9H45v6.9c0,0.7,0.2,1.2,0.5,1.5c0.3,0.4,0.8,0.5,1.4,0.5c0.5,0,0.9-0.1,1.3-0.3s0.8-0.5,1.1-0.8v-7.9H51.9z"/>
	<path id="_x33_" fill="#FF6760" d="M56.9,31.7c0.3-0.7,0.7-1.2,1.2-1.5c0.5-0.4,1-0.6,1.7-0.6c0.5,0,0.9,0.1,1.2,0.3l-0.2,2
		c0,0.1-0.1,0.2-0.2,0.3c-0.1,0.1-0.2,0.1-0.3,0.1c-0.1,0-0.3,0-0.5-0.1c-0.2,0-0.4-0.1-0.6-0.1c-0.3,0-0.5,0-0.8,0.1
		c-0.2,0.1-0.4,0.2-0.6,0.4c-0.2,0.2-0.3,0.4-0.5,0.6s-0.3,0.5-0.4,0.8v6.7h-2.6V29.9H56c0.3,0,0.5,0,0.6,0.1
		c0.1,0.1,0.2,0.3,0.2,0.5L56.9,31.7z"/>
	<path id="_x34_" fill="#FEFEFE" d="M34.9,55.4l-3.5,10.9h-2.1c-0.2,0-0.4-0.2-0.5-0.5l-2-6.3c-0.1-0.2-0.1-0.4-0.2-0.6
		c-0.1-0.2-0.1-0.4-0.1-0.6c0,0.2-0.1,0.4-0.1,0.6c-0.1,0.2-0.1,0.4-0.2,0.6l-2,6.3c-0.1,0.3-0.3,0.5-0.6,0.5h-2l-3.5-10.9h2.1
		c0.2,0,0.4,0,0.5,0.1c0.1,0.1,0.2,0.2,0.3,0.4l1.6,5.8c0.1,0.3,0.1,0.6,0.2,0.9c0.1,0.3,0.1,0.6,0.2,0.9c0.1-0.3,0.2-0.6,0.3-0.9
		c0.1-0.3,0.2-0.6,0.3-0.9l1.8-5.8c0-0.1,0.1-0.3,0.3-0.4c0.1-0.1,0.3-0.1,0.5-0.1h1.2c0.2,0,0.3,0,0.5,0.1c0.1,0.1,0.2,0.2,0.3,0.4
		l1.8,5.8c0.1,0.3,0.2,0.6,0.3,0.9c0.1,0.3,0.2,0.6,0.2,0.9c0.1-0.6,0.2-1.2,0.4-1.9l1.6-5.8c0-0.1,0.1-0.3,0.3-0.4
		c0.1-0.1,0.3-0.1,0.5-0.1H34.9z"/>
	<path id="_x35_" fill="#FEFEFE" d="M43.3,59.6c0-0.3,0-0.7-0.1-1c-0.1-0.3-0.2-0.6-0.4-0.8c-0.2-0.2-0.4-0.4-0.7-0.5
		c-0.3-0.1-0.6-0.2-1-0.2c-0.8,0-1.4,0.2-1.8,0.6c-0.4,0.4-0.7,1-0.8,1.8H43.3z M38.3,61.1c0,0.6,0.1,1,0.3,1.4
		c0.2,0.4,0.4,0.7,0.6,1c0.3,0.3,0.6,0.5,0.9,0.6c0.4,0.1,0.7,0.2,1.2,0.2s0.8,0,1.1-0.1c0.3-0.1,0.6-0.2,0.8-0.3
		c0.2-0.1,0.4-0.2,0.6-0.3c0.2-0.1,0.3-0.1,0.5-0.1c0.2,0,0.4,0.1,0.5,0.2l0.8,1c-0.3,0.3-0.6,0.6-1,0.9c-0.4,0.2-0.7,0.4-1.1,0.6
		c-0.4,0.1-0.8,0.2-1.2,0.3c-0.4,0.1-0.8,0.1-1.2,0.1c-0.8,0-1.5-0.1-2.1-0.4c-0.7-0.3-1.2-0.6-1.7-1.1c-0.5-0.5-0.9-1.1-1.1-1.8
		c-0.3-0.7-0.4-1.6-0.4-2.5c0-0.7,0.1-1.4,0.4-2.1c0.2-0.7,0.6-1.2,1-1.7c0.5-0.5,1-0.9,1.6-1.2c0.6-0.3,1.4-0.4,2.2-0.4
		c0.7,0,1.3,0.1,1.9,0.3c0.6,0.2,1.1,0.5,1.5,1c0.4,0.4,0.7,0.9,1,1.6c0.2,0.6,0.4,1.3,0.4,2.1c0,0.4,0,0.7-0.1,0.8
		c-0.1,0.1-0.2,0.2-0.5,0.2H38.3z"/>
	<path id="_x36_" fill="#FEFEFE" d="M50.2,63.4c0.3,0.4,0.6,0.6,1,0.8c0.4,0.1,0.7,0.2,1.1,0.2c0.4,0,0.8-0.1,1.1-0.2
		c0.3-0.1,0.6-0.4,0.8-0.7c0.2-0.3,0.4-0.7,0.5-1.2c0.1-0.5,0.2-1,0.2-1.7c0-1.2-0.2-2.1-0.6-2.6c-0.4-0.5-1-0.8-1.7-0.8
		c-0.5,0-0.9,0.1-1.3,0.3c-0.4,0.2-0.7,0.6-1.1,1V63.4z M50.2,56.7c0.4-0.5,0.9-0.8,1.5-1.1c0.5-0.3,1.1-0.4,1.8-0.4
		c0.6,0,1.2,0.1,1.7,0.4c0.5,0.2,0.9,0.6,1.3,1.1c0.4,0.5,0.6,1,0.8,1.7c0.2,0.7,0.3,1.4,0.3,2.2c0,0.9-0.1,1.7-0.3,2.4
		c-0.2,0.7-0.5,1.3-0.9,1.9c-0.4,0.5-0.9,0.9-1.5,1.2c-0.6,0.3-1.2,0.4-1.9,0.4c-0.3,0-0.6,0-0.9-0.1c-0.3-0.1-0.5-0.2-0.8-0.3
		c-0.2-0.1-0.4-0.3-0.6-0.4c-0.2-0.2-0.4-0.4-0.6-0.6L50,65.8c0,0.2-0.1,0.3-0.2,0.4c-0.1,0.1-0.2,0.1-0.4,0.1h-1.7V50.5h2.6V56.7z"
		/>
	<path id="_x37_" fill="#FF6760" d="M22,82c0.4-0.4,0.9-0.7,1.4-1c0.5-0.2,1.1-0.4,1.8-0.4c0.6,0,1.1,0.1,1.6,0.3
		c0.5,0.2,0.8,0.5,1.2,0.8c0.3,0.4,0.5,0.8,0.7,1.3c0.2,0.5,0.2,1.1,0.2,1.7v6.9h-2.6v-6.9c0-0.7-0.2-1.2-0.5-1.5
		c-0.3-0.4-0.8-0.5-1.4-0.5c-0.5,0-0.9,0.1-1.3,0.3c-0.4,0.2-0.8,0.5-1.1,0.8v7.9h-2.6V76H22V82z"/>
	<path id="_x38_" fill="#FF6760" d="M34.1,80.9v10.9h-2.6V80.9H34.1z M34.4,77.7c0,0.2,0,0.4-0.1,0.6c-0.1,0.2-0.2,0.4-0.4,0.5
		c-0.2,0.1-0.3,0.3-0.5,0.4c-0.2,0.1-0.4,0.1-0.7,0.1c-0.2,0-0.4,0-0.6-0.1c-0.2-0.1-0.4-0.2-0.5-0.4c-0.1-0.1-0.3-0.3-0.4-0.5
		c-0.1-0.2-0.1-0.4-0.1-0.6c0-0.2,0-0.5,0.1-0.7c0.1-0.2,0.2-0.4,0.4-0.5s0.3-0.3,0.5-0.4c0.2-0.1,0.4-0.1,0.6-0.1
		c0.2,0,0.5,0,0.7,0.1c0.2,0.1,0.4,0.2,0.5,0.4c0.2,0.1,0.3,0.3,0.4,0.5C34.4,77.2,34.4,77.5,34.4,77.7z"/>
	<path id="_x39_" fill="#FF6760" d="M43.4,83c-0.1,0.1-0.1,0.2-0.2,0.2c-0.1,0-0.2,0.1-0.3,0.1c-0.1,0-0.3,0-0.4-0.1
		c-0.1-0.1-0.3-0.2-0.5-0.2c-0.2-0.1-0.4-0.2-0.7-0.2c-0.2-0.1-0.5-0.1-0.9-0.1c-0.5,0-0.9,0.1-1.2,0.3c-0.3,0.2-0.4,0.5-0.4,0.9
		c0,0.2,0.1,0.4,0.2,0.6c0.2,0.2,0.4,0.3,0.6,0.4c0.3,0.1,0.5,0.2,0.9,0.3c0.3,0.1,0.6,0.2,1,0.3c0.3,0.1,0.7,0.2,1,0.4
		c0.3,0.1,0.6,0.3,0.9,0.6c0.3,0.2,0.5,0.5,0.6,0.8c0.2,0.3,0.2,0.7,0.2,1.1c0,0.5-0.1,1-0.3,1.4c-0.2,0.4-0.5,0.8-0.8,1.1
		c-0.4,0.3-0.8,0.6-1.4,0.8c-0.5,0.2-1.2,0.3-1.9,0.3c-0.4,0-0.7,0-1.1-0.1c-0.4-0.1-0.7-0.2-1-0.3c-0.3-0.1-0.6-0.3-0.9-0.4
		c-0.3-0.2-0.5-0.3-0.7-0.5l0.6-1c0.1-0.1,0.2-0.2,0.3-0.3s0.2-0.1,0.4-0.1c0.2,0,0.3,0,0.5,0.1c0.1,0.1,0.3,0.2,0.5,0.3
		c0.2,0.1,0.4,0.2,0.7,0.3c0.3,0.1,0.6,0.1,1,0.1c0.3,0,0.6,0,0.8-0.1c0.2-0.1,0.4-0.2,0.6-0.3c0.1-0.1,0.3-0.3,0.3-0.4
		c0.1-0.2,0.1-0.3,0.1-0.5c0-0.3-0.1-0.5-0.2-0.6c-0.2-0.2-0.4-0.3-0.6-0.4c-0.3-0.1-0.5-0.2-0.9-0.3c-0.3-0.1-0.7-0.2-1-0.3
		c-0.3-0.1-0.7-0.2-1-0.4c-0.3-0.2-0.6-0.3-0.9-0.6c-0.3-0.2-0.5-0.5-0.6-0.9c-0.2-0.3-0.2-0.8-0.2-1.2c0-0.4,0.1-0.9,0.3-1.3
		c0.2-0.4,0.4-0.8,0.8-1.1c0.3-0.3,0.8-0.5,1.3-0.7c0.5-0.2,1.1-0.3,1.8-0.3c0.8,0,1.4,0.1,2.1,0.4c0.6,0.2,1.1,0.6,1.5,1L43.4,83z"
		/>
	<path id="_x31_0" fill="#FF6760" d="M49.7,92c-1,0-1.7-0.3-2.2-0.8c-0.5-0.5-0.8-1.3-0.8-2.2v-6.1h-1.1c-0.1,0-0.3,0-0.4-0.1
		c-0.1-0.1-0.1-0.2-0.1-0.4v-1l1.8-0.3l0.6-3c0-0.1,0.1-0.3,0.2-0.3c0.1-0.1,0.2-0.1,0.4-0.1h1.4V81h2.9v1.9h-2.9v5.9
		c0,0.3,0.1,0.6,0.3,0.8c0.2,0.2,0.4,0.3,0.7,0.3c0.2,0,0.3,0,0.4-0.1c0.1,0,0.2-0.1,0.3-0.1c0.1,0,0.2-0.1,0.2-0.1
		c0.1,0,0.1-0.1,0.2-0.1c0.1,0,0.1,0,0.2,0.1c0.1,0,0.1,0.1,0.2,0.2l0.8,1.3c-0.4,0.3-0.8,0.6-1.3,0.7C50.8,91.9,50.3,92,49.7,92z"
		/>
	<path id="_x31_1" fill="#FF6760" d="M58.8,80.7c0.8,0,1.5,0.1,2.2,0.4c0.7,0.3,1.2,0.6,1.7,1.1c0.5,0.5,0.8,1.1,1.1,1.8
		c0.3,0.7,0.4,1.5,0.4,2.3c0,0.9-0.1,1.6-0.4,2.3c-0.3,0.7-0.6,1.3-1.1,1.8c-0.5,0.5-1,0.9-1.7,1.1c-0.7,0.3-1.4,0.4-2.2,0.4
		c-0.8,0-1.6-0.1-2.2-0.4c-0.7-0.3-1.2-0.6-1.7-1.1c-0.5-0.5-0.8-1.1-1.1-1.8c-0.3-0.7-0.4-1.5-0.4-2.3c0-0.9,0.1-1.6,0.4-2.3
		c0.3-0.7,0.6-1.3,1.1-1.8c0.5-0.5,1-0.9,1.7-1.1C57.2,80.8,57.9,80.7,58.8,80.7z M58.8,89.9c0.9,0,1.6-0.3,2-0.9
		c0.4-0.6,0.7-1.5,0.7-2.7c0-1.2-0.2-2.1-0.7-2.7c-0.4-0.6-1.1-0.9-2-0.9c-0.9,0-1.6,0.3-2,0.9c-0.4,0.6-0.7,1.5-0.7,2.7
		s0.2,2.1,0.7,2.7C57.2,89.6,57.8,89.9,58.8,89.9z"/>
	<path id="_x31_2" fill="#FF6760" d="M68.6,82.8c0.3-0.7,0.7-1.2,1.2-1.5c0.5-0.4,1-0.6,1.7-0.6c0.5,0,0.9,0.1,1.2,0.3l-0.2,2
		c0,0.1-0.1,0.2-0.2,0.3s-0.2,0.1-0.3,0.1c-0.1,0-0.3,0-0.5-0.1c-0.2,0-0.4-0.1-0.6-0.1c-0.3,0-0.5,0-0.8,0.1
		c-0.2,0.1-0.4,0.2-0.6,0.4c-0.2,0.2-0.3,0.4-0.5,0.6c-0.1,0.2-0.3,0.5-0.4,0.8v6.7h-2.6V80.9h1.5c0.3,0,0.5,0,0.6,0.1
		c0.1,0.1,0.2,0.3,0.2,0.5L68.6,82.8z"/>
	<path id="_x31_3" fill="#FF6760" d="M84,80.9L78,94.8c-0.1,0.2-0.2,0.3-0.3,0.4c-0.1,0.1-0.3,0.1-0.6,0.1h-2l2-4.4l-4.4-10.1h2.3
		c0.2,0,0.4,0,0.5,0.1c0.1,0.1,0.2,0.2,0.3,0.3l2.3,5.7c0.1,0.2,0.1,0.4,0.2,0.6c0.1,0.2,0.1,0.4,0.2,0.6c0.1-0.2,0.1-0.4,0.2-0.6
		c0.1-0.2,0.1-0.4,0.2-0.6l2.2-5.6c0.1-0.1,0.2-0.3,0.3-0.3c0.1-0.1,0.3-0.1,0.4-0.1H84z"/>
	<rect x="0" y="0" fill="none" width="100" height="125"/>
</g>
</svg>
