<?xml version="1.0" encoding="utf-8"?>
<!-- Generator: Adobe Illustrator 18.0.0, SVG Export Plug-In . SVG Version: 6.00 Build 0)  -->
<!DOCTYPE svg PUBLIC "-//W3C//DTD SVG 1.1//EN" "http://www.w3.org/Graphics/SVG/1.1/DTD/svg11.dtd">
<svg version="1.1" id="Слой_1" xmlns="http://www.w3.org/2000/svg" xmlns:xlink="http://www.w3.org/1999/xlink" x="0px" y="0px"
	 viewBox="0 0 270 270" enable-background="new 0 0 270 270" xml:space="preserve">
<g id="Layer_x0020_1">
	<path fill="#CC6666" d="M135,0C60.4,0,0,60.4,0,135s60.4,135,135,135s135-60.4,135-135S209.6,0,135,0z M189.1,60.1
		c4.3,3.5,4.2,10.9-0.3,16.6l-54.1,58.8c-4.5,5.6-3.5,5.4-7.8,1.9c-4.3-3.5-4.4-2.4,0.2-8.1l46-65.3
		C177.6,58.3,184.8,56.6,189.1,60.1z M124.4,150.4c-8.4,3.9-13.3,6-19.7,6c5.2-4.8,4.1-3.5,7.6-14.3
		C118.3,129.5,137.9,144.1,124.4,150.4z M158.7,211.6c-2.1,0.3-22.3,0-23.7,0c-1.5,0-21.6,0.3-23.7,0c-2.2-0.3,0-2.1,2.8-4.1
		c2.8-2.1,3.1-5.2,3.1-5.2l1.1-6.7h33.6l1,6.7c0,0,0.3,3.1,3.1,5.2C158.7,209.5,160.9,211.3,158.7,211.6z M216,182.6
		c0,3.6-2.9,6.5-6.5,6.5h-149c-3.6,0-6.5-2.9-6.5-6.5v-94c0-3.6,2.9-6.5,6.5-6.5h93l-6.8,9.7H63.7v77.8h142.6V91.9h-25.9l8.9-9.7
		h20.2c3.6,0,6.5,2.9,6.5,6.5V182.6z"/>
</g>
</svg>
