<?xml version="1.0" encoding="UTF-8"?>
<!DOCTYPE svg PUBLIC "-//W3C//DTD SVG 1.1//EN" "http://www.w3.org/Graphics/SVG/1.1/DTD/svg11.dtd">
<!-- Creator: CorelDRAW X7 -->
<svg xmlns="http://www.w3.org/2000/svg" xml:space="preserve" width="270px" height="270px" version="1.1" style="shape-rendering:geometricPrecision; text-rendering:geometricPrecision; image-rendering:optimizeQuality; fill-rule:evenodd; clip-rule:evenodd"
viewBox="0 0 270000 270000"
 xmlns:xlink="http://www.w3.org/1999/xlink">
 <defs>
  <style type="text/css">
   <![CDATA[
    .fil0 {fill:#CC6666;fill-rule:nonzero}
   ]]>
  </style>
 </defs>
 <g id="Layer_x0020_1">
  <metadata id="CorelCorpID_0Corel-Layer"/>
  <path class="fil0" d="M135000 270001c-74436,0 -135001,-60565 -135001,-135001 0,-74437 60565,-135001 135001,-135001 74437,0 135001,60564 135001,135001 0,74436 -60564,135001 -135001,135001zm0 -253798c-65510,0 -118797,53287 -118797,118797 0,65510 53287,118797 118797,118797 65510,0 118797,-53287 118797,-118797 0,-65510 -53287,-118797 -118797,-118797z"/>
  <path class="fil0" d="M155935 207459c-2807,-2059 -3112,-5169 -3112,-5169l-1038 -6725 -33570 0 -1052 6725c0,0 -291,3110 -3098,5169 -2809,2068 -5022,3847 -2809,4136 2137,278 22266,29 23744,0 1488,29 21607,278 23744,0 2203,-289 0,-2068 -2809,-4136z"/>
  <path class="fil0" d="M112324 142174c6012,-12715 25597,1963 12098,8224 -8411,3900 -13252,6047 -19723,6047 5189,-4792 4142,-3499 7625,-14271z"/>
  <path class="fil0" d="M189120 60077c-4338,-3493 -11550,-1782 -16096,3861l-45986 65342c-4548,5642 -4521,4559 -172,8065 4350,3507 3294,3760 7830,-1882l54082 -58828c4545,-5642 4691,-13052 342,-16558zm-11828 7831c0,0 -671,-790 -2913,-2585 3363,-5484 9968,-4470 9968,-4470 -6261,3694 -7055,7055 -7055,7055z"/>
  <path class="fil0" d="M209515 82161l-20212 0 -8939 9730 25921 0 0 77757 -142569 0 0 -77757 82938 0 6842 -9730 -93011 0c-3586,0 -6486,2911 -6486,6486l0 93959c0,3573 2900,6471 6486,6471l149030 0c3586,0 6486,-2898 6486,-6471l0 -93959c0,-3587 -2900,-6486 -6486,-6486z"/>
 </g>
</svg>
