<?xml version="1.0" encoding="UTF-8"?>
<!DOCTYPE svg PUBLIC "-//W3C//DTD SVG 1.1//EN" "http://www.w3.org/Graphics/SVG/1.1/DTD/svg11.dtd">
<!-- Creator: CorelDRAW X7 -->
<svg xmlns="http://www.w3.org/2000/svg" xml:space="preserve" width="270px" height="270px" version="1.1" style="shape-rendering:geometricPrecision; text-rendering:geometricPrecision; image-rendering:optimizeQuality; fill-rule:evenodd; clip-rule:evenodd"
viewBox="0 0 270000 270000"
 xmlns:xlink="http://www.w3.org/1999/xlink">
 <defs>
  <style type="text/css">
   <![CDATA[
    .fil0 {fill:#CC6666;fill-rule:nonzero}
   ]]>
  </style>
 </defs>
 <g id="Layer_x0020_1">
  <metadata id="CorelCorpID_0Corel-Layer"/>
  <path class="fil0" d="M135000 270001c-74436,0 -135001,-60565 -135001,-135001 0,-74437 60565,-135001 135001,-135001 74437,0 135001,60564 135001,135001 0,74436 -60564,135001 -135001,135001zm0 -253798c-65510,0 -118797,53287 -118797,118797 0,65510 53287,118797 118797,118797 65510,0 118797,-53287 118797,-118797 0,-65510 -53287,-118797 -118797,-118797z"/>
  <path class="fil0" d="M56077 143365l44491 20688c1149,532 2372,803 3640,803 1649,0 3254,-469 4652,-1357 2504,-1602 3994,-4325 3994,-7290l0 -228c0,-3351 -1962,-6429 -5003,-7840l-27825 -12927 27825 -12931c3041,-1413 5003,-4491 5003,-7841l0 -225c0,-2972 -1490,-5695 -3994,-7290 -1385,-881 -2993,-1350 -4659,-1350 -1254,0 -2511,277 -3636,800l-44488 20685c-3038,1416 -5001,4494 -5001,7841l0 620c0,3344 1960,6422 5001,7842z"/>
  <path class="fil0" d="M113253 185503c1623,2222 4233,3548 6981,3548l224 0c3774,0 7080,-2417 8230,-6006l29308 -90807c841,-2625 376,-5514 -1249,-7742 -1623,-2221 -4232,-3547 -6984,-3547l-220 0c-3778,0 -7088,2417 -8237,6006l-29309 90814c-833,2625 -365,5514 1256,7734z"/>
  <path class="fil0" d="M157142 114442c0,3347 1963,6425 5004,7843l27829 12929 -27829 12927c-3041,1411 -5004,4489 -5004,7840l0 228c0,2965 1496,5688 4000,7290 1390,885 2998,1357 4651,1357 1264,0 2486,-271 3644,-807l44487 -20688c3038,-1420 5000,-4494 5000,-7841l0 -617c0,-3351 -1962,-6425 -5003,-7841l-44484 -20689c-1124,-519 -2380,-796 -3637,-796 -1660,0 -3272,466 -4656,1348 -2506,1597 -4002,4320 -4002,7289l0 228z"/>
 </g>
</svg>
