<?xml version="1.0" encoding="UTF-8"?>
<!DOCTYPE svg PUBLIC "-//W3C//DTD SVG 1.1//EN" "http://www.w3.org/Graphics/SVG/1.1/DTD/svg11.dtd">
<!-- Creator: CorelDRAW X7 -->
<svg xmlns="http://www.w3.org/2000/svg" xml:space="preserve" width="270px" height="270px" version="1.1" style="shape-rendering:geometricPrecision; text-rendering:geometricPrecision; image-rendering:optimizeQuality; fill-rule:evenodd; clip-rule:evenodd"
viewBox="0 0 270000 270000"
 xmlns:xlink="http://www.w3.org/1999/xlink">
 <defs>
  <style type="text/css">
   <![CDATA[
    .fil0 {fill:#CC6666;fill-rule:nonzero}
   ]]>
  </style>
 </defs>
 <g id="Layer_x0020_1">
  <metadata id="CorelCorpID_0Corel-Layer"/>
  <path class="fil0" d="M136280 101916l0 -4c-11,0 -23,0 -36,0l0 -1c-4,0 -14,0 -18,1 -6,-2 -13,-2 -18,-2l0 1c-15,-1 -22,-2 -35,-2l0 3c-8574,-89 -14011,4562 -14236,13047 -324,12223 4551,19827 13025,20013l-1 2 79 2 0 -2c8463,444 13888,-6781 14471,-18995 403,-8474 -4676,-13519 -13231,-14063zm-45397 81328c-1097,-579 -2484,-935 -3792,-983 -3407,-126 -5598,1826 -5718,5085l-110 2954 -1278 -48c-520,-18 -953,388 -972,906l-72 1934c-19,516 383,952 902,972l1279 47 -271 7332c-20,523 384,957 903,976l3676 137c517,19 951,-386 971,-907l270 -7304 3231 119c513,19 953,-386 972,-900l72 -1964c19,-518 -389,-957 -903,-975l-3230 -120 79 -2155c39,-1043 417,-1494 1226,-1465l57 2c336,13 731,110 1214,297 243,87 510,78 744,-31 234,-114 412,-316 488,-558l722 -2230c142,-437 -51,-913 -460,-1121zm105708 -127662c-12802,-474 -23603,9554 -24076,22354 -184,4967 1220,9631 3746,13510l-10761 9993c-7466,-7304 -17560,-11969 -28794,-12384 -11893,-441 -22860,3960 -31005,11431l-10252 -9132c2186,-3389 3525,-7383 3684,-11701 474,-12798 -9556,-23597 -22358,-24071 -12800,-474 -23601,9554 -24075,22353 -474,12804 9556,23606 22356,24080 6084,224 11710,-1923 15995,-5613l10074 8973c-5639,7036 -9154,15870 -9513,25556 -507,13714 5422,26200 15079,34542l-7792 8224c-3636,-2700 -8094,-4370 -12951,-4550 -12801,-473 -23601,9559 -24074,22361 -474,12800 9555,23599 22356,24072 12802,474 23601,-9554 24076,-22354 204,-5535 -1558,-10694 -4654,-14809l8464 -8938c6230,3889 13521,6252 21371,6542 23977,887 44203,-17894 45090,-41871 383,-10340 -2895,-19981 -8663,-27674l10768 -10002c3841,3278 8765,5340 14191,5541 12800,474 23601,-9559 24075,-22361 473,-12799 -9557,-23598 -22357,-24072zm-112136 153901c-9437,-349 -16834,-8314 -16484,-17749 349,-9442 8312,-16834 17752,-16484 9440,350 16833,8309 16483,17751 -348,9436 -8310,16832 -17751,16482zm-9172 -113571c-9437,-348 -16837,-8308 -16487,-17752 349,-9433 8315,-16830 17753,-16480 9441,350 16833,8314 16485,17747 -350,9445 -8312,16835 -17751,16485zm87331 58870c-447,-4320 -1396,-8672 -3564,-9629l-13574 -6003 -3122 -2834c-825,-754 -2086,-749 -2905,10l-4650 4293 -4332 -4628c-762,-815 -2015,-912 -2894,-224l-3327 2598 -13980 4984c-2231,794 -3498,5063 -4261,9336 -4218,-6076 -6579,-13512 -6285,-21454 722,-19507 17177,-34788 36684,-34067 19508,723 34786,17181 34065,36686 -294,7943 -3196,15183 -7855,20932zm32485 -58871c-9441,-348 -16835,-8308 -16486,-17750 349,-9436 8312,-16832 17753,-16482 9436,348 16833,8314 16483,17750 -349,9440 -8315,16832 -17750,16482zm5722 -10951c-61,-247 -221,-462 -445,-593 -225,-125 -490,-155 -736,-85 -500,150 -899,220 -1239,207l-56 -3c-805,-29 -1149,-509 -1110,-1552l221 -5996 3227 119c520,19 954,-386 974,-907l72 -1961c19,-516 -385,-953 -904,-972l-3226 -119 128 -3463c20,-521 -388,-952 -902,-971l-3680 -136c-514,-19 -951,379 -971,901l-129 3492 -1278 -48c-517,-18 -954,387 -973,902l-72 1933c-19,517 386,957 904,977l1279 47 -252 6795c-121,3260 1920,5365 5327,5491 1311,49 2715,-201 3855,-696 423,-178 650,-637 542,-1077l-556 -2285zm-117760 -15958l-3195 -118c-516,-19 -951,385 -970,902l-17 435c-950,-1044 -2273,-1622 -3867,-1681l-86 -4c-3732,-138 -6447,2669 -6601,6824 -157,4246 2381,7306 6171,7447 1590,58 2947,-421 3966,-1386l-33 895c-63,1714 -1341,2687 -3421,2611 -1268,-48 -2542,-450 -3689,-1158 -217,-137 -482,-172 -729,-112 -245,61 -463,230 -585,451l-1027 1834c-244,435 -103,988 318,1255 1720,1081 3814,1718 5908,1796 4808,179 8145,-2484 8297,-6623l460 -12396c20,-517 -387,-953 -900,-972zm-7273 10039c-1684,-62 -2765,-1419 -2692,-3374 73,-1969 1250,-3251 2935,-3188 1648,61 2713,1424 2639,3394 -72,1955 -1233,3230 -2882,3168z"/>
  <path class="fil0" d="M135000 270001c-74436,0 -135001,-60565 -135001,-135001 0,-74437 60565,-135001 135001,-135001 74437,0 135001,60564 135001,135001 0,74436 -60564,135001 -135001,135001zm0 -253798c-65510,0 -118797,53287 -118797,118797 0,65510 53287,118797 118797,118797 65510,0 118797,-53287 118797,-118797 0,-65510 -53287,-118797 -118797,-118797z"/>
 </g>
</svg>
