<?xml version="1.0" encoding="UTF-8"?>
<!DOCTYPE svg PUBLIC "-//W3C//DTD SVG 1.1//EN" "http://www.w3.org/Graphics/SVG/1.1/DTD/svg11.dtd">
<!-- Creator: CorelDRAW X7 -->
<svg xmlns="http://www.w3.org/2000/svg" xml:space="preserve" width="60px" height="42px" version="1.1" style="shape-rendering:geometricPrecision; text-rendering:geometricPrecision; image-rendering:optimizeQuality; fill-rule:evenodd; clip-rule:evenodd"
viewBox="0 0 60000 41999"
 xmlns:xlink="http://www.w3.org/1999/xlink">
 <defs>
  <style type="text/css">
   <![CDATA[
    .fil0 {fill:#CC6666;fill-rule:nonzero}
   ]]>
  </style>
 </defs>
 <g id="Layer_x0020_1">
  <metadata id="CorelCorpID_0Corel-Layer"/>
  <path class="fil0" d="M54369 42126l-48750 0c-3094,0 -5620,-2521 -5620,-5623l0 -31006c0,-3097 2526,-5623 5620,-5623l48750 0c3105,0 5632,2526 5632,5623l0 31006c0,3102 -2527,5623 -5632,5623zm-48750 -38498c-1026,0 -1866,841 -1866,1869l0 31006c0,1036 840,1878 1866,1878l48750 0c1038,0 1878,-842 1878,-1878l0 -31006c0,-1028 -840,-1869 -1878,-1869l-48750 0zm24382 22584c-1777,0 -3546,-658 -4928,-1984l-20991 -20252c-742,-722 -770,-1903 -45,-2657 721,-740 1902,-758 2653,-43l20985 20248c1299,1247 3331,1247 4632,0l21425 -20652c747,-724 1930,-696 2654,48 712,740 693,1931 -46,2642l-21425 20666c-1381,1326 -3147,1984 -4914,1984zm-28125 8974c-605,0 -1200,-294 -1565,-843 -567,-861 -331,-2023 528,-2600l20070 -13303c860,-576 2032,-338 2598,532 578,861 340,2023 -519,2599l-20079 13304c-321,210 -678,311 -1033,311zm56248 91c-358,0 -714,-100 -1036,-310l-19921 -13184c-860,-567 -1097,-1731 -530,-2593 567,-868 1731,-1105 2601,-529l19921 13173c859,567 1097,1731 530,2600 -367,541 -960,843 -1565,843z"/>
 </g>
</svg>
